<mxfile host="app.diagrams.net" agent="Mozilla/5.0 (Windows NT 10.0; Win64; x64) AppleWebKit/537.36 (KHTML, like Gecko) Chrome/137.0.0.0 Safari/537.36" version="27.1.1">
  <diagram name="Страница — 1" id="G5lrmGf9LQZ7O9_ZfLfe">
    <mxGraphModel grid="0" page="1" gridSize="10" guides="1" tooltips="1" connect="1" arrows="1" fold="1" pageScale="1" pageWidth="827" pageHeight="1169" math="0" shadow="0">
      <root>
        <mxCell id="0" />
        <mxCell id="1" parent="0" />
        <mxCell id="THTOjxSDZkzCPnBUejS3-59" value="" style="endArrow=none;html=1;rounded=0;strokeWidth=5;dashed=1;dashPattern=1 1;" edge="1" parent="1">
          <mxGeometry width="50" height="50" relative="1" as="geometry">
            <mxPoint x="332" y="60" as="sourcePoint" />
            <mxPoint x="440" y="26" as="targetPoint" />
          </mxGeometry>
        </mxCell>
        <mxCell id="THTOjxSDZkzCPnBUejS3-58" value="" style="endArrow=none;html=1;rounded=0;strokeWidth=5;dashed=1;dashPattern=1 1;" edge="1" parent="1">
          <mxGeometry width="50" height="50" relative="1" as="geometry">
            <mxPoint x="564" y="79" as="sourcePoint" />
            <mxPoint x="445" y="22" as="targetPoint" />
          </mxGeometry>
        </mxCell>
        <mxCell id="THTOjxSDZkzCPnBUejS3-57" value="" style="endArrow=none;html=1;rounded=0;strokeWidth=5;dashed=1;dashPattern=1 1;" edge="1" parent="1">
          <mxGeometry width="50" height="50" relative="1" as="geometry">
            <mxPoint x="446.5" y="75" as="sourcePoint" />
            <mxPoint x="447.5" y="29" as="targetPoint" />
          </mxGeometry>
        </mxCell>
        <mxCell id="THTOjxSDZkzCPnBUejS3-52" value="" style="endArrow=none;html=1;rounded=0;strokeWidth=5;dashed=1;dashPattern=1 1;" edge="1" parent="1">
          <mxGeometry width="50" height="50" relative="1" as="geometry">
            <mxPoint x="509" y="707" as="sourcePoint" />
            <mxPoint x="370" y="637" as="targetPoint" />
          </mxGeometry>
        </mxCell>
        <mxCell id="THTOjxSDZkzCPnBUejS3-51" value="" style="endArrow=none;html=1;rounded=0;strokeWidth=5;dashed=1;dashPattern=1 1;" edge="1" parent="1">
          <mxGeometry width="50" height="50" relative="1" as="geometry">
            <mxPoint x="227" y="702" as="sourcePoint" />
            <mxPoint x="368" y="637" as="targetPoint" />
          </mxGeometry>
        </mxCell>
        <mxCell id="THTOjxSDZkzCPnBUejS3-1" value="" style="shape=image;verticalLabelPosition=bottom;labelBackgroundColor=default;verticalAlign=top;aspect=fixed;imageAspect=0;image=data:image/jpeg,/9j/4AAQSkZJRgABAQAAAQABAAD/2wBDAAUDBAQEAwUEBAQFBQUGBwwIBwcHBw8LCwkMEQ8SEhEPERETFhwXExQaFRERGCEYGh0dHx8fExciJCIeJBweHx7/2wBDAQUFBQcGBw4ICA4eFBEUHh4eHh4eHh4eHh4eHh4eHh4eHh4eHh4eHh4eHh4eHh4eHh4eHh4eHh4eHh4eHh4eHh7/wAARCAGjAnYDASIAAhEBAxEB/8QAHAAAAgIDAQEAAAAAAAAAAAAABAUCAwABBgcI/8QARxAAAgEDAwIFAgQEBAUEAAILAQIDAAQRBRIhMUEGEyJRYRRxBzKBkSNCobEVUsHRM2Lh8PEWJENyglOiFyU0NZJEc7Kzwv/EABoBAAMBAQEBAAAAAAAAAAAAAAABAgMEBQb/xAAnEQACAgICAgMBAAMAAwAAAAAAAQIRAyESMRNBBCJRMhRCYVJxgf/aAAwDAQACEQMRAD8A+X62vWojrWxwa6DEkakMVEcipqOKAN1sGtVsCmQ0SBGKs7VBRxU16UxGxUlrQHNTANAGCpDqK2AamE70AYvzVo6CohfirESgCxOgFWotRjQ8cUVEnfFBaMRM1ci7alGvfFXLFnnFFFpEoIw8o9qe2lkpjBxn9KD0y13sMiuq0yy2R++f6UzqxQs5ia1AkOAashtjkZH9K6W401XbKjmr7bTVAG6g08Qq0+0ZjgCntrZLGmSqk0Va2sceMD74o6W2KxpJy0bflbGP0I7UrOiONJASRKOdgH2oy1VT061KOH/l/wClEQwFeQKTaNEqL7GMtKqquWY4AA6k13GnRHQLI3V5byJfTxvHbRSLtManhpD39wB3rjrNSjqRnjkfftXY+MNyWWhsGJiOnqE3dSdx35//ABGokTN7SEDseu/AHXJ5qtp4lXAjDnPJfuPsP71SZctk5x1GKFmk9R56806K0hpZG2uLuKN2aIO6qQRuGCRn27ZojxJNM2sXTyqVJlYAAYAA6AfGKQCUg8HmmuuzSeYjPIT9REk2wHhCVAx96KD2AFs5phossUV7HJKdqgnnHQ44P70pDnNXRt0xRQDW/bEeJW9QGAO2K529bccU21CQPbxnjfGoRueo7HHv2pPIpYk8/aiigQRAnJFXJBx0+KtSPuSAB1z0Hz9q438RvGA0OfTodM1O13sxe5AQTLswNucHkHnIBzihuiJyUFbOta3UKWfCqBksxwAKglvHMreTIku1tr+WQ21vY46GvGPEHjnW7uwS2/x24WR0aG68kJ9PKp6FcDIJHBzXPaZ4j1qwMpstSuLd5B6xFMfV8/J4/SlzOZ/KjfR9CNap5/kB0M23d5e4b8e+Paud1jxNoWk60NJvpZI5CM+aoVkBzg5wcjHfNeVaXrevTaquoNJqFxckBY7kxtK4AJO1em4Z7H2xSq9vL464b68l+onVxI0k0ZjWQjrkDBwemevFHImXyf8AxPcrPV9Bv7qK1sdUguJpdxVRwfT756Z7DvTBrYgnK4xXzq073DmdXjEpfEaGU5jA5XGeuOgPYCuz0L8QPEeleVZ3NoL2GE7WM6/xVGB1YHtxS8ldjj8lf7Hqj2x9jmqGt8DODXmVz+JniGRpWh+ijCucDyQQBjpnPTnNdx4E8Vr4nP00unTWt2kPms2P4bgYyVJ56kcc1SyJmkc0Jug54PiqXhFOpbfHPUUNLBz0q0y3EUtFiqZE4pnJF1yKoeEUzNwFjIapkjzTKSH9aHkjINBm1QseM85qhkzximjxj2zQ8sJ3cYxTTMnAVyR1UV5pnJDQ8kQFMxlEAZM1UycdKNeOqmSghx0Aleagy8cUYycVS6H2oM6BHWo7feimSqinFBJQQMVHb81dtAPSokAGgCqsqRGahj3pAa71hrZFRNIDXatE8VvtUSaANdqxuK2emaix4oA0TWZHvWGot0oA2TzxWs1qtDvQBpj7VlYRWqANGsrD1rKAEIrO9arKg0Jipr1qAqY4oAnW/tURyKmq96ZLJIDU1rF6VJRzTAkq1Yq1iDjFWouBQIxV4qarWwMirY1oA0ic1ckWelTiTPajYounFMpRRXBbMQPTxRAgZRyMU30u13RltuealPCGlCbQMUGyx6FMMLdMdaaWdmXGMZom0s8ydK6GwsEQAhetBtjw2LrCxkRh6Tin9spjjC9TV0USoOlF/Rs0iKithlBZivA9z9qDsjBRAlBPPPWiYo3xuZeOOccc9P3qz6WEEn662MYbBIJ34z1CkZNGpqNzEhS1meKFQQkZwQfuDwTz39zQOzLGxubncILeSXbyxRchfuelMIrDVLdWYWN5Erph8wttYH345onxLPi6Flbyg2scSbUj4jLlQWbA4zkmhLK9uLWQywyyI+MKQ5AHzgUmVbGkFnp2m2ynUIpJ7iRdr2m3Y0Yzw2/PpOO2M+9V3X+FZ8u1tbpUDZ815ssV7+nAAqme7N4UkvUM0wPMoba7j/mP8x+TzRMN06bFtbe2i4OSIvMZs+5bP9MCpaHQZpttpEkiqp1KeVm2x28caZk9sNz37YP6Uz8dy21tYaboaSCe4sYm82UY9Bc5MWB7d/muZuPHei6BfmybUVsNXaOJvMFtF5aIz7W54bOOvPTPIpfP4i8NajbTXenXqrJCz/UxNKpCDIG9ACSVJPGCf1qDJtOXZMzbd3vjih3ZcnFcdr34k6FYXDW9qkuouu0loSBHg8nDHuPardC8daNqd00Erx2Id9lu08gBkGAQSOgB5A75q7QeSN9nXRANIoLYBIBNMdfnhmv5pIpFFtCAiM5wAijG4k9Omf1pTqU/+F6PdanIqNFbxM+S2FJHAG4Z6nFeJ+L/AB94mvriaAXTWdtIhBt4uUwygEBiASMDoc85pN0h5Mqgj2i21fSpkneK9jcW4Jcn0qxAzhWbg9Rz8ikGh/iDp17cOtzZSWVusgjaZ5QfKYn0+YP5QegIz3zivG4ZNZvPD5SNHl0y2YbjLImFbuI93IJGMhc5x9qBkdlyixqGxjaw5I9uahzo5X8mR9L2uvaBql2YLHWbC5mAGUSUZ9u+MmjHtxGpklOxFUszMDgKOSa+X4Llo7iKWCUwTRuGhOeVYcg5HfIr1D8L/GEtqusf4xcapfvFbm4iCzAguDnaqnHqz3B6A8ULJbNV8q+0Xax+IGqXOoXej6Fp9vM5bEU8E28bOQSWOAvVWB7dDXkbSPbSyvdLbt5cpXYTuUuerAL+YYGDj3+aa6lcyvqmqz2k8KRXtusX8NFh3IdrMuwZxlgAffBPelk9tLDCiNLbvBxIrRYyCBjnvx7dKJSRy5JuT2DzaZeJaR6jLp88VpcOUt3A9MjjllH/AHxVptLSK+ncKDBJuMSuy5Rf+bA4OOMjoTWprxZWedhNNKzb2d2y5boSf0oIXswvFlhCliTu3DI/Wo5N9Gdja5v55bSG2jneKxQkrbmdmUtz6hnviqpro38RgvZ5JZQFWOaViwjA6KvPT4pfcz7yxk8pcnO1F9J/Sq5XVY0AYFFBOMYIopsLGWo2cUOmfVWzKzxM2/I5dWOBkc88E/O4UHCt/bSS8PsjA3kHKDIyMsMjntzW4rlpCCXyqj1rjtTyHxTNb2l1bxx26/VkGaVrceZ6fy+odOg/r70009MYsFi9y/8ADnjGxwkjpucgsOGIUZAz6ffPvT3Sb/XPC2qWN5cb40t3Mj2rvkKrAbgQCQpKn47UitNWurZ3K3ToWYHzUO12+cjmrIb5Rem6miiu/MBQNcIZM5+SevX96G0vQJ07R7l4c8Z6L4j1BbCzjmhmMTSHzcbQQcbQ3G49DwKdzW5DYxz7V8/+FZbGz8R2z6jBC9ut3G0o5wqk9h8df0xXssH4iaJe3Swi3lVpLowB2cBQvOJG7hcAZ46mrhOzuw5k19xi9uSD6CTVDW57DNcX4q/Ezdp0ceiRS2d6ZmVndA6FBkAqT78dgRiitE/EzSrq3Q6tbSW05Cj+Hja/YsAefcn2quZXmhdHRzQH2oOWE85FdA8SyRrJGweN1DIw6Mp6EfBoKaDsRWiZTin0JHi46VU0Zz0pu9t8UNJER2oMnAWPFwSRQssXPSm7R/FDyRd6ZnKAnkjOaraLjpTR4OaraH4p2ZOApeI1Q8ZpnMmMjGaFkTHNBlKIA6YFVMtGOlVNHx0oM2gNl5qsrRbJyaqZO1BLQNtNQIokrzVbLmgkpNRIq1hgVHFICvHvUSKtIBrW2kBTzWsVaVqOPigCth7VEjircZ7VogUAUjNZjmrMc5xUWHPSgCJHNaqWK0VoArwayrNtZQBzlbrVbWoNCY6VOorwKligDYqxaigq0LTJZscdKtSoKvGaviTNMknGKvAHtWo48VfHFk5xQMiiEjgGiYYsEVOKI4oqGEjmmUkzIoh2FMLS33EZqFvB8U3s4AuOKDaEAzTrcpGVHc1aLMrLufkGi7FQVVcd6YGJSoDCg7YwVA1rbRDDbRR8CjcOOBVSADAHSi4wAOaRqtFiBUTlFJ7Ek8fpVcs8jOWLncRgn49qyR+OM1URk00USXJPU0VBxjHJ9qoiWmOnWM9wPMjiJiGd8h/KoA5J/cUCQ11BY20zT7tUjhzE0T7TwWRsZPzgiuU8V+K7HwxdWtve2tzMbld4dMbQoOPfJPwKt/FOc3HhNrezmtYrWzgxO16WCygkliFHck8DIPA+1eAvqcsswjnuLiO2SQMq8vIo5wq7scD9OCPaok60ZZczj9UeiaJ+KGtPJcvdWdhNGGeQKzlCqADIU+w688kn2ovxt+I31unva6NFdW6SAYu4ZurFd3l4AJznd0wRjNeTahci6u2MEMcUakiMqoUlc8bscE1dDpt3Bp9pqNzaXA0+eT0XIONwX8wXPBbHBz+tZ2zm806otur+6vAkt3KshySW8vBLHqze5rJr69a1jtJrpZBHhUjCgBR9wP71XosNnc63b293dC3tmlAdpW8vCjk5bBxxwDgjJHarNVWw+png0qK5gtzIfp0mlWX0HOSxAGT05AH6VDRlYJc+exZ1AVOAoXj+n+tZaw3hkjjjQySOf4ccXLN9sVFXji8suhkZM7hnO4e2DxU5LpgsakSRhc4Kt/X45NCVIDq/DXi7WtCtJbSxuEaOZCsiSkyBA4IyOykE5z79eKT+JpbC68QT6gkEkMEij+Au0suB/OQACT1JAGaUedhx5bAIQTlu/wD371A75AyQxspZd+4Lxj39/wBaNg22XzTiZdiqWAGUBUYUewHb70G9xKmCwOGGQCO/3q6MRmfaJZOMEjaBn7f161ZMihWeCQuoxywC4HyMn/SqSoRXZO88LAMseMnJ4B/61c15KgUByVHTK5Gf71TFaTktJJCREmPMKtjAJ6irg0SEbkJjLEAMBkjtk1MqAj580jALxMQcuq5B/wBqsEcrLGCpkDfnG4ZH2xUZ7qFIWjRPKYcBY+hHuO9DQXMsLseqMMHav5f196nbA3cxbcy25d1UerK8qf8AahXmIXhsBvYUXFNeF9sLOjEY3Bd2/wD2oeC3jkDvI7nn1bV9J56Z96uLrsDUVncXGZYlRlU4LM2O1QeMxz+VL6ARubGDn25o3zorfHkq6K/U7ufar2ngYNKbVJGQckryftUub/AoVNMscgCAHjJ45PxW2ZlVRslCvyMrTGFbE3ObdRHJjonqx9s+1UyT3EN4YpHDqchc8j7/ABTUrAgtjLNCZYo9pABXJ5YewHvUra2uUwDF5YPqzJ6ckdsVv6qWNsiT0HgLycgf1opZYp3WaHEYU4KyscAnv71DbA0IbvzVcOoB4Hq5GOQKDut8Ew89WjYjkHPIq8X3lS+SQGVT6Mrnafg9hW3kGox7SwEiHv798duaFfsZQqStIrmQKkg9+lXx297EHaGRWDLgEfmBz0Bx1oeNLhLhFdDGE9OGxkj2HvUrmZohlApQHHPUH7VTf4Kj0r8HNagt2NvrHiSW3RA+y0nJ8rOPzBum7gjb0/WvTLXUNHv7P6+01G1ktf8A8wyBcfBBxg8d6+cba/w6yIxDgZO7G0fNSDJI5Co2VbcVB4Oe9V5GjeGdwVH0fPb8Z2nnkUHLBz0rivwh8SETnw7qNxGRJvlt5pWOWc49O4nHQcDAr0yazk5Cpz7VtGVo7ISWSNo56SDrgUNJDg9KfPaliMDr3xQ0lt8c/arsfASPFiqJUIpzLbHtQksPFBlKAlljySaFeLNN5ITk0O0BFOzFwFckPFDNHgU2kj60HKhBPFFmEoUL3SqZI6OaMnoKreIgc0WZuIAyfFVMuKNZOaqaPPamZ8QMrzya0UB6US0XxUTEfalQqYKyc1ErR0cXuKx4FzSCheVqJBA96YCFe3NQkh5OKApgXaqz1oloyO1VlDnGKBFNYwGKt8pvatGI+1AFFbxVnln2qYiNAFIHzWUQIqygDkB1ra9ajU0qDQmORU16VBelSXrQBYtWjpVYFWKDmmQWoKIiHNUIuaJhXBpgXxijIV5FDQ8mj4FFNFJBUEQK0ZFbsSoCn74qq2AwKeWSgp+Wg6IRshbWfT0nNOLS0AXJH71Kyh3c4pjtAGBQdcYEIIwnQVYTk1tR2xUgmaDVIigq/dxWlTAzitH81IZvOamq1FVoHxLrdn4fsHmuXAnaJmt0kVtkjDjaWAIGT70xukrY1jQ9hU9S1nTtBispdQvFtVuN6oxBG4gcgsOntk1wNh+J1s2rW7XFg9vpzRkTADfIrEHaykYJHTjtXB+Jr86xrF1dNeXM+/BUTNlwAAO2B29vvzWMsiXRhPPFLR2Wt/ipcm3j+h0a1eFhtuBdYnVmB/KoHVcDuO9ef61c3mqancXb6fa27XRD+XbphF/+oJOD781qW72osSp5WF9BXAwR7+9DR3R8/Mrssh5AVsjn47GsnkbOSUnJ2ymGG7WMGNWJBJdcYVsds+/PXt1rro73QryaPT5Lh4LW1tS1q/lNGxk8vHksobaoLZzIAS3Ge+OWF4rOqyRl2x6iPT0q2a5+ogFs7gRx5eM9NpIGeevOBmnGbRJ1F14butRsdM1LRNJmjtrtDF51xOH8x0UEjCr/AAwcYUHGcDJqN34C12x8QwaVq8EEF7IElEHmDEiO21cYyAM8nPAAJz0ouHxPoWl6Zp+reHFutM1+1ZEvbaP1WWopjazleikgkc9QTSg6+UGpm1nktxqjKCgJYpboxKRB2/lHHA4OO1avj2xm/GPhR9C0qzulFxIbmNmdHThfUQGU5yQQAenQ1xszOi7ctwegNOYBFO7edc8ENuLpvw2c4HfPzVN7DbpiUsbhyAZAy4UH/X71DmhMpsbSaUWxEkREzMAiYeTgZ5UcgHtnrRCWd1NBdQrDeeZaqC6EAKnPO4H1YHx071G3e2aZHeBVG7Kjlc/9+9ETvZeaWjQhlO5yTj2BH27Uua/BAl9YXtlFHLd2UwjYAxTNGfLk6Hhuh4IyPmrLMJd3EU9zbQwwjLMY0IDccDbnv0yMU6/xm6WO0a31ORHsm32YD+mE552qeAT0NJr15HVn2L6m3Oye55JJHTJzQ5J9AEXTTTMAs8aoo27d/Kg+3uPvzS65jMBaPzNzHOd3GBVEkmxl8ssSAeT81F51LrhfyjufzE0lF+wJDbkPgEDg57VIPtG1yWVuoBwBUDIUkT0pKhbBUt6eexNMLqwtiilUSGTI3LGTjA46d/vTdAahuoFjCWxMbgnoCSDjkA1G7tdS09IYpI1EbruXy3DqQeh46farpLnyXFvFAIBnqvHHvmp/WGJUjdzIko9W/B2gdAPiovYCUl451WYFQ3Xb0AqwHbIWAOByB0PPembtayqC9qoQEgFWP9PatH6OJgsMYbIxnOevt7H5quX/AABYkqqXjUMBnGQOSf8AWjVMcqwF1BC852kbaIhvmNndWHmNHFcMpmjwcSbT6d2PbtirtKsNOlulS4vPprYnZJKYTLsGOTsGCx+Rii0xiuWfbLvREdADtGPy9635kkku5wAzAjdjj9qK13SJ9Kv0s7l4f4gEiPEwYNGeQxAJ5xg4PIz70c3hi5j0SznW1lmur+ZPopIpUMcqMD/D9/MyOlVxASyF1syHjO3svY1O2hh8oSsXAYeny/zfb5qENzcWm9Uz6wY5FdOQO46VLzgUCoxREwcHJ57j4FTJP0IKulhOzdzIACCWx+/+tCTQq0ZeNkYDn0g8VagW5X0gbRknLeofH2rduqDc5Cp0B2jJGfcUojBFtpXK+XINrdATwPv7VcyTW06xSsGOMfw2yMHvWTxOsn5WiUHgk5z/ALVJZDIpVgTgZC5xz702IOVY4rhZjKq8Agg5Iccg4/aux1b8RvEd/Yx2S+QsscsUi3iKTLuXv7cnnpx06Vw6PkoJY1K5xtxwaM0WKwe+J1CWZbYqykwru2t29ORkdscGkrXRUZOPQz1/x54p1DfG1/PbxPtDQwehRgYyD1GcdK6zwX+Il1e3dlp2qw24Ut5clzyCBjjIPHtk151b29q0rfU3EsUJR2ZxGJMHGFynH83fPzig1kkjnLB1K4wWBPI6d+9Um+y45JJ3Z9MywDGVZXBGcqcgjsR7g+9AzQ57V5V+E2oMfG9nFuJ+ojNuDI55XrjHvxjnpXtNxblTggg/NaxlZ245rIrEDwfFDTxYHSnbw+4oS4i+K0HKIhmiPzQrxZ7U8kiGOlByxewoMJQFDxfFUSJ1HbtTSSPtihJY89qDGcRc8feqimBTFYvV0qieIg9KaMnECC881NoQy5AqZXHatjcBxQSUbMdKokJyRRbhsVSYyTyKQimLJNSZTVoi254rYT4oAFdAAM1EwoRmiTCSelR2N7UE0DtEFHSteWD2ooxMw6GtJE2eFOaBpA5hAGcVHYOwFGyRNjpUVgbP5aBKIKsfPSspn9Mdo9NZQPieYVNRzUB1qaVAiajipoBmoL2qwDNNCbJCrlqsdatSmSXxdKIjHNURdKIi/NQIJhXmj4FOaFgHIppbKD1FM1igi1jOK6HSYi2BtpZZRgin+kERSBsZoOzFEdWNqEX1jiozrtkwBxRcbCRdwGM1RcLzmkdeioECiIAD1FDKMURC2ABQNBEiDbgVSY+elXo3HFSyisqlgC5woJwSfYe5pMppCzUtX0nR03aneLGdu8RKMyOo67R3rzfx540j1x/oNHyLJo9krS8bskHJAPA7c5/SjvxU1rQLiSzSG4N3KA8b+RJt8vDAg8jrnOBwOSewrgdY1c6rdvdSwxRk7YsxqFBVVCr924ySep5rKUjizZW/qgaSRo/4RKBs59PKn9e49qml1EHRp4sxNkMAMHP35oKaKQlmf0bcFVJwzDuQRTfRdH1rUNND2yBNPWTa8szgIpPOSOuPkDArNRs5hWzxyphtxVR0duPgcVjrA+xmhCKFORn+x70Vr2lfRR20y6lY3L3Iy0Vs5YwDJGH44bgZBNLrW2uWd0aTAPAyeCKpqgOi0C2t7gCGG3s5pWAZEmmKSMygt6DjaRx0PXgUqEqyyDzgH35clQF2k9RUYjcW0EkTjcsyhZAcEFQcjB+47VKN0UMECsCCRu/796huxF9vErSIsjbYvMUSPjLBSeSBnGQM8Gt6pBa2mqXtnY6kl3YxuxguShTzB2GOoJ9ulBhiFY8ek8Y6D7j3quS6LwbEOCSd2AOT71UbHZq2kVEbzpcLn08ZOff5qS3rK7guJVPfAzzQltbtcPKiPFHsjMjGSQKTjsvuT2A61IQSW4YsjoUfa4Ixg/NXxEETzKr7VC4PTvtquKV1UkjjJ28Z60PICnrYlT1A9/tU7dGlOU53HGP9aWgLXb0ruXnuSTxUoZEcpDK4hiMg8yRV3MB06d+p4q76CQxkFj9QvVMdR96ENs6xAsAeSOW5/akmrAa6vpNrZI93p2sQX9kJ/IiJTy5Xyu7JjOcAcjOeooDT0icOjWc9zKUPlCEnKN2YgA7gBnj+oq7RwYL23nurP6mKORZDbvwsuGBKnHYgYrvLTx/NBrN/rWm6baadc3TCOMRRoPJgCBGiU4yoIA9QwRjvWkXH2BxlrHPb2xeSJFSQjaHj5faOx9/796qJdy5mMq+Z0HHqz149qP8AEfiG913UJJ724lncLsXgbEXPbA6nAJPc5NIpS5LbM4YjgZxWUtsAiQQLCYt0mSfy5z06VXHCJTyfKUjJZl6n2zUU8vbxuVuhZupq6QBZEdG8xHOTlSCpPf2oaoCEqiCQxKcgDJ8vkc+1RnKNagBV3ryOzYPvRDXSxhgIy4PDEn2PX4rGe0lU8uwbIJ44/XvQgBbZxIW/i4ZRzgcf3plDOIzG7opyc7ZOgYc5I7jIoTyVilBSLh8BCmMN96tZFUyq6sVHDKfzKamSGdZ411jR9e8MT3xtVtNdS4Ry1tEqQOhXDehRhSMA55Jx2rmdf1SG71Oa6s7SO1EioFUOcIQoDbQML1zz81BGQxCIgomOPkGhvpZ/LlkEDGKPaPMU5Cg9OvzVqbapgW6PZLf6lFaTvHAh9cs028Kig5JYqCRn3x3FM7vw1bP4ztdC0i/k1a2u/TbzW8Xrl4J9Kvt5OD1xx0zReh+H5lsbLV21+1sy9z5CN5m0Y29nB4+zBeOhpj4o1/Tzpmk/QafLp3iDR5Fe3v4dRFyJQpOcuTkAHlccde1apJLYUA6X4dtf/S8uoXd21tqFvqS2NxbTW74jB6u0g4BHTb1wDQBsYLwXENnvuZod3lPbxMd+DncwP5U2gkd60ur614gvLuyaZVTVNQ+suIkUiMzHIBwM9ATgV3GieGfDVq8FtqOoLbaaH/8A2hqxuzieREDNbxKOAOcMfUeCvUGlSY6PNty3Mgit7eTEgACKxbcw/Meemevx2zQ0TKqsh4THX2r3D8OW0CeXW49I8JajrkNzqhmshFpq+SkIA2KWkYADOfTkmgvxU0HxTrl5YWs3hzStM815HtYfqle4AO3epcAejc2QvJGetPgq0NxZ5DGrOp8tlCqOnfjvmtJdGJgezDnPWmOu6DqugzrbajA0DOdqjYcP0zhuh7d+9JZU2yFCCrDjnrUOJI2bZLCGZ+SePVjNV3ISRjNBbQwlAuUjJIUgYz6iTyef9qEhkGxS3Y9cd6sSRxcg+ZgnoQeeKlKmI7NPC/iVgt7La3Hmq63S3iuI2JY4fBfAkIOMFTXqWkeNPCE1np9hHq8/1BVLcC6Q+ZuzjLtyPknPcV5PrvjjX9QsLSwlvD9NbQeUg2AGRcY/if5jyecZpDbX+3a8UQaSMDazjOMdB17cEe1NzXo1x5fH0fS89qVcgrgigri29xXm0P4q60dNitoLOyMywiI3Ers7swH/ABDzjPGMHqTTnwX+I9pqU3+H68q29286pDIqhUbd0BHYAjGcnrVqZ2Rzxno6Ka3xxig5LUnOAa6ia0wSGFVfSKx6CrujRwTOSntWHO2g5Lcg8iu2NgGPaqJtIDjjGftRyMniZxpg46VU1vnOQf0rr/8ABGJ7Vs6KB1xTsh4WcU1nk8Kc1H6E/wCU12o0pQ3IHFak09Av5RxRZPgOKNix7Vn0RH8tdZLZIegAP2qkWDZxjIosnxHLyWh/ymoC0b/Ka606cpHPB+1QOm88Yp2HhOVNrgcqf2rf0ileFOa6c6aT7VNNLx1osPCczHaqOq8fNXCwjfouKfjTCCemKtSw29RSspYTnBpi9waibDB6cV07WqgYqp7cHjH70WHhRzv0nxWU+aBV6gVlMXiR88j3qanmojpUlBzUHCWL2qxarXrVqgkU0Qya9auQVSKIj7UxFqDiiIBzzVagYq+JeaB0F2/JFNrQd6V264NN7TqKZrAbWGCM45pxaZBHFLbILsBpzYJn1dRTO+A2tHCpirZfUM0LHy3HSrwCAak3KiOasjFYq881YFwRQNE4wc4rn/xPEM3hG8gzO1xHGtwqxFQQN2MktwOew9RrpoIzIpGG24wdvUf7V45+Leg3Wj3sc7xu1vcPg3ssgaWZ8ZwxHsB7D7nNTLozzyajRxd60e4x2rBwyLu3Y9Lew7nHvVMVqQ//ALqUq69V29R8n3qditzJcn6K2e5YhmBEZYgKMk47EAZ/rR2n6Xq+p3/0NtaTTTSZwASBvA53HpjjuQBWNNnBQBbGEjYTKsaEF88lR36UxmnvY4BujkmtYFWP6gxbxGp/KFOPRnJ4z1NM9G0yJp4bXVry50Rtm2E3IEazLz5io+0qx/y7iQc9RWeILbTYrK8js766ZIboxxrPaAPgD8zSA+WFPQqM9MjrVKDSB6OeabZMZCWILZJPJB7n71ESl5isbKV55Ax+9bWKea0luhAZYYJAjsCPSW6fOOPb71G3gNzC8yFysRTzAsZwoY4/N0Hbr1JxUKDfYiMs4MOTIMofTkdPihxceYrKAu5R+YcZq+cqLqQRGQxAkR+cBnb7kjitXNlJbhXeMgOgbJHBB9j/AFp8aEahAZAJYgvs3Y1TPCEAIXb2JPTNRjeRNpCmQrn7EVeJZpEV0s2Kg8NgkZ9qNgEWlpFBIHmUyuB6s8KM9OvX9KKkn2zM0saqpGCR+XJoTzRE+2W3WRjwwd87TW4Eiy0MjRxv5hyWcgBem04/fNRTfYBEjxTQ+XcxI2/8jY6j4x0/61qKVHjZVBQJ+YhQCv8AvQ7PHFIGYqF2jbtPIb3H/Whr51e4SYOmGJ3HJAPPehRsAoSeZNGiSKBxtwnH61bcTLIw2LH5uSpyB6j/AK1XZtbzssCxhpWzhcYzgE5Bz8VVLdoyKcFZByfY/wDSnwYy7fKu1SuwqeccgfehHdXlP5lY9+x+9DTTs75fIHbHGKlFcyhQHDGNiofbjO0HPGf+lUoCL1V2SYwyHKrkgfmYdMVW0iInpVo84V1L8E9/tzindj9GbcQwHAYYGBhvj9SOtBFoLa+ErReaiemRWAJZWGCOQQGA5zRF7oBha+H5LKad9ZkS3RYd8bhDPG25MqMocDOeMng9RVNhZTPbi4SSGJXBwHfBCDuQeuccYoKWQ2zmwt743Nrt3LsdgnqGcbTjnIGeO1P/AA74r1fQ4LnTtNuLZo7kn1yQIfLO3BZSwO0Y6gdcVUkmyhDdwGO+lJeRVxlnEfQHGMjt1qxbeJtNLBnR0XIjJxu5xuGeTzxxROp3kZT6LTZ7yVLoILl5doM8isxBGM+nkEZp7dXEevyNaaxr7RWOjWIW3tXi8iRm43QxLz6snqT6sZ4oSQjk52u49N+lNz/7VZVmWMMOXZcbhjrgcfFCxyEPvZ25HUe3am0mjTxeGLbWmns2jkneDy1uUMyMBjJj/Nt684pXId/rOUOQvHSlQgmJ2Xgsu7HB7CiPNEjAhWfHUdlNBW5UnZj7E962MxTbAQxPPI4+1Q0AXNJhWjgYiNR6lPLA89c/c80FPGfJRnARTzhen/npRUspwygqOOcDmtiSPKhY12ZHCjg8UW0MDtS6QvtXOQcnvyf+lE2DQABmj3yI4bLEEAA8Lg8GtX8KvCHTKlTjaBwB9qGEM0WBGmeOec/piqTsR6R4j/EK+1rT7S2uoY4Ly0lElvc2QaBkA7BEIXpgZAGO1btPxF1RbuwutSK3i6dNHPb7h/GygI27zyM5Jb3IBrzf/wBxECQu35zy2aKkt5mtLe5NzalZnaIwiTMse3HqdewOeD3pq17HyaOlufFt7rGo3b3tsuq316qRxAQZaHB5SLH5Aw4JUZOT0PNc7r2nXtjeSDUNPNgxcjyd4JQ9dpG4sOMfm5qIgKvgXAiCEKGU4z+1ROnnzC6HcccL0z9qfNewBUZvLwASc4+f2qcAlZtudhPTPXNXW0aLlHJaR+w4IPvkVfieK5aB4kZgvBBzn9alsROC0nl0yZ42iPljeVMnqxnGQP70AVfL+VlUX8xXA/b3pzZOYCWkJOSAuEDBT2FDahbxbGmK+WCwztOSD7c+9SpLpgCsH3tAsTx5ONuNoJ7jmmfh7VZ9H1a21K3CxtCwJygOV7pjoQeanfRaYJLFra7u5nnhzd/WoOJc4wrAksuB+Y469K0uGURFFJQEA7fnPFVLXQ06PpbR9U0vXrRbnTL6C4JiWR41cF4wegYAnB/WjFtHJ6Z+1eAfhtq/+CeIbed9WubOB7iP6hET+E8YPqDd+B+/xX0foeqaXrFmt/pV3Hd2zHAkQHr7H2NClaPSwZeap9gDWjjjaasSzc4wprq7URso3ID+gplbW8D4Plj9qzc6OikcIbNgfyEZoaW2becjgV6dJZW7pjylpHqWkiNWZefiqjkE4nEPbk8Yqia2OMYrr4NLMykqo4rLvRJY03GJhkZGRV8yeJwrWjZx/pUhZN2FdM2nur42dKKh0pmUEjAquYuBx5s2AzisFox4Irq7ixCDBXNUNb7RwtHIfE5lrRh2rPpmPY0+ljUDJWqWKjjbinYcRP8ATHHQioGDBwackB8jGDQlzCw7U4sTQrlRR2oWXgmjpUPtQUy8nNWRIDlOTWVjrzWUGPI+dgKsQVoKKkoxUnltk1GTVqrUEq5OtBJiqTVqdRUo4y3Ss2FWweoqgCYRnAoyJKEg7UfD0AoRSL4Fyaa2YGQKGsoVZDnrR0ELBh2qjaCY2sxwB2p3p3t70os0O0U5sExg0M7saD0AHNWpzVZOcVN5IoIXmnkWONB6nY4A+/8Ab9ag3LlUlgAMmgrzWtFslD3OpW6pu2sVcNtIOCDjJGCR24/Sld1418PxTS2p1AwzoZIwWtXfDjABxjkHP9K8Z1G8e+1V765mjVppjLLcRLtByeSB2z7Y71EppGOTMo9HZeKfxB1C4ugun+ZpRgDrHIsxPm54yRjb06HqK467u5JVla6237SoVElxM2+I+4weo+cg0Deo7OwtxNIocmN5AM8+4HFUrFcbDmDf6juwfb3PtWNt7OOU3Ls6Hwz4nu9F1i0vY4Y5lshIUViV4dcPyO56Z5pwniHXmury/wBEt/8ADbR23GJ5zJ5W5CpZs8kELnOCBweKUeEZ9Ntr+2Q3E9tKZB5t2PWI04OVQj8wPc8V2mp6bHeaDNfRa/pzfTwy4ZJ1VLolSWYQhMxk8DA6nnit4p0LZ0/gnxJoUHhxU13VPDV5FOxJto0A+mAQAKivxtIB6AYP+bOaV+GrDwHrviTxDHZXWo6XAkkd7aGykVIVi2jPmRNw2x8nABPqOK8ztry8k00PDex2lvEp8osqbhIF5UOfUOCTx146UHfXMVxJ515JK13kCYyMQzjp16jjj7ULJXY+Vo6r8VPDc/hq9spHurW6j3eXBdx2qwKSMthoiAz8H85yD0+K421gumikuo2aKCXAYohWOQhs429CB1wR9qfXM3haQTX2ni6XO1I4rm4MvlEEcl8fxOnC4AGT1pZc6hJJDJEkUcYbgooCqB+tZZMm9CZqGzhdC5nLtgsRGgAXPbHv8UXcz217axQm3jjgii8oMFYb/nk43/sPilEPmo5e3y8OCoxhWz74rBa6gqsjIwO0EAOAOnFZXL9A2ukt6lgmkCk4BfA59jzx1peXltg8DSOBuyU3elj7jn+tNrJZ13EFCMjzMtkgiidTWe8hjhu7gOkEXl2u5wqw5OcBR2zziqjOtMVCWGSO4EMMkQVBIWdlG5tp6gDIz9qYeM7Sx03VYbfTtaj1ixaBJY7oJsfBz6GXqpXHQ+1KWt7lZJE8iTcOvGePuKq2SzSiFldpM4UKOf0rRUDO10S18HIk95NeS3lzBuWz0d4HDXkpbC7pUOB1BwvtjvUPC0EthfX73Wk2pkurZ7eATghbbzPzSKp/mA4AbkVdrF5p/lLLb6Jb2k0EaEesb0IA3BioAYHHGRlQe+aWNdySxzzPDONwDj1+pf8Am/Xvmolkf+oHWeKPEenapa2+n3Hh7TLOSNwYZreHYyngYBB55HRgcVzuofRxyW/l2ttAbeMR7hHseTk8sRnc3/N3GBSaEtOsxWF5Ah3+dyCKkIZrghoblPLVM+p8Ekc81D5PtjLXsLO7j8wqbVy3GwZB+CO33oW/tPp1aWEflAX1DDKex+c0XZtOI0MkiYmbaSSNrAdec9fvV5ka1CLuSRCfQSeV+47ik3JCoU7ZlAWSRoZcgnbgr+pFVSxPvePzRuyOh4PzRepxiGRZlH8Jx/E2cDPbiqDJAjhlQLu5OV6j4NaJ+wLLqG4tMaXc2qpKswcHaN3IwRuBwVOAf/NGeHPDWra5qFna2Vrulu/MNsGcIJNh52k9SDgUCZIiNp9SL+UAAf8Afaux0fxZDaaXYpdxjz9BtbgaUyDiSaaQHMnB4Ubj98Vcd9gczdafc2s90t/G8Js5DbzOn8QJLzkM3Izwe9V3MMhkhaB2fzWZU343Bhzg/PQ17H+HPgvRbjwNHd+Idda2uLyY3P001+qQvnAR5I8glvzHkjriuY/E/SvClpAz6BBZQXVpIGu5otUW6Nyrt6SF+Ofkdxg5qpQpaHxo8/u4rVf4loHZFP52TDH3PBwec9Kjc2jbTLhzGMbm25AYjPXtT3W9Du7W30x7maHbfwNcK0ceBHCMAuxXjpnOO46UXpdhpkfhxn1CbTy9/nY9xdN5kG1sAxwJ6ndhn8wA+KlJgcfKJbefZIOTzjOf2NZyy4YbM8jPf4zVyJbsJ5TcJuiYLDblWBmUsckY4GB1ye9VTkyLtKBSvB2j8vxQIrlmKyZhLFgAMA0TDuIYhdpbn5qmOExhygXBHQnrWkk8o/lwwPPzQ1Yg+B2SLAASTGcHvUPNKSgkfnHLAioLLE7ceYjH54q+I8OoPAGMEc/eooCtvIJCGXen9KpNyY2Bjxt24OOo+PmmWiaQ195umwWUdzeSfxIbjzXV0AH5FGdpz80ra0mSJJWjX+IxVcOpPHxnIHz0PzWigIn9STjpyPSdvQ1fBqEpISVNy/5goz+maCUhJyCFHGOKsVkGe2ew5NFJANNT0qwitLW8g1WGSGSJDMpdWlWUg5AUc7QR36Ail9q6S3CrIzx2+zDMibj+2Rn9xW5d08IYBWI4Gev79ulMdM0LUNUSFdIjl1ASOkcnlxOdkjZ9Dds+3vg01sYJHvJ2CQOc7QcnAI/1opZkCPDOpMbcq0nIPz+lRnt0tYLnTZ7eNLu3ud31aFmyAuCmP8ucds8UFEGSdS8WUbggjr74qHHYF82nzSRvLCATHkmIfm2e4XrjufagrS6eJgQxxkDOQf2pxD6HDB3ilOQFRyBID2ByOvtVTaRPcXhWB4wXf0rKwXtwO+fYU4yXQBFuxR2lkQuzYbI6/wBK738LPGd9oMz6Nb2cVyt9eKVLllKEkAkkZyuK5a58MG3je9tr1prb6cPE3lMx84EboPTkB+TzwCBkUtkvZPoYfLjEdxHIS8pO0spHCk+wxn/WpcHFlxk4uz7HgkKNtz044NNrK4wQpNeKfgh4o17V/qLHUY5rm3t04uGdQY/8o29SD78jivWYJQGGP3pSR6mOamrR00coI61jhHGGAIpXb3Ax1opZwRis6NC5I4kyFQAHrTQJ9fYjJ3zwHbjuY+2PsaTeZ81bHL80yZK+jc9lGJCJI9rDqCMGqmgUDC44plDdRTRGC6bgZMUpySh9j7qfbtWhZXDg+Wiy/wD9tgf6UtiUv0RXNmHPTNA3NjtU4FdJLZXCJvlj8kdvNITP6GhprSYxGTaroBzscNj7gGmm0PkmcddW2O1L5Lck11VxAhzxS+a0BPFaqQxD5JHapvbl4+V7U2W0GecVJrYBTjninYHJz2uD8UtuYfX0Jrq7q0LZwppdNp0m/wD4ZNWpomSOZki5/Kayn76ZL/8Al1lVyRl4z5TA71MLVYbJxVqUHiG1HarVX4rFGatVaaAnCSO9XoVPUA1Ui9KvjQngUwJqmDkEUZajmqoosYphaQ5PAoRcUF2IO8cdaaxj1ChbaLbjimUUQ4NM7IR0GWa4ApzZj0UrtV4prbnC4oOqCCV64pb4w0ifXPD09jbTCKVwcZUkPwfT1HX54pmhyaKgXdkKSGxwc4we1Jo1krifPmtKmmyG2lLi6LbLiPzfMQ7AAu08HrSOSZyQqxgiU7FHvntTfxpaanYaxPDqru8qMw858gSLkkN+vX/QVVZ6fq9qLxk01y0UY8wvHuMYJHcZxuB7/vXNxtnlyVMXPc3LIIt7Koxgdv8ArXXaN4B8Ta5bpLotqLwMAmQpRQxzwWIxxxu54zRHgzQbvWtYkuY4r+8nZhEkNlKpdiVycBgAydiMrjoM16REjeG/DU+qaR4Sijt4crPdT3ximt9gXzAXBO1yW9h+9axxoEjySXRNf0CRHtHuYbx2kik+km9alWwy8eoD5OAQRVl9fyxR6fpt/qst7poK3P0h3Q2+0rzhtzEkHIOB1zilGsa1c3+tS38t3PLOc4lJJk6/zMeWxwMn2oaBrzUdQMctw/8AHI82ZweQPcDrU2kJkF1BoxJEZVZG7EZyM8de/HXg1TEGubpWJbY3Vg39MU3t0mtbM2Z1MSW2d0kJA8vrnjIyegod1jknRUk8uPdtVlXPUcfP71nKarQFtpHbwAoEkklf8itgHjpkHpUHswJRPcy5JX8m3oQenyKuv5FtDiGdj/keUgsQe5pVcXHrBLbiVwRk4B7H7Vmk2MYfUC4v9zkSShcLz6AewODWg8hhw4bdnhWAIJz/AGzQEFz5MflSeV6WJVhgnPya19dcTTgp1XvgEH9argKw/MiyFHFuJeWYIuAR35qCTIsobe2xvT6jjHxQ28Snc8QQgkkg5HzgCiYJYHj2upODkpjhvv7U3GgCEVY5AVnYMh3P6c54+OoqG5I5RdbIZSxAywyR9/mhpruNd3lgc5ChHOR9625gkUYuMcZLt7+wx1zUxiI3NdRy6iH7DLFdv5iO1aa+jtbtzsLMMD1nOT1wR7dvagbUh7hIirlC4GFXlgDzg++M0yk0mWSRWgYiJyQgdgGC545PU4qqSGSmv085ZPMVpGO8L5foB9uD0pcsjvKWhUiQsSEQkU9HhxYrVknuImdlMiskoDADoNpAHPXrSCytJ/qjuhnJiYhwowRVfWgL5Bcsd72zgnk8nr747VZ5cszMGJ3t128gj/v2qcz7FLHchA6OTkj/AHoWG4gNsuJZBcBeATwT7YFIAyIi2ykhX0nJGMkj3HxVk8MUqyGEBdyjAY8f9DVEF+pO+RAzfkwFGR8g1uxm3XUcRO7ccMJOhPvUtMZTbR3Usv0627PhjGcdM4z+bpnAqtWY3K8+YowcY7/NO00p4LSUf4mULyhhBGxaNh7sAfzDtxUVube3nDeVFub0kKgGPse/6803NehBfhPULS21Hzb3wxperwhShinUkZPQ8HsT88V0vjjXPC2pWEltYeGrKwuFgZLc2doLdl5G5pV3NuzyBg4GM1zDSym3dgRJGyghVxkEnAI+KM0+5eKQ3NnO5uljdVdRlkDAqy98ggkfrQszXYxJrWozXNnYBbeKB4LP6NmiQKbhVYne2OpIKgnvgV6JrOueDvD3hOPR/B2mIdenhVL/AFiaHLxjaPMETMSQScrkAY7V52IYbK6ilkWJ0UblB9S88gf+ajK5ncqh2sGztB6H7Yp+X8A3ZaYkiM0kvlxjgtG2SeaO+hgGlSRWjH1vvDyxhiMryCw6DvyOvNLJoLgDaEZMMS2/hcY4xWxczC1EdukaqrAyYbDN8/pWf3e0wLptMVkieO8TeyjeqphB9j/epRaVaPB/HleKQvzLjHoAxgL3553fpVccjbx6X8xE3o5OftkdMGslmuTOFgjMbNhpVHO0j+w4pcpi0AX9o9s4Dljk7QWXHPtWrNiQQykknAbpj4p/5csqIl3aRBJBhJAuN+e4+fmll3pcyXhSE+YoPA3YYfB/WrjlXTCg3SNVstJF19bosGrJcQGJEnleMQvnKuNhGSPY8Ummm3osXl24CjClYxuAyT169zXR6T4RudUS3H+KWNvczu0Ztp5SjR4HDlj6SpPGRyKt1+3tYZF0+1trKxjt1ljmbCTOzHAk/ifzqCPQeoya2TqPYqOPdiG4ArAuF80k+2RTxNOtIIkneRZwSRnd6Rxxnjt81dJBYTzcwKiOzFmTgjJHccY9vaoeVBQihnwxJbaqnkf99qYafql3ZSPFZ3t5Z2twVFx9NIQSo/UZIB4pppr2OnXUjmztbl5ZgyF0yYSDkbCePg5BGOMUPq1lNqGrT3tslrbefIH8pEEUak+w6Adf61SyRCmFa0+gyXqx+H5r1rQQJDPeamQrb92N6hc+WADyCTxk0V4sstD+ha40/Vri5EREam4tljjmIAVjC8ZKsATnkA4568UL4Ws7ka6tvcaKdaRpWhaO0kzJhfzeU3QEjoxB4zjmu98W3ejat4ah0bQvDt1DewurFRpRM8TcelpRwFwOepIrVR5Kxnlks3lWiqCjFMEqODyOP1oy0vXhlivAZUmhIaORWw0bjkEHtgirNY0qSCW4mtt5iDZRXdA/cEFVJ2nPY9qjb6HqcU7mSAzRiIzSy2zCdUQY3N6T/Llc5wRmsXER1E2vLrTXMqpZWWpp5dz9VJI0cjTIDmXcoIZiOCuBzzS/8O9DsfE2uHTNa1EWMckZeGSYqJHcHCgZI3ck5XjPvxVK6Bdy6NdalbWE1wlqQks1vMrKWbGH2fmUc4x0z7UmVpYb4W7JPbyq25d3pZD/AJsY4/pVSbrZS7Pe/AvgnUPDPjzUru0lQ6ZtSMGdSXdGXO1COm04GT1FelRSYbrSLw01/wD+nLAai7tc+UN7NIrlvYll4JI9v3NMUkxzUvZ6mKKjHQ3hn4xmjIrj3NIklxjmiEmqGjWx4s4I61Ys2O9J45/T1q5ZqVCHCTfJqSyhTwFz1zilaTGrBLxSE0HSy7mLsxZj/MetX6XMF1K3JzguFbb12nII+evSlRk+aM0Vi2q2o6/xAQOxI5A/cCqRDWii9jMEzwtkmNyvIxnBxQEjURdSvIxkcksx3MT796DkamXHoix4qBkK9Ki7VS7U+I7LTOOhAqBnTPINDluarZuaOIrCHkjasoFmrKKFyPjtetWr1qCCrlA3VufPlsY4q5eagmasUYNMC1Owou3UbhQiKc5NHQDleKY0HwxBwKY2cQVqEtRjFMoM8YqjpgkGIBxgUUgoaEZo2CNieBR0dMUFWw4phCSBQ1tCx/lP7UZF5a3H0xlQT7d4iJAbbnGce2eKTN1oJhFUa54h0bw/HG+p3QUu6J5aYLqGOAxXOdvBOfijHMdmpkvJI7dF/mlYKP615l+Ksem2V/8AUW98b+5uyGfzWVvKhJ/LG5BPXJznABxUuVBlycI2gT8SPE+natq1re6fCt1Z2jBvMxsdnHTBIPo6HkcnsKT3njCKTTp1svD+m6ZcOwK3NtI6yKMjcME4bdt5zwOcDmki6ZqTyPm0ZFGGLTgxgA4weeowQc/b3p3p+njTra8ur2O6WeJmjitfJCyJLgEO29SGXazekerjNYpy7OCUnJ2AtBfXU/1NxcXfnPhmmMvrfuWzkU3sNQtLTw7Npt/aC9nklEvmPfzReWcj07M7GP8ANuIPSlEd82cuwC7f+Hg4Oe4PYUG16zSIsvlOoGFZh/L/AL1hGciQySSC2thBHbIVkzx/Nz/px07VV5s+0FMBI29afl29P96XzS+ZcBcgE+lcKQMZ60ymvxHA4VmdiAN35unNJpjAriZlWRJtysCcDjDURYzKsJZrUurcBieFP96VTvJO4Jy5J4Unp80Wk8eI4J2kh5AMg6L78Cr4gW3F1HN62SNZFGDx6f0FQa1XzdzLDiUZyrZz9vaqbS3uNRvlgt8PIzbBu4UDpuz7dOtPbjRLuxmjgmvIEQSiKSZQ5S3bsWO3Izg4q+DrQuxNdbFWWPYjzcksykSLxxg+1V6dE09uTG6wuy7SxBww9h2zTPWNKuNOvRFO/nh4vMjMZXeVIypwCeO+ATwO1U6Rbxz6S3lXbR7UDrHPFkSS87grL+UY2kE9/anToCp4jbyOs6ecJQuwRMN6t9gMHPTI+1A3EezbuDRSDIwchs/99jTmzW/vo2uI9GmuYLRlmnELMrKoPIJHKg+46ZFU+Jm0jVPEay6JHfQW1wqO6XcnmyRv/OCwxuHTB/en6tjF+k2sszInkHY5yZnj4wD2Pen0dnDZTGYXUUgZiysFJZVxxgduuf0rTTgoLfcqRgEhdp/hj9c45+aWSO87gCDdKAFJJO3HXJ+PisG5SYqHLSzyyBI5N+R/DckKZFzztXt/Sl9zKYru4h87IbK4/Mqt14PY1bYWZkQPHKA5QApEmdmeuGz+tUy6YCqlknnklPpYoFVcdPvmpSSYyVqz+Q7PHJIAyg+YoO0noffBomS4jSPK3CtFI5Db2z35Hx+vIoa41DVLNTIm63dWAMqLg/YEdqHbUhdyxLKjBmZmleJuXBxxg8Zz3o46sVjC7Gnz2skVw4RYmBjKS5OD/wB96EuLHTrW1ePyy0wIYhxn0++4dBz+tFCK3QJm2kjEuRHkLu4756EfFVS2+oZaIQBkIO1hgqOOcAZNC6GLdRsHsUElq6XFrK21ZPZsDKn5GR9xRUFpPphMl7FHDK6BkVyNygjIPHTg9DzRNhFLIGH0p2TcSRlsD09GB7YqjV7tSYwtjbRADhki2bjwBlh+bgfvmtlNSVCZCG5FyhJ/gAHLMSST846UPOsZCkPnaCyED8x+QKpaRrhUiQYYcY61jR5GGVs4xvXoaFFIQTZXrrufYC4UllyQCPbipxXUb3SxwJwzDaq/mzzwPigrRQSFLmNgRt57d/1roop7aKCJYLUqGzmXGWXJ657iplSGgaQ+SHN3C8U+3hnXBPbH3Ao1J7RoYZ2tRE7cLKrHcz56kUMLrzjKZIDIydA4yNw747cUDLepuURucH86/mIIPHPt71ko2MZXd1FPKgnkmuJolwWYfkweOpwf7UBc6ZdrczXEEEUkY/MzOqAk/wCUE8n7VdJb3YxEQkhxn0E/lPcr1o2zglt5XjJSVCmAdo9vY84pxfAKFEtreNam7dkjYlnw74dgB0AAx7cHFURMrQF5JJAADllXPHt8V0t08XlukMxgLjcUMY2bvcc9e2TSrVYba6mM8SI8js3meSNu0YG07Rxjhs4z1FaKUZCopiv1FoygvsDKgUgMAPfHY/IphbXbCBElSXaTy7gHAPzSO4tLm3iLPC2xwMnacHjsavtLx4oQksvp52sDyufn2qZY0+hjeI3KyM8UCSSR/nj3ZLD3Hvx3FC3F6N+6XEAdQ42sGG4cY+9Yt7CbwvGwKOmGABAGO4+eBV9ymm31pmVPVF+Vh6Tk++Kin0wKraNLq3HkgTowG6InbgjuD3NVxTeVcSwzrPDG3JiVSSeODjt0quzlW1c7YkG/PpZ8jp0Az2otNRnL2+Cu5U2lXwc89uarcQBJFjMTsJW8hmwhY7ufbHarYcoot/O9IACqQefgH79qu1CF5Y45bdIPqFPpHQsPtwKWrfSG3kgmKb1f8xJDDtn/AK0drQHZ+G/FF5oFpcf4dpWni9EbqlxPaZkXdjOTnD4xwCMUx1/8UvF8tlLYW1xFaWsu13+jiKmMbNpQZ6A9e/PxxXGGRDKB9aPLdCoD9AQOCR3+9V28hQgBRLzhmViw4qo5JLQmCfWTTXbTnc8z8s7NuZyepJPU4p94b1y70SSd4rO1uFuoWgniuYt6tG3GPcfcd8Un1C1aZxcRSRHksVAA44x0696peRWjLO24oCEwT098fvV23sD1DRPxQuNNc2kOgaWmnmFInt03DdgYzu6s3tuyB2q/WPGngm91O1vr7wrdNetKLi6eKfGZAoXcD1Y4x3FeSWksZcSNMwbuoOR7ce9GsstxE0skbuUGcK/qB+aPJJdlKbR9V6Bqljr+iwalphIt3BCqyhWG3g+nsM1e+5RnBxXzF4V8U32gahHd6Yzo2fUHGVdSQWVvgkdq7PTfxQ1OPxB/ieqxRS2M8awyQRSkIhBJDqDna3PI74qlKzrx/JXTPaRJ81Ys3ya53w74l0fxEkp0q5LSRswMUmA+1TjftBztPbNNlYggY5qqR1RkpK0Mo5vmr1mz3pUknGRVqS/NS0UNknPvVyznFKUl+auE3FTTFYyE2auguWimjljJDowZSOoIOaVpLViy0JCOl1GMaqt1qllDsVDunhXqnH5h7j+1c/I3tTPwxdRxazAJ5AsEuYpQehVhtxxz7fahNSEttcS2soG6FyhDAEjHb3qkiE6dC93ql2ogmOQ4KiNscHJxn2OaCkbBI7jqPaqLTNO9UvJWpG5NUu1FCZtnrKpZqykSfJwU9atRTnOKkgBwKJiRPetkeERRTV6Rmr4olIGOtHW9oW7cUy4xsEiiJoyGBuP9qZ2enM+MJTOHSHyBtpmscTFlrEeM02s4dw6UbBpDgcrTOy0tlbpRdHTDEwC2s2LAbTWtY1bSdAeKLUpXSWVC6Ii7jge+Ome1dVZ2QLqvUkgY715h+MWs6bdzwabb2aPPb5aSdkZWUZxjBA7jPUgjpUylo2muESi+/EG482/gikMFrIW+lcRDzYyF4HyM8muQilvdQuPrLm+kkZlLsxcgnJzgZOeT2qi5trj6j6ZZ7YBBnzEmDDkAnnJ/88dqFvbm6mlC3EkjqFBO4glRjvjpWDcmcbm2x1qV9dXMcKajezFEOIUJ3BePc8noP2pbBDLNDIYY2ly+Ew/5vfP2GaFV5CsnnMVJII43A496npr3TPKsMM0qBCzmNC20ZHJA7fNSotk2zoNE1b/A7edHsba9NwvlyNcRkyQoeCIiTgFhjIII4FDTTNqWtS6xcyXPl79ymaTfI2eu5hjJ9yABx0p34KtNMtbqz1nWkbULMXDQ3FnEwWeElRsdlPBXJPXjjmtfinZTWXia9SOwisIX9UMcCqYwMcDKEj8uOnzn5qdqAI5XUL6SYSRqU8vBbjnHPTHalsbyFkZkLKBhcjirH3udjttkb/L3HzV7RqABKWxkBCDgGoSoDVpDHcI8kr7WQYXY+D+tES28Y2MDlAoBJYAEZHXv3orQNJm1QRwWjRpNLIFSJpQguBnnljhcYHU87uOldTqrReFrJdH1GPVESaQziy+mVIipBGRKSzNnjlcAYzV8L2BxEiW8C7Q25n5ZO49sVV5byS7stG7cbTk5+KJs1t47d438tcHCN5Y3EY6Z64rFxJIWlBIPTaec/aosYRod9Nonm3EPll5IHt5VaFX9L4zwcjPA+1CXN1eXcyeZcStIPyAsTge3wM1WPKAZpA2cnI/Kc/apqsSoQHEbEbozjnFNNiJDbbSLO3lmI5L7V4B/WikumZ4kX6eOJ0KjYvAA5xjtSy7uCwcOVcscgkZP/f3o/RrUQsklwgf1Z5fAC+2PfpSkqVtgP9KluNKke9GqXUTkZ2wsydeC2B1znHPagmlW2bEAijSQ7ZWI5Oe5x0HeqdRu3dWVHa4ZGwvUBgP7YpXK8626LF5vHq9TY/QVlFN9jD5ppruSSKzk85QCJd3K/cf7UFcJJFePBHtwo2zv2J9/jtTBTI9qqqixxIpYSKCo+f36VRHKJVaZRscEAF24Jx37iri66AtQxFtlspg2w/xZIpS2Oepz/WhLgMsDRu+FUl0l84lWz7L0NGsPpWjkuysNpcJ5iCFw3mAHBB9u/DD+9VzwS29pPPH9LPFFLhyjKcAng46EEe3SjixMAvnk2xefncQNhAyHHuT3qjT5ZYbkbEJySFA/tz2q7Ub1ZbWKHfJu37mGRtA7Y4omyightWuJcEtymT6sd6taWxFglmV/JkSB1dgQElICn3GP9qKlu7sP5EAIkb+SNQ2cdGHseP70AbyyDn+GyxtxtwNw+c1CC+a3juLcCQJIVwx/Mntz1/TvUcbKHG5WMbNG9rOsm8yiQ7XPcY/UVvU7VYo1k85PUuQBwEfPqyT75496UhoxiKQlVKBlAIOGI7j7VOGdliSBpS/IcBCCBjt96hxaAM057dLdJFtbZwh2u+eoPv8ANAX8M8MktqkskqA+lMZIx8isuprgHBb1Z4cDG5R8e9MNP1dXuXle2tYohGE24wdvvu7tnuacU47ARwq1pLFdSW4ljRiCSCRu54OD14/pTKSe4mt/PWJ9g5kcpwTyOccDPbp0qq7N1MLhBKWjlIHXjA5X9a7g+NIv/Q8Wgf4ELnWAi2yyhco6BcI+0fnfkjByB1rZcZAcQ0/mXLMXCsF2hR+VT8+9RW0dpF8pFVmCmTPpwef0APzWWlpnXYbS1WPU5pjGFWMHDO2CyDPU9VzjrXceMtHbTLK/lks9W0uyhkEemxXLJN58jgFwzfC8jbnpyaFjfoDjWuL1m2xTZZWyePUg+5ra3BlKoso3yY5Tj9Of7URqQNpDBDLGhMsayRuHDGQEdyDx7dsYoK+Z7dkiuYHt3bLhWjK5U9G+xHf4qOLAIeHdkzs7yAHb0O4f6mp/xRJGpUzsCFPlLg5Hb+1UwzyTq98ltbRJG6wkqcHkEgc9emc1rz4FjkuhMrOsgxydz8n1A9uMUuLAYtCxV0ga4aBgPMiJDeonnA+KW6jp1orRi0lmbzTgZwdp/wAp9que5jnkwszfxGC5Zudw56Dt81IrDL6yPXE4DsRlW9/nPzUbiwFrW15aF2QSZibBZVz+uKuWVvJnWSOZQyk7enq98dDRgnLyuLWTy2j/AJpT1H2okyJf2JZlO+PkHn8326fPvVc/0VHPARPl2ZiDwC39qmI5liBKbYt2BngA4zjPvW50kVma5ZFbkDHRhjOc1XHeXHkJbFMqGLdc5P8AtWtasBtZTSLGEmdxGhGPMbBUf3omTUGhkE0KpJFtIdtg4PsfcUs+ruYWyHWKTaAS43A4qZv3aNowVQyDEjBRx/5rLg2wGUa2d9F5u2JCw2udowP+Yj/al/l3NtOJJLcCOMZ9DYUr2Jx06VRp4ZSWVCOOVL7f1FO7ZVaAife6MPQyrvA981LuIMQNNlm8osuTuUbc4z89xU1dY2UyDgHLbVxz81rVd9vKTKg8uRCEDqdykdcH4Pet2mm3M0cjOwg2hTtc9z2I6/Oa3VNWILdbZ4S6SQ7wQwDR9R7ZFSiuIo5vJIULIAcpyM0M1g4w0DF8HbtIwwPv9q3Iskezz02YHqY/yj34qKTAPglSK5lE8MEq8hVYkID2YY5Bqia2jMW8l1TzA2UYsCenINU218kbMzxpIu3Cu68nHTiqxcQee0ibTxkYyNxPWqUXYzsvw38Sv4c8Qid1kntnj8qZA4Xbk8SbT1wMkgY7V7NL4v8ADnlPPFfRy26TJD5ysqgOwzkqxDBQOS2MDNfOZmhbyyAuWAwq9R/tUpZxNHvY7hn0nHLHpQpOBrjyuCpHtMH4n6FLr0tlMFtbONWIvGYlWxjA24yM8/HArsNN1C21GxivrGbzreZQyN+Uke+Dzjivl7zplhES+WVaTJULg59s9f2/avQPwYv7PTtXmivru7ge5QJCksJWOTpt9QbAPPtirUrNsXyJXUj25JPmrRJkUCGqav8ANUdlhyy4qxZaA3jNSElJkpj3RruO21O2nlI2xzo7cZwARR/iGF4tUuCwBSWRpInBysiE5BB7/wDYrl0lIwQ3NN7DW7iG0S1fy57ZST5Eybl5689R+hoJfegaXPcVXO7yeqQ7tq4BGAT9/enmkpperPFYNayQXUmdkkcxIZ+SEII4BHGeeaWyzWkb/wD8OygyGWSctn7EYwc96Y1IUOaHdqZ3ltA9gt5aNOVTAuUkAJjJ/KQR1U9M44/WlMw2k5GMcdapIdkGasqtzWVVIR8xKrbulXoDnFEm22t0omC3AI4pniJELcNxxTmyJAHHepWNiJXVBxmm9ppx/wAp4NM3hBsusJBtA2810NkQ6DPB+1K7S0KsPSad2kWMHFI7caoIhUY5FFwjkcVXDGcdKLijIxSOiMWWGCO4gkt5R6JUKMPcEYrxr8UL2LStctbaKaWe4sAyywkBrfaQNhVQTgEY3KT1HQV6v4rudQ0/wxfXumrbm4hiL/xt2Ao69OSfb5r5zumurphLNHM80mN5OWdsD9SR+nFRJ+jn+VK1VA6yx7mh2wKJCC7CMFh/9T7fHf3rsYNV0W50m20K0SewikLm5luWHkbyAAwVVZ9ox+QMcGkE3hXW7e2W7l0e/jtpVDRuyHpnByf0zz256Vf4entNOZHe3upJd+WIuGjZRjoMDjB5+cY6Gs+XHs4xXKkcRldma42ybFzDsVh0B55A5BAx/tXU6HLoWmaol7faTeXEEttGjQLfNFIZAfV6kx6SOdp7GqJrwyI0T3XnGZwzeZjG4flOccHHtSC7eVXMbT7owRtcHj+v+lZ+Rt6A6eXxLc2s95Bpl7qFrb3mVmRZ8pIpAGxhk54AGTzx1rn5o4vLMaSuAx5AYYYnoMnn45pZ53D4RmB5Ue2DxUfNkBaUygE84HvQ02KztbbwK+q2ct7oeoRXRiRHnR4WiWJ2B2w+YxG+TqcKpB55FJo7FbKCaDUYAbksQDwWiUYy3Dd89COlL7DWtSsw30t28QkUpKFcgMpGCDg+1DJHJNIdkZBY5Cj+b/etG00PQZdMkVvHE0cMkUeSHRAHP/2bqQOMe3PvVHnyuS5O5VcHcxznHQfpRcVjchEjkVLaXfsVZD+bIzlmBwAPc0E8UgkaRk8yFJAsgDYXPtkcZ70t0Jhe1LjbeNG2A2xl4O4kZ+/StafZWqSCW8eUxAsDFbyqssZA9L8ggjPtjPxWtHNlZ30L6nZrqFkcebGspjl2g/ysPysf169Khqzw3U9xPpmmNa2oG5Q7b2VcgZJwAP0+1CjS0Mut5vqHnSK5V2UlwZUw02Tk4J4z1OCf60PqlwlykJBiMjelxDB5ZYdmPYseeevvVaQMLbcNu526Hv8A9+1VmIiUrBtychmzx88GndCLtPsTPdyQtsi8oEszsAV5x78/bvXSF7O1iuIJ7uyLxRjMEZDiQEEMQ6+lWAGfvXPeG3k0zVlvJtJ03VreMEPBeruhYH3wQR+4pn/ieniK5F3oVlLdshjt5YnaFYR/KQiAZYe5znvQ1GQym9VI084SRxxTqHj8ohwoI6Z7Hjn9Khc26yxzuqeUkabmYygntggE5PXoKB0+1nuZ47O1ie6lfgIBnJ7/APmn1x4QuPpMrqMF1qQwx0+KGQvtx+YErtOMckcADOahY22Alj1Y/Si1MG5RxnJ3H9fbPNBGWaSX1MnLckjgn5/3pvd2N3oNzbXF1p8UokTcEnVZE9mBAPDZ6A84OaseO2knWaOwUQHawtZpshz3VXUbhnnH26mrUBM5+VWyxZcEHsOKll2Ta54xgmmOp2U9t5jMNkfm+UYpH/iRNydrA8ngYyBigLiOSEbMF8DduXkEf7UNUBTIqlQBnGetbg8yVgoAxEM4/wBakg3o+FPHcLWoRJbgNtcFgRnB6UaYgq4WMW0aJH5r7ixkLZyDjjHarbK6Zf8A2wvmst8RgYhQQwJzhzken55IxXZeHvw6vdT0SLV4by081ijpZCVSyx543c5U9SR7Zqjxn4OHh67t01G8tQ08RmBzhi/BMbheg5wr45zVqLqx0cfHshuJ08yN2WQqXU5U/IPXBp1pehyXOjz6q09pBFBC8jLJOqk7OoAJyx5HpHJyKTX1hJHOTbCSWDI52nIOMnP25FPtDtrFvC2oSXPnR6jGGNooXiVXUKVPtjO755FR9W9jKtF0mfV4blotL1O4MbL5bW211Q4y27cRk46c/ekuq6de6beyWd1DNE6+vy5k2ttPQ4/2r1f8AJo47HXIbqRI7SMRXDNLIFVTyM5J+3IrlfxQ8Ww6/wCIIzYR5tLAFIZSMNMc8sf+X2FaOMVHQHNWMjQWcsbTK6OVYhs+kin3hnUrjQr6HXvoobp7cFLfzX3AFweg98Zx7E0nsWgjRiVRyVyQDkgnsSaFF/LZ3MvkbGjkBWSNvUrL7fvXPDchDPTdRt9C8bR6np1v50NrdGS3ilOCRj0qSO4zj9KZa1rd/rniI3+os2rXRjMkdrbhmgtmx+XbjkKAM469zXLkFkSUAE7ef9K7Hw343n0DR4rTw5o8FvqMq/8Aur2YmaSZuRhVxgLg9Dn7VvF37HbBr3SrufWLr/1Nqlno9xGi3CloSyShgCEjEYK5x0H3rm7qYvP5jmScqCm6ViSwB44PI47V1T+HvFPiGxv9f1WSeNLOBpDJc5DtjoqLgYAz1wAKA/Di20268XWSa19OLPczytM+1eFJGTx3pNOw7L/Bdz4c0O5dvE+mX95OsiPFAjJ5QGMncCcsfbjA9jnhr4z1Xwlr1209oy6fb3CZMKWxRre4Kn+IOxQkKrAc9GxXoF6fwuSyaKNtGZ5AImNvC07RJkkldoOD1569O1cxdaf+E7vMDeXcEYYx5ihn3KABhxlcYPcH3rTi1oqjyi3TzZd+309MZwevQe1GKbaNlkijuXVc5R5MH9CKu0S3tbq5mhu9Rt7C2Mbv58iFs7eiqo5y3ah2bZcxpG9rOuxWAUNhGxnHPcd+3yaxaJIma32q/mbH9WVALMPuB1z2ovRLuL6iVrpryJXUiPyo1JZu27Pb7c8UMY7hp/qB5cb7skYAJPvWTvIpOXyWbd0/t7VNoB4dL1q+0C5uI03WKRm/eNSAdn5SxOeoweOo/WlUHkGEqkSk56sAP0quS5vnga3F7OkEmS67z6s43fodoyPgUNDDb/kZ5JSem7gZxVyaa0Ky8wwzq8gYBFO1mc4AHwO9UQgqzKpWRQdqtjrR9hp9jJNbK8Unku6LO4cRhcnkBjwOO5q7WrXTrWRRpcd4yjd5nmSq4YZwvKjGffHXjFTerAV5iCOd7RyRkce2eoAq2SaWJCJpgykg5XqCelT22spVpF8ogYPB5PuahcWXm5QSHjnIPA/SlyXsRdHOt6i2d5IWCkMdxPDD2x70frVttZLq2utxlQHlid5H+UnnIxjmlVrD5M4fadyHox/NVmrOZUS4VpWbAyWOCD/rU66Q0GW6StC/8XcSwKSOox9jjkVd5Au1K3SmGVVKtjoD7/altsDbiVZZHQsPUu7JORx/2KtW5LxxyIHZtoPkMxGB96iUWhg1/aNaSLbMySpsDb1brk9Mdav07SZp7U3NtEjNFKpaV3wiZPpGCOcsMffA96dzXdtFblbm1tDHNEUbcoMkZ6hoyOVIPscHuDVFrJpjaULK4ENvJPMFS/F24WIbiSZIVBDqTg7gARW+J3Eli60tb6V5yyx70clk4ByeTwOlVulzaSCKQtG3XcfykdQQf2q6a6S3vZIXuonKHAnibejkE8ggdCMfNF3SJJYsUh2OTvh3OO/UAexrNyaexhy6XZHUtHmI/wAPFzbxzxtcS71nfcQXJQHyxkHr0xz1r1ubwNpc3+FXO8230zec0NrKTC5PIK84Uk4yV4OOABXkfgaW3/8AVOmSXjhE+oUySmIuUx0yucbckZPbr8V9DXZIcqeMdF9hXRGmjpwQT7NGQFjith6G3c9a2HFXR0hQepLJQgcVIMKTQBYlz3qxJcUGhFSLUKIDvQ79rLVLW7Hq8iZZNoOM4PSnGu6dCxmvdOkNxb+l3TaRLCJAWG4dwM43DjtXIxt6v+uK6q+vpbTxPJLHKYzG6xLtP/xgAAH3BX365orYn3aEdrdy2N350ePylGRs7XU8FT8GoyTadPKUktPo0bO14WZ/LPyGPI+OD7UX4ltkh1W9hSFYvIuGQKqkDZk44+KQyMc/pTK1VhUthCpJXV9PYZwMuwJ+cFeP15rKWPLhueeMCsp0K2eFLCzt0ogRkY45FddFoUW0cVNtCTqAaZw/48hBYZGCDzXVaRskTDce1UW+jKvODTexsRGBgEUG2LG49hUEC7egoyOFRjitQpRkUZI45+e1TZ2JJEY4SeAPmr1RUjZ5GWNFGWZzgL9ya4v8VPET6HpSWaadLMb0+V5rHYinGQVYEEsOpHSvLtR8XapdQPY3Ot3c1s8eyUOwwcY/pxWc8laMsnyFB0ex+MPFmh6Vod1/7q1vZ5I2jS3HrUsVBAcdQpBHPevIj431KC7mudOtrHT0l8sSxR26kZRsqQcZXnGSMZxSUXZkjNjGFaAP5pbyAXPbOfzEYOQM4qya2ls3e0nhgY4VywKs+GX05PJHGDjPFZc29nHkyubOv8X+Mb7WdAsIYdSN1Jco76qASu6TcdivwFOF6Y4wea5Ca5w4KgxZOAQ+VT2H7UKdxi8tkEqJ0xxuP3PtQU0ZwioDtc7mDHJX71D+72Zh0DoQIfLUvuYg9COOvPaoTQSsZJo2XyhjIU9PjntW44ljYswMh4GTyQPbNC3F1MmApGGOAhQZFKq6AnNA8hVDG0RwAC3AYfNQawhiTzGkmYY5IXGPtnnHzRUBY/Tz+UbmQgkoyEqPjFbngkhtZWmESbTgKFJOc+3YYNPluhUL5ba2EhUTMEAznAP9ast5RC5UrHKXIB39sdCMYoeSbIWNQZFxnH+1XGJH/wDcpvaKMAuGO0qT2Hf9cVa7A7q58dedpq6T4e8PWlkzpse49PmySHGWGMKCeeOuGNJr/TvEl7ZJM+jbIUUiKSKIqCiEhuRw2053E5II60z8ICPUrUu2iafNBYemYTagsICMcgkP16cHPftU7/V7/Wr7UGgMtpppCxyL5v8ADA6pvdTtAJA9Q6jk5xWvH2M4sW9xDcRRTQOzH1KnJ3g9MY6j7UbFpGpy2D3dvp07W0P5mIyBk+3X2z+lWrcGyvBGt3YQmNg5kg2zqOSM5H5mA5GMe9dJqniu0ub1L63uruUkJBPBCrgPEo/OwYnLFhnBzjuTSSXsKOKhD2s3lXnmoA+1wgAYe4w3Gfg/FPprDwrLo81zpviC/ivolLrZX1mFWQf5VdCRnvTKfxJYubeO78MT3qwR7PLu2EcQBJOAEUHHPcnP9h7bwh4n167M2m+Gf8KtwejlokH6yHJH2p8daHRySzyRRui55OGz3/WtW2JnYz3AhBUjcyls+3Tn9a6fVvBfiyyHkXHh6WVUUkvaoJAR1JLJyR965aRCVVlIKnoRUcWuxDW6uoX1Y6lplnd6fbRTJtEUhZo2xyFkwOThsZ7e9er3fhfU9Thg1+x1xdRiuUH0qzyTF48rziRG4YYx0NeM22q3dvpl3pSyf+1vHR5YyM5ZDlWHsRyPsTXT+A/Fd54WukuFkNxYuD9TaK+N/wDzLkYVs1akkNNI6nxGfF2rWEeiXPhuKO0mdVjuI4E81pMHgspUZ4OSR96T+DrO10jWpvDvizQ5YnnjcRSJIsc27gjy2chf5Tg+5I713UH4teFntvNkh1WKTH/C8kP/APpA4/elvirxR+Hvi/TljvZ9Qs76FSbS5ezZvLYkcNg8rwMj9uap13ZUuNWmLdc8Q+D9WIhsdJXSI51SC8ne0jJ8kMC7Iq9HyByemMZrhZ7LThcTTxG4eB5D5UkhzgZIG4Dvx9qtEjTefcMQ7tIXOHLZ68gnk5P60L9YDI4nKqr8EJGwJ9s/rmuWc3JkPZNZnkc+UrMsbDO0cHsBx1qxPXuZjsXGHA5Vc/5u/wC1Am7MMgaExpcREeSQuT1+avsi8u7Dp5vqdmkYAk91weKhxdCoOsxsd5FEjXZULZvb3HlMkgI5zg7hjPHHXOaCtruaeW5vL7UHmmQDLzbpHc5xhTjqMfbAqs6pNGY4fJUNHyAq5B+360Q2rTvbXNlDcGG3u2Rrm2VyBIyHK8HoR2I55q4yaVMZbK7y2yTRvGu0bWOcsw3AD09e+M98+1aYSR20d0G8uOckFQ4AyOrccipPeboIbaX0W0CuIEES713AbjvA3HJHfp2xUBE7IZpIC9uq4QqeDjopFJpegNIHnsXheVmt3baSrEhscjd2/cVPwx4fh1TVha3mrWthZBC0s799v8oz/Mc/aq5EFuTHMY3TgMsTdP06VsoDNJGiPK5UbQcDj2Pb9TTjNxA6b8Y/C2neG7LR5NKG22ZWgcnlmYesMT7nJ/pXm6Absk8nIHxXTa/qGo3Xh+DTHG6CK4afITLKxXadx7jgVzaqS5GeB0rbmpbQvYwsrS4u3ZLWFpGjj3OegVR1YnsKdaDqep+CvE5uI2R54D5c8YYMkyHnAPz2Ionwbot/qmmy29nYR3L3M2xZC4BQrjPpz6hg9+OaV+MtPfRNQjsnVVnRTvkAIEinGGwfkEcU+NK0P2ejeNPxP0m90jVtL06zuW+rg8qG5LAKS2N2QeRjoP1rzHTXuLW6t7iO3imZJAyRyIHRiOgK9/tQcAjkjkllX1cEYPUd+Ke+CjpQ122bXkZdMYlZCC3twSF5xnFTObloYfe+OvE88yq+oRWpUhvJtIEiTg5BKqOT/sKC1Xxl4p1TTf8ACLrWLqe2LM8qBdpkJ5Jcjls/JrsfF/jrStIcaZ4HtNOhVBiS+jtlIJ7CPI5/+xoTwP4Wur6/W/1/TNTu5rsLPEoYBWznc8rkghhgEL15Wqaf6Kjz/wCmkYtLMwwmAyHtj47UylYLbxhEQhFx/Dbn9e/xXZfiZ4a0/RNJ/wAX0+TdLNcFHhabc208hzk53FgQeMAnjpmuCvGT6x4LKR51dlRHYbN2QOMfBJ+9ZZISToKJfUQlg3kne4AfLZx9j2onyI5otyQ8LwC3qJz/ALUeugS3Ovx6NZ3kN3c2sLPeurqsCheSI274XjJzknjpXUt4H0qwu2J1ie5sYjvufIddyQYUl1b+YoWORjBCnpT8TfQHn11GzKuxpBtGMkdR/tUbK6ezLFU5kiaJleMMNpxzg9D89a9G8beE/D2haNd39p4qjvLiPyzbQh4m3hwOwOemftXDaNDpdylxJq9+LKCNlwqxGWSUkHO0DuMDk4601jlF0FCnzQzZkYmM8YHHPsABiioLtd/lqzRxgcLjP34NRu10pyps7oyqQS0RiYGNuwJ6HHvxVdsbVt9u+3ZIoy4VWYEDPpY9PnHUUcd7EWvc74/JiYBYzkk4BbnpitWshRWUtgtlT0Ixngg0wS6sotLaGDTo3Z4BFNLI4Z1cciVTjgHof70vU/wQsbLuL7di8tgDqfepkkgMaQ/WspPDMOAvJB7/AD+lPNEltjdSKmlLqE80exFZDKUI5YhCwByOOenUc0luW8uOJJIWiZkG1g2c9+Pj4o20R5rbDiFw/qZc8MOevbNStOxjTVNO1K8vrnU77SbXQ4HUDbLp80MMgVRnoGCtyDnIoFNDnsbiaOS6sb6Jdp32dyJfSeQ4IHTAPUcdwK950K68Tv4J0+z0/RLAl7JUiup9TB2hl4JXZk9enORwc15H4s8PavL4rddV/wAF0m4nwC8MbQQ8fmZQMgk8DGASTwOtdUoJqxuFKzirqdp2ACgmMnDHowNUxxyxQsyqAT6Tk9femV9oWrWWkJqs8QfTbmSSKOYElWZGKnPccjvQtt9M1tid/UCCACSeeOO3FZKPEhisSdcglQcYz0p/pht2tlh82RWY7R9+tKbu2MQARwQ3bH/f7VkE3O2Qsijg4OP1HvTklJDO/wDBWvaN4a1yG9m0yRpFRzLtIBQ5wrKM5Y4zkHjODXtMN7a6jaJfWUyzQS5IdTnvznHGa+aEfzdrmVXVV7gAsAf9Pau18O+IfEXg2G2sbvTzHp92v1EX1MLDepI9UR7oOcYxk0Qlx0zXFk4vZ68Sc1rJoLTNa0bV1MmnahA+SB5JbDpnJAIPJPHai34ra7OxSTWie6pBj70PmpZpgEKx96mG70OjURbr5s8UWcb3Vd2M4yQKACrG3uby5W3tYmllfgKPsTn7cUfrd0k2oSSRkFY0SMOB+cooXd+tC6hIkF1cQWcYgjWR0DAneQCRy3fpnAoe4l3yiTZjzF3HJz6snP8AXNOg7Ot8WSpLrLW9yrMiRxKkyeqXb5YPP+cdevtxXKalbtbSBS6SI6hkkQ5Vgen/AIppZ6uk9ulrqgknWNdsMytiSEYPp/516cHp2NVa/ZRW8Fk8Eq3EUsbMsyqVDeo+nB6EY5+9SJHPSjJrK3ICD0rKoYkjAC4PWrQFxiow4696ICjHApFpFARg4A5FGwpUFAIFExjFSykicKcjnB7HNcv451bVtAv7W8tb+2aO4RoYrKSL1b9oO7P83Tvzjgdc12EcTkZxkZx2615b+PEZhvbO8TUVSQw7DB5XK44yJBjB56Hmk9EZnUbR57rXiC61W6mvNRuWleQhkiOWVT3IB/L06fbnig9MfTGmkuZZLiKVWV4/KtxIinPO4HqAO3fNBXkQDQz+pVmB2j07srweB0GelM7LS3+ln1OJWOnxjLGaQQGbg4QerLHp+XPB7VioPs83vsg2r3UDSTQ3TRtLuEhQbSwPHH+XvwMVrT5ZLpAySFvKyfKxhm+Sf9KGu9PlS0juzC9vFKWdAW3AgYyAfjPf2oywkayQW4tgkgJIGTljj8w+ADnHzUSugKZUu7uNzFGVVF3SeZ6f696CjjkIKupBHPp5+1PLos9ibpAibwDhpcuc4wcHr+nSlIuZ5pXaRSxRcj0k7SPtSxtv0Jkbeb0KjHcRn856VeIHadZpQGRSCvGTj2zQsfnsuFi3E+okKc89PvTzT7C0vI483s088sin6KC2kMp7MBxyQOfY5+KtRtjKoLyJZliijJgJ9SSc/sf1oY3srotqZWVfys+cMo7g12eofhvqC3l9J9BLpGnR25lgXV7lVmcAAnlQBnvt64I+9cjbWn1U8Is7ZZXCbiGUtvIySoAzn7DsOcULFTHVF0sVvDK62QDq+1Q0qAHB+2cH9aBnEUE+zzC2U3Ksa7h3zkkdOP713tr4N0C+t44NC8Q6vc3xtGmureXSztU5xtKg5A/U4465qtP/AFTpOkXen6bZ6fcWsJCTTQWjCZepDFZAOcZ5wTj2xVeNhRxlnZ38l60ti8tpMAd7M5j24HIPzjPH3o7QrOLS/EH0uveH59TVUWRreKfLqpXcXAXhvTzg4pppmtXmiafNp1xpgWaZxKsl2jqz5wfVu4ZchSDxjk85pPb381lfw6vb3M0V+jl/MEmGDk9R8f6U21ER02k6r+H8nim4uLzTGt9KS2WK1TyWVnk3ZLybP5h069q7ax8X6B5M1vZ+INM0pPIO02+m4YgHiNHYY3Ed2UHPTivGb68W6vLi5uMtLM5dnIAOT1ORxk/ag2nLnOSdpzgjO6hZA5HtUfi78PtI028udGiur29uQqOl6jM0oDZbezdeuc/alj/i+8CamLSxMzSyb7UTso+nBGCPSPWARkdOOK8l86WQlTL06YGf3zU1tEI3tOR1woFJ5Ggc2d9d/ivr0zGSCeO2PksixQRgxsT1Yk85x7YxnrXn1xcPNdS3ASNVlkLtHkkDJzwTzWnUx4KP6TwcckVAkKhVnyQMggf0pc2+ybZBhFOTHGQGHIz1qvDwqcH05yT34q5FzKpwCvvjpU98csm2TcBnBYdKVlEEmZ+GJUDnGev/AEphDNpxWFX89nJbftbCqO3PfPOcgYxQktmGBMMnqUdDU4owh4JUY5Y8bv2qXLVEjTz7mSF1E20HDL6cb+cenH26ULqcBhiJdEhlyCWQkqfiqLe+nhkH8ON/LJJyPzf+KItRNqGFtLYlVlQfkLYLcL9+azSaZRVZ2Nu8a3c0zuZD6Nh4DA9D3zUrqQGSRHjJlD4LKuB14GO9MHtb6GOa32C5fLJIkbZEZB64HJHzQJMi3FtbEgo7bSdmNp/Xn9ad2wNR2ssjlmMduDltrHkkYq+FAyzebDu4x5jgAAgjuPtUXg82UkxNvjbaSVwzg/FXTRhbcbCsRDbFTBxgDqR7n+lKUgL7S4KXSRyRSNKDmMbcqPgff/SoaHpE12ur30dwkEVo4P084ZWkZ84VcDv7cGq/OhW3EcsxEsZDIrnAb3waosNVf/El/gs7SN/CRFyQ/QfeqxWg6L76zhF5ONPS8hRdqst2qh1fA3KQOnOcUNGCsa3U0j5DFRsX0/b5NG6tHfLMHvZPppmYhzcIQd3JO4nnP71RJcGSBhExLs2UZTlcj3zSfJsAqKPfcZYhomUeZEeAxHbjoaSz2xWRwqkYYnn+o/SrlmKKAq+WV5k4xn2IomcfVW5l3biu4A46HqamLcWUgaC8vbC8Se0uJYJrd9yMrflP2qjUb+91XUJLzULhriWR8s7n+gHYfArV4C0EdyAxdvQxx1Io/wANWelyz79ZvFtogAUQqxMhz0JUEqP0rpi7RLQHGjlHEWOejH0qPjPvVtra+bp0s8ur2sLIwC27RvvkB/mBA24HfJ7d6638QNU8LS6Jaaf4f9MiTZl8tWCkKMDdkDJ5OOK5PZMbWNJXQRZyu3BI+T7Um1F0BfdaQI9QTTLW8+vvGYRlbdA0ZZsY2uDzxjnAr0a0/CV/p4jP4iuoZyo3oqZ2HuMhufv3rkvDr3vhm+sNdudD+stTkwyNkLgE4YY4DdfzV6/L408LxaHBq02orEs8RlityN056gjaOhyO+K2govbKSR53468BaX4b8PvqEmpXt5dySLFbhlVVyckk9TgAGuV0TSrDULXUNQ1TVFsIbKL+HhVaSeU52oqn3x17V0n4ieObfxRZW1ha6bcWscMxlMszglvSVAwBx1964aAW8jlJrmKBvU++VjjgZwMZOTUTa5WhMy0WGNlNxDHL0Yoc4PPxg9O9dfd6p+GMduqWXhG9mm2g/wAe+KqrY5xgk9ftXKWd3AEdHslnY8J5hbC/oCM/rRmm65eadfyXFvFZqHxui+nVkGOmM8j7g1MZuIgrVbiC+0vzLDwrpmkWSFA9ygdpHOeMSO2ee4UUf4GvfCVjLOPEti9yJTmGZI2kMAA/yhgMn356Uo1zX9V11Ut7pk8hGMkUMUQRFYjBI79KXRs20ISuCDuBU9Piksn2A9UtfGngb/CEsLjTrrVZom4li05I3ZccD0EcA9+/evP/ABFqFjqV1i20210xVjwIwHLucjljgAMeucYrt/Cseiz6bKdM/EzXtJaHaDDOIrfIPAZfcZ/WuZ/EfS0sL6D6nxRNreo3EaO7SeoIh6AuGPt061tPasHbOYhWTyykKsrltoAOcc9Mdqultbu0lj86CaJZBvBkjx5gHDFT3HbNCiG5ibMTSRS8kbSVYc9PetfWXzIsT3c7IDkDeSAfjNY1FiQzlXz1jggAkdmAUgc4z+Ue3tVukvYR6m8d/czW8RP5jCXKnocgHI+46Uy8K+NtR0COBbfTNGuYreJows1mu6QH/O45YjJHPbjmqvGviiLxJqdleto1lZi3tTA0cJwJs5wxIAPHGB7DFNQivYWe0/8A6z/B9jZwINQvb4xRqheO0b1YHcnArzTxj44jvL573RJb8XUkjFri4jh37CMeWNoPpA9yPfrXC2I8hjJIEmVUIUS9FJ/m+SOvtXT+G/EunWdy0mt+GdK1cOeW2CNsAdML6eftV870W5uSpiufV47vyN8UyRQq3/tmuH8mSQnOQF6E8ZwOSM96VAR3Mvk+QyuDsEmQoXnqeeTjjk17D4DvPAvieObSJvD1rZX9xFItrDPIZLfdjgqScxnOM45Ncr42/D+80lI2a2+kA9NyxlUQwMPSAOSzBsA5Iz6iOvFNxtWSzkLa2SK5ghv72OO0mTc8sBWZlTOM7QeSD/KcGulvfAn0nhoazZ38N0vli5kU7fL8knHJUkqwz0YDGa5ERXCRqy+WEkOFKMMhs46dQf2pp4V1y88NalHqVjHbeaAytHNEJIZgRgh14yealNeyQOS5ktpVVoI0IUcNFz7jII9v96sbVWvY7W3nuZ2W1Qx265JVVJ5B54/TFXXJttVS41KYzrf+YGcyXAKyc84yC2AuOp4xS2dALtnjLLGG4bcrcZ9xwaTSAaafdT6XeQ39htk8g+ajMm4Aj34+9ez+EPFdp4lt9qjy76KMNPGBgc9WXk+nPFeJ2TzTKbWN0UM3loSRgEkD+ua9f/DHRLvRtEmGoQS208kzL5TFSpAxhgRz/WjE3dG+CTujqcjpWZqAPNTFbnXZNKLtI5JbiKOJWeVmHlonUt2/tQqe9OtEaGAQTiTy3ecxMwJBVSh5+2TzTQENeMf+KzlGUk4Mm1tyiTHrAPtuzS3dW5EMbFGGGX0n9KrzzQBdHJhuK6q0ntBoFit6sqo5nCuqhxw4wSjdeSeQQa48H1V0uiKmpaKmm7//AHnnu9oDwPy+pCT03YyB8fNJoGKNbsnsNRktpWUsuG3KvpYMMgj4Oayi/FZMkOmTtu2i1EB3rgq8ZIZSe5HFZQFnDxy4A5ouJyelIop896PtpcnrTCE0NSXSCSZInlKIWCIMl8DoPk/NcPr34j2UMK28eltLDcW2ZFlk2FGP8p7MB3Kn35zSD8Udc1A61HpjSiyt4hlHiky0m4Y5I5H2rlNQ09YrFph/EjiLpE7XChXYEZMa4DN74xgCsnLdGGXO7pBeleJby0WJTeSvBEwZIWbdtO4H07shSSB79TzyaL1vXNU8RLI12y3kYkErLIoVySCOCOVC8YUcUr0/SNX1Nrex+hkctG302IwuScnBYDknBAB74p83gXWLnR7K/sokvRh/OVV2GArncrscdMY6dutZ1IxXOSOVLfUX0H0dn64tpMUa+nK8Dj2JGST3J6Udqmp3V1cztfQWsRMytLFGnlKpVsnaOQM5+/AqmKUQWt08doUmlbKMHJUJnDAjPqHQY5FDeULiGJy7OVbZtC8jkYPHGOcfBFJsgb3Edk900ti4mgS1EsguZ/KYsMl8juc4IUEkgce1dh4B0CXxALK31uKPT7C1nM0t2YI2eZ9qkA78ZXbxsHHXvXPeCNHe+u3Yb0SS3lDM0PmQRjoRLnkDrkqNwOCOOa6jxhP4E02ws7TT9Gtr29igC3N5HLNboXK8FBuy7Z5JPAP3q41VspR1Yi8a+GLgeKr2107Ro5Y7fEo+jcuoi2+ktwPLJySQec9BxXM3t5Zy2qRTQzw6lHGIg8YWNNowBlByTjcDnrxXongBfAWrNeNr9r9IwImBS5mEUwUeoGPJPf8AmJz2pR4t1vS55YbnStLs7PT2JAjtkjVsrwitzkjAyQRkZ5z1ptrsGlVnE2wmJSO2kMjAj5II44r0zwb4DTVYf8R1rULS2t3aJYXsJQCrFSTnAOCQMY4I64PNedWKw3Gpq66fbsdxkMLuyxkdSvHP6g16z4Z/D+8vp7PWdLbUPCtkwWRGXUmuLiUdRgD0p24JJ96UKY8cW3oI1LwZrupXl/4a0DxFfXug2kavcrqkm9PqOohRlG4YXBY9ASB71zB/xDQrnTLHXrVdOn0xXjS7UJPb3DKRsR8YCtgMpJ67snsac65+Hnii31Q22mXr69aziS5MF3eyWwDbhv3BGAYknOeM0HPBo3hq08nxj+E1xaW0sozeRagZMgnopZj7HBzV1RclvaO08NaBdWsmmav9NpskN1fyS3ckDO4ZGQgrgALtUgAYyO9cv4x16fwZ+KN4dMtrfWZLiwWE2j5c7WBOJOSScc5zkggcYrmbPxPBoWrlvw61jVrWGSQN9FqMkZt3GOc5OM9AOpNJ4tbbUNZeDV7oaW19c79SvDEXk3ZPPuABgBBx060pTtUhNpI34h1LVbiONdYvm1GSGNY4N0m+O2hA4jT2PTnnIA61zckzzZZlYqOh44Pz710virTbK2WB9Od3sZ1xbzSSo5kXI42oT5ZHGQxz/pz9ugCyKWChOQNudxxxzXPe9mTTYG8gc72GSnt0NVBHaRTtI7/emlnZRusPnSgo8hXam5nXjqVUZ69PernsFXyovpdQSTknfbshJ7Y3dveqt+hUwFHaIlWw79hjANafbuG053cN7fajYNLud0BFjqEmZQg8iPesg5ztYZBbpxz96MOi6i8c8tno2qSRoT5oNk/obHCk9j70uLex0JZXB3RnCqvOVHNDom5twYLnsatljVi7btoGBxx+9EwJZspNxMisM7Rjj/zTFQIVZTgDAXsSMk+9WC8MUYSWEsOu0dOa3FLZvhpp448Zznlj7YqqaS3kwouFwOSV/qKXYw2xgluIJGjhcxRLueTYcLn3Pb9aqvBtZG3BFQEPt71XbXBNvcWsVzPHHMAJY1chXx0LDvQ2wAYxld37UuIFwdJ0eSMMNvG3HNTtNRuLUmFEWQSMmA3Un2qNlIltMskxOyTKuByQPeqdQeBrnzLdiQBgZGKutjekdRDc6+zTaTa6LeLOG/iIsZaRNw9K9PSDxjPXNKtTuhLcmGC2MBhOxkdixJGAwOehBzV1n4jvmiSKW5iJNuLUmQEHyw2QN4wc57nOMUy8dRwyWOka5F/hjNcK1tN9Ju/OgBBcH+cqTk9Diq8UatCWzm3MnmP5kjqyE4Kscqfil80s4fDTSHnj1HI967j8ONP0rXdTk0TViyvNGz2twhw8cijpzwQR2PtQPjnwXfeGrj/3GJraQ4gnT8r/AAR2b4oUNdDcWc1M7yxRs5LMgxk+3amPhWdLfX7LUJtpispBcOp/m2cgfqcUADtT1L8Gq5wqt6fyntQSHa3rF7rWr3GqanK89xcStK+SSAT2GegHT9KXRl8kI7KM5HPGa2MtyBRdrbhnAAyB2/760SYK7LrKN8CVjkIu0b+9NUsr46Le6lbWrNaWqAzSdEViwAA9zk9K7nwX4BSS2W+1yOVNxDRWobbuGPzP359v3o/8ZZxZ+BksIVSGKe5SMJGoVVVfUcAcdhSWDkuTKujyC3aWS22lifVnGeM4rrNI8OWc3h//ABC5kmEry7BE6uitn8gRwMMT9jXM2w8qFW4GM9R/Wvb9R1vw74X8IaXpmq26X16lpGRZRgF1ZlySxPCde/NEEhtWeH3EE/nmIKodpdixIT6T7V2GneA7oWa6le6xp0EAKsJZJtvpxljg88dOlLdR12+1PxPHqunWMWnzKcW8Nupcq3PIB6t84ofxTpmq6YYJ9ceT6+9UyCO4kLzeX/8AmN/lz0APJpquyaobat45uk0r/AtFCW9mMh5wgDSsc79oI9KnPHfHtXOaLHprXJXVL9rCFBuLpbmZn/5VA6H5JxXRf4H4d0XRoLzX9RmlvrmESxabZbTIAem+TkJ9gMiuOjTfKXVCAWJCZLYHbnqaH+h2MNUv4Lm0a1sbKC1sw28zON1xJjO3e3br+VcDp1pTaorYdWwM/rR17pd3HbrcT2k0UDNgM0ZVSf1qqNNzJHDgu3pCKuWNK7AuiVJUeQTp6Rz6gMf71QbhP+Gqk89cYzV13pN5bgG5sLq3DLkedCU3LnGRkDPPtQzA4XCsF5IYj2qeIi2IXMjNJA4YxKSxJAHAzgZ/Wpx3W6QIzZyMKhHOaFRCfTEQrMMfJHtRNtdXdtp1xaC2tGScKPNdMvHg8bGz6efaqcYsAlNPN04lQogC7mIycDPXH96XyAxzkpIOTnK8An3FXxXepQkRxk72GG2NywI6fY+1ajS5kXJtJ2jXgFIyQv3IB+f2qVGQFQkm83znKv6sksc5PvVzTeZAwdF6dc45qtFhO5GY4+BwR70U1i5j3Rhtq8e2f0qXJIAVJGKtGpHlnjb3PtzUFV5MRRqwbGPn/rU72zliblSu/rnj/wAVRDLKuW3qmzrng07voQwWyuA4YbCdudqtk/7ZrWbg3CxNExk5A3Ad/eowagrRyPIRuBGRtP78VYxgaQSpL5Y27Q5P5T/l+fvSTl7KRahEUpSaFi45B25x9v61u8jMxSeeQoWAbMhLZb5J5/r7Vu2Ny9jH5EqPIrEsu3AUc9PepWwW4iMRkRCwPoLkBTnoBUOTQBdreWVto5hOjWc08iOpmZm8wbs4YgnG5e3AznnmlV9GiTBBE8SkDKsBn9+lG+QxvEaQN6kxI5U9uOSetauII2AigA8xuG3Nwcc9KayfomLZY7ncdqMyoNzYHIXPU/HIqu4iMCB5Y5k8xSyLIhUMucbgTwRn2ptYSJZ3EF00KtLC4IWb1JIvdGHsenFMtT1S31CMW66Ha2cRBCiOeRhCGOc+pjnByQM4FbKUK7EILYxvafwy8coYAe3J/fNexfh34ptbuwttDuQRdRL5cbjG2QA8cdeAOT/vXlt5Y3emXJfdDcW7yPGs8DLIsgQAsRj2DKe3X4NdN+F3hu+u9TTVkN3Z2e1nhuQqP6x2O7jH5hnr29qI2pGmO09HrffNTWtyL6sEYx2rBwa3OwsQHdxRtuCLORs+guo6dT1oNcKQW5B7VY85ZVBIVVz6RwBmqRSC9WdGgsdpQuLbLkDDH1tjPvgcUtY88Uddt5tlbSgj+GphfjnIJI/of6UuLe9AGwSDmjjLLFb24DEYzKgH8pzwf6D7UAGGaIuW3WcUiHmMCNl/fDfY/wBxQA/03xOLWS4aRZxHOyuyQlQPMAOWAYEAHPQe1ZXJMx9+PvWUyTi4fNHvR1uzjGc0YsCY4AqyOIZ6CkZxg0JvFPh1PE1vbxXFzJEkJdgFA5YrgE9+DiqbP8OtDjMDyb5pIpJHbccBwy4CkeynBH611UKj2ouIUqNFBXbLtHs7awtktbSFIIUOUReinGOPbpR88AubWa2c4WeNkLAA4DDBNV2vBBxuIOfv8U2eFTsmjz5T8pn+X/lJ96RrpKjxzUvwsuLDR5DYTtfTtOFeOGMI5jyAFz3z3HToaHtfw+8apFJbwxrawyAzhIZFGGXohPY+ogDoSM969tiQ84pno9i13di2V1VnUkZGQSASF49+lRxpmTwRPDPH3hybwRp+nzaHqupJLdhlnR7lSWATBO0DsGIJ5AAHvXn62VvDpkV5Nai4AlERBd4y2QSF5XjHJ+a+kvxG0KXUfD1wbazj/wASt4ybeSZWDRDIL7cdWIUcHjPWvO9A8AX2u3EeveJ9TuWlkkS5SPg7iQCSwYcHOMjGOKTVsxnifKkcBptr/hCyXOpaU89lcI6F2ttzBj0MbZ28HPOT9vYG0s7u5MRhmWG0aZs3F2fLROTjcee+P1r2DX/w9D+GkjtbuSTUbcSNveRvK9ZJcJEOB8KBya86j8Oa9p01jfwaY8zNIq7JrdTEGKnjaeowCMnHPT3qWqIeNx7MOm2+my/R2Xl3+oRxjEun3xYISedyhPUp4yuc13eg6r4u0/ww1/eajZWUC5aC31DT3ZpfMPpSN0IZjnICheP0pi3jPRtI0+2S20wwvAh2wRxIISylQUDg5LjJOOSM89a5vTvFg1bxhp99dC0EVpN5kcSW0ihDJwQduVMqjnp3NWqLikumdTPF+IWv2VqZIdH8NNEAyyI8k1zG2MErggLkcYJNXaT+HGjw366jrN3e+Ib5efO1B96g+4Tp/U13LRYOBjGakqYOcCnZ0rGuzyT8Vda8K6BfW0C+G9I1DUVYGQyWyhYE9uAPUc5B7Y5rgdTvb/xBK9rdaJC9226SS7nQ7pCR7jGz0jCoD79Sa+hJfCuh3Gry6vPpyS3kww8jHORjHfpx/U1ToXhLSdKtBbrbm4UkHEhyNwbcGAPRhwM/FRWzGWFtnz/pX4e+JtQsLfUtGhgmjmTeqiTbn0knhh9x25pTPpV/pqyjWtF1LKkhJI8iNCDhgTgg9McMORX0prOpz2upDRdCsor/AFMgO4d9kNnHnG+VhyM49KDkn2pDH4K8QXVqNP1PxWINOLEvBpkBjMuTnDyMSTVOCE8GtHi2ir4HfVJf8TvNet7LIMIjA81Tjndt6fp+tWSR6u9zFL4OuvEuoWUWTEbi2LKDnnH5lPzkCvetN8CeFLKYsmi29xO2czXf8ZyT1J3cftXkPiTU5vA3jCZ/C14x0udiRYzoTDv5DqFJ7EZBGP7ZVUZyxOK2C23iHx7oFxJd3fh+NZlhw00unlAqnB3HZhT96SX+va54g1Fm13xF9JGxDARq/lfokf8Ar+9eveGPxS8N6rBHBqLvptzJhHSZSYWzx+bpt/8AsKeah4Q8K3jeZdeHdNkJGdyrtGPf04GMd6fFvoPGn0zxG70TwHaeH7+4j8S3Gp6mqYt4Et2hDOSMHkEkDnqe1R1Lwtp1qdB07TpTqes30SyzJbyK0cYboAR3988ADmuptvCvhTxJ4way0iyvLHTLa0aSaYSEG4ZjiMoG6J1IPeqtS8N+Ivw41CTWfD7fW6cyhZ5WgUlVJ/JIo5AJ/mH64or/AIJRdBem/hE8NgjjW2hvGGZI3t0kiXPbB6kdM9PtSbV/Dtz4PltodT0zw9r1rJKCkYjMdywxjbkDOPvxXp/gTxtpXiuPyFX6TUlXL2rNuDAdTGf5h8f+a6C7toJdv1FvHNtOQHQH+9UkvRr44yWj5mudMszcNOtle6VbCR45WaNpo45M5CEDkYUgEE5zzilV1HbpOEju0mQdGRCg/UNyK+jY/CWkxzXa+RIYLpd0kQbEZctkNt7Mo4BGP1rjvFVpceGbrSry/tjqek2k7oLgxKWSKRSPLkHQkEAq33FZygZSxtHj0ts7Eqm0sp7HmhpLdlO0pkk8ivpO08K+DdT0y1vE0OylgmiEkUigqSp57H3rlPGf4XI8b3XhyRiwyxtJWySP+Rvj/Kf3pcZLoTxas8S2Kr4/KKyVEPKnGPimV5aGGWSKVHV0baylcFT7GgpI2xlPUB2xQnZm4tDDw5qr6XqtpfKu57aZZVGcbsds/I4r37R9S0Tx5oc1tbkSxSLsnglX1wMemR/UEe1fNiko+ORg8im/hbX7/wAM69BqentgocNGc7ZUPVG+D/TrVwlWgUgXULWazvLmxnQiaGRonB7Mpwf7UEqDYyv+btTnxJqMOsa9farBC1vHdzNMsbEHbk5IyOtKOVckndUAbRMsFXkV1Ol6L4nt0N7Z6LMB5RdZmjHC45ddx7e/OKSabbzTTgwWv1JXDGLP5h889KPgvbmO4S4gS2gjUMhWbLR5bqCCeeMdKFvsTdB6eMfFNvaJBJrk6xOnoZyGJxjo/XIIAP7Uv8SeIdb1qK1h1W/+rSBiY12gYJGCSQOeKH16GfTzDazrE7FBJGVcPlT0OQTj7e2OKCRPVknlFySe5pyk6BbCbV5VfzExlMFdwyM/Io+xt0vdVDarqPkicebLcYM7HPche/3pp4O8K6l4kZorSIRQJ/xrl/yx+33J9hXT694R8HeErbztc13UppXTdBa2oRJJT8dcL8nFTGLey5aGvhnX/wAN/Cluz2VxPJcsvMzWrNIxA6An8oPsK8r8Sald+INcudVu1Je4fKjdkIo4VR8AcUE7fV3DTRwNFCDmKPeWwPlu5pvpOnT6jqFvZWqb7mZgiAHpmlPI+kgSsXJaFk2sFVieg6n4p7p/g/xJfW8bWel3Kxt+ViBGD/8AzYr2fwz4Q0zQrOJUt47i8XmS6dQzFj12k9B9qfBXYnhiTwD1z8VrHDe2arHo8Oj/AA28WXTKbgQpjvPd7sfpzRkP4Ua0WDnUtORx0A38fqBXrtleadetJFZ39pcPEdsiwzKzIe4IB4ohslQuc4+KtY0HjPnjxP4W8Q6Zeizv5RdBITNHi4ZwUDANsDdwSMj9aG0fWrPRB5Gp+FNP1CSOUlpLguH/APqRnb/SvafxE02S68Oy3dpuXULL+NaSJgMrdCoPcEZGK5Hbp7aN5mrhL0y4Gm3FuIoiyrHtKMG9IxzkuMEjrnipcKZlKFHn3+K2VzqksqWVjBaTlv8A274UQ8D1K+3I5HHBH9KFgdrSRLgQ2s0ZcFUkw6sM8q3f9utX6lZ2M2q7NN0+4kti25Yy480Lx1I4B756c+1Rg0C4leQ20jQOCWjjkBYkA88gckd/sazb9EUCXZtnufMsFMKOB5kbKMIe+3r6ew710ngDTZLy/NpDr1zodzMokjBkYLIp74GNw5xkHPxXO6naX+lS+Xf2cltJIN+5jxKDyGHapWCwTtFDf3jQW65ZJYoi7IfYc8Zoi6dsD03Ufwke2tfPS/topVVjNI0zbOeh2Mu48cYBridS0i60sIZ9Q0x3cFRFDdb5fjIAO0/BNAPdWFpNdK1smtxsT5VzePMhXOOGjD4JFSttcmst0llpWl27SzCQSC3DlABgRruz6D3Hc96pqEvQy2GPUriFRFZXbYUy5WPOUBwW/wCYZ4470HJaxmWaxnzG3UErg598DrxR6eJrKSy+luPDunyXKLiK7jd4ZEOckkKcNnng0kupvOuGlhKxnaqiPcW2r2XJ9his3BLoQXC0UbJ5kIGVKsTkbgfgjk/NSvLD0ytESQE9LKhAB+fmhkuLljtmuEKr0jHO72H705tDHJbmKV5nmQ5Cj0kf7+9c8nKICMyX1pcmTlGTAbaw6/p3q5r5LmYyi2H1AUgtu7fr1NbV7Yo9vcnM4Y5mI5HNDySLLe4Zo3Vu/TPtnHetUrAZITNv89mjkVPWI+QMe/xRdvnas08Y8pCFGFH5emST7UuhtpprkyQeTEuCAplyp+wPvVlveTxOu2fBIAdHXcAvcY/0rKUAso1B4Pp5vJDzoHDB8kFfj/rUbO6DH1F2RSG24/rkc1IwC0kkEi74ZMlXVeD8fFCtFHCiSxrIjgtkSDnHbFWuNUB6R4D8TWmh3M8WpCY2d2pZCqK6wNxvbaeu5cqcYODXpHh3xL4X1IxafocsMLsD5dskBjxt5OBjBxnr8V8+2l3LPa/TGEToBuYAcr7kfNM9B1m80DUbe9sJI1kiyCsiggqeCMnpkDr2rSMnHTNIZOJ9BypgnHQVWF571vRrifUtIgvbmye0lkyWibPH2JAyPnvRLR4rpuzs72DmtHNWstVkVSCi/TwHnEDKSsx2EDqD1BHyCKDcYJ9xx8ZovT2Ed7E7dmH79B/WhnUhirDBB5HtQMq7URY/xDPEVDmSBtvP8w5BH7GhyAOScDuScYFcfrfj5dF1Nkh0+O5tk8yBpjMFbzQOwBOU5Bz3zxyKTdEymoq2PNS1XTNOKDUb+2tjIMxiWQKWA7/1rK8hvNXvfFV+41TVLCzhXMkcMshSKMnghSeeeuKyo5M53m2evAexq1AKojOTVyHmtDpCEWiYlAqmIZFFRClZSC7YdKZ2zMg2gkKeoBNLrYUzgHTiky0dD4XtrK4vH+pieZkgkmRWfCOyLnBAGccdjUJr26mzKGESN6dsAEaDjoAPjvROmSJo2jrqI2SXF4JIY42HpRMAMx9yc4FBw38UsK2lwoW3D7gY1G6P3I/zZ+aRNbsou7m4mRI5Z5JFTOze2cZoFxls4FNprLdG9xaypcwpyzLkMn/2U8j79Pml7JwalFWihRhsjOPig9dsptR0qe0hufImdf4blAwVh04II/pTAIwzzkH37VMJyKbdBXJUef6H+HbpfJe6tqPmMVO+G3UKhJxkDI4BUYOMdBjFdr4f0e10bTYrK33S+Xn+LJgu3J6n4BxR6rxViipCMIxNhATk1ML71AHJwOSegHNKb3xBbrff4ZppjvtTP/xBiI4h3aRwCFwO35j0xQVdDieS3trd57mRIYYwWeQkYUe/PFc35uqeIwphll0nSD/8sRxc3Y90OP4cZ7HG49eKJudIl1Fx/jd6bqBSGFnHH5cBYc5cZJk6cBjj4prlSRn+goXYtyFbyaF4XsB6YLKGRx+UepzwCzEnLYzySScVRc+LvDMVu866xZsoVmU7iVYjouR0JPTviuN/HOG7vG0yweWCKxbe4LyiMbgMsxyueBxgdc15ZrVzbQW0toIbeBo7lZE/i75D6AFYMBhlAA7ZBP6U3KjnnncXSPZdP/EVxbC41fwvqltFg/xreEvGQFB3DcM7eRzxivNtY8Ra7quo33lXOlAXTb1Edskj8Hargcn2BP2+aE0/VfFuqaJNp0Uy2mly7QSSYw2eNisexJyQOD8YrodD0fTba3fRfEEVto00eELeWkhuJi+R/GK/GOMdBjvSVyMJZHPTE+neH/DusCW2vdcg0+9YlIoGIV7WVTkhm4EiEZ6e/GMVmm+LfEf4f3UmhatCmpWYGYBJIdpQ94259B9j80+8X6WmnXunDwrLLd6lAvmXF2rIxILhf4knQ9QNpzgHmpTeFw9j/jdtE+o3CKJbm7m42srklCzNsUgrjhP1p9Co57wH+IllobahLqOmz3dzfXHmyTQyr6VHARVPQD713Fr+LPhCYYlGpW4bs9vuGPY4JzXJ6drfgW/1N73xMsO0RBY7eG2aSPBUdWwDuHPHP3pJ4j1fwRdXzx6H4PmAPEbm9kjz2yI1yf3NJSaBSlFB/wCIk3gq7X/G/Cmpix1KNtz2yRvCsg/zLx6WHwcEVf4Q/Fy7tLJrbXbV9U2qRBKrBJAf8rnuPnrXEtoeteU1yNI1BICef4D4X4BNKbm3mWY7Y/KY/wApBBB+xpJsXJraPQ9V/FHxPfyNHZLa6ep4WOCEyS/uc/2pa1t481izdJYtcuraThkmk2I3foxHH2FR8OePpNDtkih8PaWrqoDSQq0cjj3Y88/NO7f8WoXVmudCYMSdvk3OQfYHIzn5p6fbFzvtimJ/HvhbT1Ef+KWVqn5UXEkae/HIH9KbaD+Kut2piTUILbUo1OXO3ypSM+44z+lUTfi3erzBodsqcZEkzscZ5HGKVax+IFjqKZvfBukyEgguZHVx9iuDS6/ljUqH9zqng7xQlvZ31q+iXWJHOqSMDHvOTtdVGWUknnqK4nXtGu9KvfpX8qQt6o5YHEkUyj+ZGHBH9fehl1PS5ZVMtpeWkbD/AOKZZQvPswBI/wDxUyi8P3WqxNceHZhq6Q/xHit1KTxZ7tE3P6rmoabE5Wc7NDG2Gblj1K+9CXVvLG2TkjFM7qKWznZbmN0k6vHLGUbPtgisDrcx7l5bphhwKlSaeyXEXx4+nAJIcjGB71dDA0kbFVyUyz/aoSw5lByoDtjr3p3YQpHaXLZ3EJtBPSiUqKihLPK0TxiF2jdRwwJBzQzzSNCEL8A5AY556Zreogi5Kt6SABzVSxZX+bb2+TV+rMpdl1oh2ldxB65opWVVL9VjGQD/ADH2qFuirC7AZdR09x8Vry1IPBGBwG7Gob2WuhlofiXxJpLO2m6tdWqMxYxhhs5/5Tx/Sq7lri+ne61Cea5uJuWklbcx+a3BbxRxEyAbh1B5/Sro4jcKJP4jnbwIx2Hv7UObaoqq7LrO0mlDx2VrJcSAgDZ2zxyTwP1q+w1TWdGvpooLqbTrhHKSIuFYMB0Pf96Hh1W/trSa2tbiWLT7sbLlFchXA6BgOp+aXNbDerlGlLjCFGzz/wB9qSS/+k8vw7DS/HfiqxuHujqj3LPgOkyh1fHb447jFFy+NPGviGSW3sJ4rMMoSSS3xFhM9CxPAyeSOeevFcTcwPD5M1wjQb0BjGNuRn83yPnvR2nzm2uI3gkVMMCsgJBVueR80Oco9j5Po7vT/CXjYJaiy8QaRC1tl4ktplG3jaW9CDI5wSe/zTCS0/FyyDGPUbW928nDRvn45UH+tch4e8TT6PqH1P1JiUlfMkGCWUNk8EGvR9U/Evwxb2QmtWuLyZidsKRbcfLE8L/U/FaYsil2OP8A7OWuvGH4g6RKg1bRUkEpwhktTgn2BQ4z3/SuGtry0MsyanZszSuzSSkk7QTnATjHPcHOO1dxJ+JOrXE/m22hxG4IxEHkdtoPXaBg5PvycUm1q18VeI5BLd6baI23IzbpC20cZz+YjmiWRd2DTYRp1j4d1WzWz0K7lhvDE00OZP8A3DNt5iPRSvf3wRUJPCOr2lq1x9TONzhIxHL6QTxy2M9dwyAc5GeM0us/AWr3jFhPYpEJNiSb2YFh7YHvxmp3Nj40tRaKNVa7RUcQ4uN4hwRuT1jgjHSl5YC4nUeD7bT7S3dbi6N2X/h30d3brKIn3ELhj0UnPXPbgUN4u/D2ymtHutCM0F1ncY3mAjk9wAQAp9u1cjLqmrad5/1+kownBEpIIVgSCQcEgc8++TTKy1VPFF+sV/qhsbeMKsFuZADISOSSBtJHTnt0rZTi1RLEmlaZBc2k8hnRdWscvNp94NizoOoRgQQR7Hn2o61u/DMzS2WoaHLp5mKvbukpbymIwQWPLRnr3I7V0Wt+BrOa38/T5p4r5RuVnk3iT7k9PbNctYW0Eso0m9t2tdTDpCyTnesqscZGR6do549+KGuJIo1C1ggvJYLGb6tATtk2gF16qxHY47e+aAlXyTkqPyjHPTiun1HRhY3CJ5iQyMchHmDpIpbHpcDj/wDGP1oC5cXUFyWt9lzE43ccjsfgA5H9KxlrsYlicxvHNv8AMAYEoQcHnof+lN49ZtRrp1L/AAuFIPMDSWELOImUjBCsSWU9881CSJNvlq8ckf8AxFPAZfjnGe/ShPI3Bp4SBk4yOFPx96FOLENfFGqaPrVw1zZaJ/hly4WMLDMBEoAAB2gZJODnnnOaTyQt53ohkjQqAQx3eodT+pqqNQsgdnEWchgR/pTEzQNDEqsdgwuNu79aJzAptJXRjNHvG07SQSQMVO5MYImlZ2jfhChw2fnNSd2y8qFCUYrtyFyB/wB9KvmVLyEQskcLqA0ZUdc++BisXP8AQKtNu2jIABfcuGJ549z8/wC1MLthLYqEWJ7dVIYk7iik9fvmubuFms7phyGU7QwJwaP0u4Izl1Z3UpjnI9qJQvaAhLDKl7sibfgDa0QJ3k9MY710XhjSJNQXzrlFMUL7ZFWQo54yVzg4yO/PaiPCuvQ6W/l3Nk0snlsm/I9KtgkDj3ArtYZILnT4bq3QJFMocDAH9q6cSjPsT0dnonijwxY6LbWeb62itkEa+cTK2Oe/83T+tOrC807VI2l0y7juVX84UEMv3B5FeSXEI7Eg/ah4pbi1lD200sDqc7kYg5H2rpcDaPymtM9kkjwcYqpozn7Vw2h+OLyzhaHU45NQBbKuzgOo7jOORXV2HibQtQlEUV4IpSB6ZlK5J7Ang1OzohmhJdhbqO1Vy5dix7k0ZJAQOev2ql48cUGyFes2s15o15aWyK800RjVWIAO7g5JrxC90nRtFmkstQ1GGWRgmJYYzJBCwJLISpyW4wMcckmvery4j0+wuNRnDeVbIZGK9QBXkTD8OtT1m6vbi8u7CzC7rdRbbUaY8+rblihIOe/PWpk0c3yEjm9b12E6i0ul2NnY2+1VCLbBhnHJAboSQST349qyl0dlbXc8stk0aR729I4VQTkYz0BHTJJ65rKz5HKe5RtzRMfJoWEE4FFwjnFbnoIMgH7UZCpzVdn9PsKyRSA9pFO4j7juKaWlipCubu1CMcAtIR/TGe9I1WjVvExAIBxT/RdOuboiZbZntoiDK7NsjA9i54FS0q2t7WzkvElW6mDrDBH9NuXeRksQfzYHQY6kUfrmo3FjozWV5NI9/dFTMrNxbRqcrHtHALHk4qROV6QB4lvxc6k2xo/JiURRLH+RVA6L8Zzz360pE2OB0oSSXJ9qisnzSLWh7pOoG0ukmUbl/K8Z/LIp/Mp+DTWSPQpZW8jUbmFSfQsttkKPYsCT+wrk45MHrRUUx/WkxVY/TT4t+H1KxVP84kLA/YAZ/fFTfSXZS1hPFfKMnEIbeAOpKkZ/bNJYZj7/ANad+F7yK216ynnYLEsg3seQoOQSfjmpE01sXgZNRuojPaTQLK8RkQrvQkMueMg9j7UZqVpLYXj20ylWQ4HsR2IPcEe1CluOtItO1Yon0EzFEn1nVprUA+ZBJMoEvHG5lAbjuM896Y2lvb2dsLa0t4reBeVjjQKoPfgVYWqBPzTCkS5I4UkCgtauJLTR7y7ieJJIoWdGlUlAQO4XnH2pV4r0a71J7W/0rUHsdTs2zAxJaGQHqkiD8w+3IrkDa+IfHs1/Za1e2+m2Gmzm2uLKyYn6qUAHLMeiHIwO1VWjOU60ec+INVm1/Vb++1XWrT0OGhhw5jkBAJCAEhOn82OueKS2tjFdyLczPHFbz3JhQQDcykkbV2nGcZzknmvaLn8NtOnkguRFZ2k+YN8CRBoo1TG8Ln8xPcnqOKeX3hPQ7nT7mz+iSNLhHUsvVS3IIHTI6D2Ax0pKF9nJ4ZPbPL9N06wutC1mJbfVmhs40ju4JJ9kkXq9TRxqQuD6sq447EnJrqvCWnaLP4Utr/UNaurK2kEwaC6u1EZIOwOFcEdFHA45NJvHV1q3htovDul6+NYvb+FYZoJ7NHnTChEIce+MAHJHJzWaR+EMLW0LazrFw8u0booUHo4/LubOcfAAoTocIu6SOgXxh4H8HaK1rp2pNqb+YzCK3w29j3JwEVenT9q46e08bfiNdRveqdO0sZZcqViC5z+XgyNz1P8ASvQtA8EeGdFIkttNWWYADzbhvNb788D9BXRMadWaLHKXZwunfhl4Xs0Xz4bi+cdWmlwD+i4ArpNO0nTdNjEenWFtbKOnlxgH9+tMZD1FL9Z1Ox0iwa9v51iiBwMnlj7CnpI04xigja2SeevX2rx/8W7+8l8Tm1mt8W9qqmMsq7iD3yM5HXriqPFf4garqE0iWcxgsWRogieklW7tyfVj24+K4ie6up5AJJ5dw672LE/fNY5JqWkcuTIn0E3EtqIWYPDkcBdvP9qESSN0BUxkgc4AGP8ASqZAfUjscDkA8iqBGZJkhj2hmOBngHNZqOjLkHyPGVUGPcCMFgP9qrZEcZYbk3Y9Io7QtLkutRisPp7yWSVyEWKMAk4HB3YwB3OeBzXRw+Cp7nSra5hvbBZJzKqwPNhmdCAY1GPznOQvcVXF1opVI4hojnYvqjz/ADD+lT0+eWwuRcW9xPa3KHMMsbFXU/BFGmz/AIhO7YVOME8iqJozIrBRgryd3JpKdMTidTqH4g6vq3h+40XXbSz1JZVHl3LpsnjcdGyODjvwM1xrEq4nhHMfVc8kVKEb4tqNk8jkYqKuywlXU+WpyHzn9CabtiQWFWZwuBtPqHGftTiOGGLRvNMqOwZUYA/l/SlWmqJYxFtwcEH4p/BpqQ6Tc3LLtMihiQcgle1Ytm8eiqHTNKubRmu7ZHeAb5JUkKso9m/TpXIRjcSyggKfSnXApl4mVkuBMsjASRqoAOA3x9qjp8CrCdyjftySe49qu2lsh1Ji8rJEvmAsjNx96Ntojs8ycMqA9fb71KwiM96ZZIx5KdP96ca9oOvIkJuNPks7XyhNGJ2CM8Z/+QLnLDp0BxQrYmqQputTt1sdtqj/AFZkHqdQVWMdwc9SfcdKv0TyJXL32qJbHZ+VoXYuO4ynQ98HrjHegb7S7i2ZWKwzI68SQSCRCcZPI6Y6nODVdxbXNqNssTpglSW6E/B71pWjPY5e1trmyurlNQ0uAQ9FjkYNcdxhG5z2475zUdJtdPngM11q8VosDATRKB5jKf54weGORgr26+9IIlmlwFA4amNpZKQJJgyjkEkYANDaQJWWtM630dzbyy3UkQB/9zEHAPZTnIIx2xiiL99S1i9Rja2sOAAIrS325+SBnJ+eKdnS10m0sNR1FJZ7O4YbRakYxnkF8cH2ABz8V614VXQPoymgNb+Wn5woxIOeS2ec54/SnGMshSijybSvAOuXNx69OkgVgGL3J2D/AH/pXZ6J+GtokhGp6ocZBC28QAP/AOJv9q7wjnjnv0qLc/8AitY4IrspaDdG8PaHplmbTTLKG3mDB4ps7mkI/lZzyQenYCl+v6THM5in/MFPltjBU4xz3yD2+KthmkhPoY4PUe9Xx3yyl4tSd5IXJcSAZaJ8Y3AdweMj445rTxxqjRtM5k6RBYWLxWkbli4d1BwZDnp7AHp+tIdcki1GGBLUzu4ugJEjAQnIbg5HbjnvXZ61FdR2U5s0FxcbCYljZSGPAyCeMffmuMvtI1uC4F5CbSeaPa8kgTYz4Odh7MB271x58SUtCWgnUpFFnHK8UbRxESjAyrsBhVx1wSf6Vz1z4U0PUzIGZnnkUSi4hYAb+jgADBHQjj3ppZtPNqUVrdQxRwxxG6hHmeYCzHBOcDpk4BHemVwkMbWsiQgCKTaFjTs3BAFXCD48mZye6OP0m41HwnqKaZq94bjR5Btt7o/liPYHP5fkU18VaDba7aIRKsV4oDW9wvUDqASOo/7FNdYs7e9tJbC7j327jBT2Pv8AcVya6N4o0mIwaPrUMtt2iuV5X4B5FdKejGS2D2+r/wCG2j2ut6bNbXi7j56xkx3X3Ye/Gfj2pLqp0ryIbjR7wrc4XMCxnY5/mB6AfGK7nwv4c1PVtRaXxLqH1RjjZ7exi/4RfHG5RjPfA96Z3PhHw6ssUZ0uBsSqD1555zz96iUHIpUeWG1Bt2V7G2FwrLuL3Sq2CcZA7rkjkZx3qy+8OajYRQLN9ON83lxqsgZie+FByRnv1r0LxD4O8NSvKtvpMNmSSEaPIKHHXGcfNctouiPbTyW1vqF1pur26YdgRLHNGf51Vh+U9wDxUrAkJyRx+saVf20qC4s5I5ZE8wKcEkdcjFat4pFgIubeQSceXtiJ3KeTkj7V2j2up2epy3epWF1qkxO5buwnCSIMADEZHbt2pHqWqLBfMukx3sEkrZeOeHyz5nQOAp/PyRkcHPSh467C0IQ0EjsTlWHQ5zxRljclbyE+ayxIhQLGQufnPSgriLzDLJctKs7HIUrtzzg/HY9Ky2wsQVyF5/mIOQfYVhOKAZyxRXCPGwiBZQ0YDHOR2+aShZbWcrKdpHI704ht4QJP4mZFH8NjwD8UNPDLeRK+yGJl4Q7vzfH34rKMqdMAy3uo5E9aswKAMMf1FNvBs08mtmONnVVywHmjBXvkHqB8YNLtH0y4l2RRBo5VVt25gCP0rudMtIbC2WBGaQqThm5K5Azj2rbDj5StCk0uwyXgljg/pQ8iiQ84HtzVkkgyBnJx+1USAkZIx8jpXof8MWyEkbLx6SDVLxn+UH7jtVrM6jqDUxgqCeG+9KhWM9E8TarpaLDGyy24bJjlG79AeorotX/EDS7fTVmjj23jgn6aQNjA64YD+9cQE6nbzXNeNrmFJ0gaCRJUBzLuwGQjt8ZqMlRR0Y801qxh4w/EHU9cie3glmsLR+GhSQHIKgEFgBleM4PzXKO49UasGBG456Z7YNLX2vcAMwjUkAnHC/oKJRMqvlO5ySquUIzzziuRpvbG232WxtHDlYt7nq56nNZUXSBZGJlkLH/Nx/asqaEe9xAUZCvPzWW1k8rbYZIZD2G/aT9t2M0zs9LkLnzrm1tgDhjLJ0/Rck/tXaz0EiNsnHTmuq0TRHvDA8lxHbQTsqJNL/OW4GxR6n5PUccdajpFja2enzazK0d3BbTCGCJomAnlIyOvG0dSOe3HNG2+rvbvD4ivpTdXRZltowQv5AAGb/KqlhhQOT9s1LsuwnxDqEGltDYaLKBFboytP5e2Yyk4c5OducDG3tiuRuJyc5OTn+tRecMSpP5z19znrQU8hBOevSii1otMmTWK/NCeZ81tZM96dA3YekhohJfmlyPVyOcikwGcUh/WjraX1YpTE+acaBaTahepbQFAxBJZ2wqKOSxPsBUvQ7R0V6S3hGxMpJc3MvlE9RGAuVB9snpSFm/amGr38IWztLWV5YLNCqsw2iRixLNj26AZ7Utu49m2WM5ilJK+4PcH5Hv3pUKHRHdWywxVO75rN3zQlRRJzxgDPxXE+GJP8N/EbxNpM8pX6/y9RtlJ4ZcbX/YjpXZknGa5fx5okd7B/jttez6fqum28jW9zEwxjGSrAjBBx/WmZ5P0dalqVjptsZ9Qu4LSAfzyyBR+ma4fWvHN5q4OneB7O4vZpDsa+eIpDEDxuUnr+tQ8EeGdK1rw9p2v6wJ9V1K7jExlvpTII2z0VegXiu2jVUTEahEBI2hcBTnkYHFMj7SOe8G+EbTQc3l24v8AWJSWnvJOTk9Queg+eprqC1Vg568VFnxQWo8dE2bioM1VtIKquJfLgkk2mQopYKCBux2yelMZaTk15f8AjVf33mwaYInSyEYlaUZILE4BPYYPHPWr7j8VrXyJ0TS5Y5ArLG/mAgP0Vv06n56V5xqmsavq2w6jqc90ItwXe3QE56dO9Y5JqqRzZcikqQmlB2EYIBb83xV7XLKqBSFRSdvoAZvkkDJP3NbjhuZHKwRPPjkhFyemeR24ycVTICIPTJvG3fwDxn71kkcxilJJBHuUBhktngffvTAWMMds00eobZomVViMZ9S49R3DgAfPJ+9SS00v6RLuO5uIleMKWEW9o5QO54HbI2g9cEk13/gjQbbVNA+rQQTXEULNAt0iyDOSpyBj+YdG9QxnpirjjdglZ5pdvIkckcUs4kjbll4yh7EjB7/aqrS41HzG8q5ljBbeG8wrgjvn/N813sH4ea/fxtFcR21ih3PvkkLyFjgbCfYY+w96J0D8OJtRRX1ZpbTyXEbJjIlUdxzkdsUcJdD4P8POUnulEkRkkZt2dp5z74+aaRp521o4hKzDLrECxQDoT8V6Vp/4YWUUi+dqU0ibMOgQAhs5yrda6nQPC+iaLJ51hYRxzHO6QjLH3/8AHzQsL9lRxyPnm6tHSdZoWIGdwK9K1foTa/UwDg9U616/+JXg2H6ObXdKQRNEu+5t0T0uO7L7Edx3ry8pD5X8OPJkHqYHAP6VnJODoclXZV4Yf6hWVxubdgj+1dNpEUpsLi0umLYUmMFuAp4rlfDPp1S6iUdQGBB6YNH6nrzw3RSDLIF2K+cKfeocW5aLi0oiCJHmvClw7uISVG45+MV0FpZNIqLKpCDknPSlNhGHdrg/lklxgH8p9q62eS3sbd1lcgMm45746Cibd0LGvbOb8RzmF4rOL0xsCzAjGR7f0qei+JZ7SSGG7tRfWsbAqpYrJFhs/wAKTrGSR24pPql7c3pi824lmWIusSN/IC24gfFStrd5MEBlOOSTwK2X1Ri7bOptfGe3Vbu+m0u21VpcrbjUY1kaEc4yRjccHHqHNLtVv9W8Q35uNRmkuZCPSCcRxKBjCr0VQPahY7eKNSZnwV6cVeb143jhiXbGSN6FsF/uRSlNtDquy/S0sPqoYpXjjIbY26MsGPbj2H6VRqStDfNDJOJolYr5sX5ZMHqAeR+oFPtO0O+u7YzwwXRuA2yOBrVmOQD+UjjI+e1Uv4T1R7D+JbXhujIAYBbj0IwzuZs8D2qYqT7QO2MfD0txe2Fw90kcukW6CWYlUMx2EBWKqQeAQOvQ5zXV/hyLazvJhOlxBeXchIjVQ0WByFLjndgjgnHNc74c/Dy6vdPllvJ/pZHXEGRkZBIYNjnt/XvXf6Jomk6JHKmnpcL5oCkSTFwAPYHp9+vFdMExVXY/k6cnJ+KgWFVpcBxskznsRUiV6jv0rcqzRbJ4FRbABycY61qV1jjLOQAASckDtXB6trF1fM259kRPEa/lH+9BnOfE6uXW7O1u/JW6McoyGdU3AZHegL+8C2zzW80NwsZ3cjILdFAwRjnHvXIGTOAeB8VW8xBUKSMEHPbrmhxRn5pM6ISzWtyjuPqbYQlDkAGPLZJ46rn9qOeS9Dq8UVogQMQkhLknHB6daQQak7qrNgtHkA+4I7010S6hltAfMCGPgxscnA7g+x9qzyQpFwyWyxpJpkjnkkaZ5Yw5kbq2f9qFMgDZOTRlvC66TbXQYuCGU5cZUgnjHtQU+DJuHBx3q8TuKM8j2NPD1wbfVbOUFhsnRvQcNgHnB98Z5pjfL9JeMm9XhYFg+OHRuQwz+/7ikEDGKRXz2yCD0NNnuXm0JE3M3kSlFB6qrgsR9sjOOxz71TRUGLb53RmjdtwXgGlOo2sF3sZt6TRn+FNGcPGfg/6dDTW7KON4CqVAVlHfjrS5+uFwuO1O7M5aYoePxCkkYj1W2KLkGRrbD4+QOCf2oHWtDv8AU0UXOstMVGQGgUYPXgjkDPzXQMB96rc5G0ggnoTSavsXJnC6poOoW0KF7p7i3VeSI9/ln7dduSelJk02WQMcZMLbZVyMj7Ka9QIZAMjJxSaTSLIFjhxNvZxPwGBJ/qPg1m8abK8hxWqC9hgFu8KIw58wMDu/QdKGj1DbKFkjQKy7WAGMj3pxq9rPA08cxiwpG5FJAb2I/qcZrnzH/MDuPcEHiuWcI3RoujodNuPKvYbj6gFEwx3HlgOo+Pau1tL1p41lLR4lTegB5AJ47V5xY5lREO4sh3I2/gfGK9B09ZYrCJJnMjAZztwFB7YqMMWsmuhTf1C5WIAPXIqtZ8ggk/c1H0lRu79DWnUZyxBHsK9IwLN6/wAwAJrCuWBBJHvmhyi8EZI+9WISh3DAB6GgAj1LG7D1FVJUHgE/evPdcvHubkTSQJHO/EhBJB9sDtinnixr0SAqcWpG30ORnvg/NcxK6Lu3R7yHBdc+3v7iuPNNuVI2hGgzSL5NNZpXsmGNjRy/lkQq2crzjP37Ggr6/W6vPOVPzyFwucAZOcD96hPdSzL1LAHgE5z/AL1SkMskhkhUnYMlRgf3qU/0skkk0jO2xzzwF5xWUXGkVhuiSXzmz6mX8v6ZrKLA+ltKgjfzPNdhsjzwoJY5A2jPc5roZ5bPRrSyit7SGS8eEyXLXKCUxsWIVQp4AwAemeaAvNQ/wS7ex0ZhGYjslugoMspxg4JHpX2AA6c0nBw3HTryea6z0h8LrUNXuIom824f8sUMa8AeyqowP2ojxEhsbOysZXX6gLJNMikMYyxACtjjdhckfNZ4HeQSaqkDlLl9MmEDA45XazYPbKhv7d65u5l9TYGzJzj2+KTBVZJ5OSAahdTLIyyK3LKCw9j3oSWTk1SZKY3IK35qSOKC8zJqaufcUC5DBJKJjccUrjfB5oqJqTGmNIWrr/Bcka22riRjHFJZiOSUf/GC6gEjuM4BxXFW545rqNNhuI/DF7dKgEc0kUJY45UEk474BC5NSxy6Br1isrK2NwPJHQ/I+KlY3S+W8E0ayRuQQCdrBvdT2OPfg0LfT+dDbyl1MgXym9/T0P7Y/ahVck/eih2PVtIZXAhvoMN+US7kK+wPGPjOcUPKjwzPE67XU7WB7H2oeFn8onkj3HamWtvHJqHnxOrrNGkmQOhIwR98g0qGmBmuW/ETVJLbSX0eytbi61HVIngtUjTK8jDFmzgYUk/pXUZrnJITP+JKvIxVbTSS0AI4ZpJMOw+wAH60Cl1Q0sLWKx0+1soQBHbxJCgHYKAP9KrJKyyBv5m3qc8HIGf6ijZFOM9O1ByjIIbBHtTHVES2DVUkg5qLHaMAHH3qhz1oolmzJQ+pXjWemXV2sfmmCNn8vON2BnFaZiOlcl+LF40Hg9wrIPOmSNg35iPZf96UuiJyqNnj+ozLPO5jhWJCM7UYsBznqec11XgTwZPq6rd3jyW1hk859b/A+Pmi/wAPfCrXZXVtXgxDgPbxn8rknqR3GO1eoqcYVQFA4AHtWOOF7Zy44ezmdb8HJfSW8dtKIba2s2igjIDBXJ4z0ycfzHPWuN1jwVrD6mbeHTVS182KJZLcllVWAyQD1HXPsa9bDdjzVyOa2cEzV44s85078L5HuY21TUA8KOSRD6WI6DHYHgHPtmu68M6VJo9i1tLdi7Jf0ylArBAOASOuPemBljjjkmldY441LuzdFUck1y+ufiJ4b022iltpm1NpRlVtyBj3yT07UKooFGMDrTuz34rSnJrx3/154hm1K+1eGS4FlAQFt/I3RhNw4J6BiB1PXkCmPij8T4rrSjBoEN1bXUm0PLKFPljuARwT80c0S8qPRrjXNDtLk21zq9hDOpyySTqGH3/2rifGf4mR2U8UXh2a1uVMZMssiMQrZ4AHfgdfmvM9Ps0vkkebVrGzfeN4nLktkHLcKeOBk1RHHPFI1wrRoE5S4jbK46ZGfzD7DvWcsjZk8rfR3834qaxcWyWr+H7VzKBHM2HPmBgQ2AOFyD78VxVxE9pPJaTWs9uuA6RXPDqp6ZxQK3F3cJ5khItY8BzGhCY6A4GBnr8nFEfV6dJM8Bup57l5t0d9N6I9qq2AUwT6jgcnjjrUyXJbEpv2VWcIkvJ0iuTADGRvxxj/AK9KW3lo0UMbzBwzgnBHA+BTPT+btZ2BUMfXzXSz2EWq2kKMMesjcRwGxnn9xWDnxZrx5I5Dw6Ha7hiiTzGZgSrDgY70/urSa5sLqa4zuAIC5/KR0xV+lWNrp5MrB5G8zkHvj29xmqLnU1uoTZQIyTb8SMRgEZ6frUudu0Uo1GmKNLstrITnGCzg8kfFHLBJPcCCxjluJWONka52k8eojpQfmidI4rWeKB/X5xd9u7bzhSepxkAdSa7nR9Sv9B061t40toLWV/NtNQFsXSZMYIkIxxnG7qwP2NbQi57ZlaWkc/qfhDxBbwi6uLUyAsd6qQ+0ZwOB71vw94O1i91GNLqzmitPMxK7rt4712Ph7x7cX2r21tqkFnb28g8tp4g4O89DznAP+9dvOWTIJraOKLeiJUw7w4Fiu7a2X/hhfLGT0G0iqixiVoyeenBzVFjcNFdRyJjcpyMnAOO1FXccDu0lo4eJznDZDRfB/wB62qgT0CrJtcHPOScmqXkzlu5rJQUJB69h7VUWyvFMllytkA5xRt3LcXemzOgQTKQhmC4JyDgkDgnj83X3pYgOMU00/wA4aZeRbAkF0AnnlchXQ5GPc46ge4ooE7OKuNIuxFvaAOx4dfNwQOMHP3zSeYyQStF6Q4OGAw39qZ63E7XgCSvPLghzkHG3v2xSm42+TGFYFhuyAmAM/PfNUjCfZU8mVBVuR/WqWdioUcVJZBGxcKDx0NVFjzxTM7N7pATgnB+attbgxvh/yHqKoJBHJrS4PPOKBp0PYL8wwGUlXViEK55HcYqp9SWRgxj5789qXBgIwCcjOftUcBmBA4qUq6KcrHEd6HjII754PSmdvdRpo8770yLhBtP5jlWHFcuGKtgMVzzirvqn8loAY9rkMfT/AFP6Z/elKTXQ4MbLeYJU4G7pj2qqaVOZI8EZwOeaWSXIDkIBsyNpJ5q4SIynKszdev8AahSsmy0uScitM443cfNCG5EfEiyEZ5z0FWGSKUZEmFIyOKqxFgkG4+qq7hAxVwelYHhPVyMc1itlSw24JwOetHJBQu1K28+3kCojOQMCT47/AHpX/gMjXEc8kkZjPLxgdOO1dCqqzFAcsOxqJaNCd7Ywff2rN44t2UpNaA00vTUVAtpGAAecc80VvUJwcY4AHtW2kiZDtbJYZGP81aVU2hiSvb71SSXQm7MMi46ZPtWo50YkHPI6nt8VCRwceUQxzjB4JqO1ZWyMhgeRVWIsLop2kgjtiphkJHH9apkjZeXAGP6VbpiW7X0f1AZos5cRn1EDsKGwRx/iq/mfU5LTcHjRsIo7fGaSzeXiQYZZFJyG78dK9GtPCe/Wbx4Lq3uXEDSRsFJVkKnJAPweCcc1xlxp5iui0lvNsMpDch22g45x3/7Fc0obOjpCiPhn3A7Rzx3NEW3mH+JgsvT2Ap49mZkaKFWUIoCnGO/Rvfk1bq+m3MkIKRqXZ9zKh9xzz0A70njdBaOalfcejAjuG61lT+muBI6hCUU7cgZGays+DFZ9I+Y0jmR23MxySepJ96Is4zPcxQAhTI6oCei5OM0Db5cgL36c10mjaNJIo1GW9t7ezgcNLcEttUgj0jgbn9gufnFdh6Sei6bVY9KuZrfSbZUjUGC4lmXfJMucMD2RTjoOcHk5rn9ZeNb2UwI6wSN5kIfrsblc/pW9UvRPqV1cLkLNM749wWJGf3oTXLyWc2Zd96pZxInwBnj980A3QO8uaqaSh2kqJkoI5BSyernp3qxZBng0GHz3qyNuaA5B8b0XA9LYm60ZA3NJlxY2tm4rqbZFj8Fz3aktJJdrbFuoChd+B7erH7Vy9nC/063THZEW2BiM7jjPArqvD7PrtpPoLOsblvqLXgLGpRDuTaP8y9CO9Symc+7Hd7VtG571U3Pq6cA9PerrKGS4uI4Yl3PIdqj3PtTKsIDbVGRyeTTGCeOazWCRkWWNy0TMcAqRypP35Gfmk7MQcc/rUo35pMBwlrM8UzogKwrukIYHC56/P6UnvtOefV7XUBd+Q1orJGqx7g4fG4PnqDjt068038PzFdThTa7iVvKZFOCwYYNDz4jneJW3BGK7vfBxmgo1P3GT+vvQUvQ0Q77vzdfcdqHnOee/vTQ5AkpwKFkbGaJmYZoKY4NBDKZX5oe5SK4heGdFkjcEMrDIINTkaqWagybNWsUFpbRW1uixxRKFRR/KB2q5X70PuqStiggMh5cALnNYNQ01QzPqNogjYq5aQDaRyc8+1IPF+oy6Z4cur2CRY5FAUMSAeewz39q8Uu72Q3H1U6vK02WZpGO5j05J7+9ROfEmeTidn468Z6nqpmsrOFotKZiilF5lIHd+Pvjg49xXK22myvZNdSwzyDKrGqRMQWz0Y9ANoJ6/2NZa3/lab5VnLdC4mb+KQFCDB4x3zx14/Wrxrmo+XPGl1Akbwm2CFPQEPUqDnDE87uOSfeseX6c8pOXYtnnWOQtBM8cL9YsnKjPAPOD96y2T+Jm5EsanlPLUM37E88e3SqRGheRDJGvlZwS27djp+nzXRaJ4dv8AW7029irJCkIk8yVSBg9SCBg5PT70LbonfobX+iaFp+iwSvq8V3dzrHL5STj1qVBbAAzuBOMHHz0o/wALaHb+L7q4ubiK5s9Os0MNlEzM+w84IJ4OCMkDjmjdL/Dm5OlQTz6pBDczAjZPbZEOer5HIcc4zmvR9A0K103SkstOaMRIScGT1SOcbmAPUk88VvGP6jWEP08y8aeE7Pw/4cvdbk1a7udQLBEOxVRmZsZ289v2PSvKkjyPMZS6rye4ye1ey/jrdeVpNlpS7fMnmMzjIJCoP6cmvInRGi8uOcBs5aPB5PbFROrpCaQf4ZBlvQkzFEU4Yjpg813eiworojo7xlGbHQHGO5riPAgZtVmi3YWNA3Trg4716XoEe/VgHiAiMbB/83OMY+K4ctWdOG2hb4gtYoYIl8yNt+CwAGcdckg9q5TUrcaXo73Shw00mxGbjBJ7V3XiO1NxfsiqgVVCDavqA+3akHi62hisY4pLy1jEIMqxTSBfqCONoz14yT/elhTborKqRw0r3VwrSOrSMnDlVzsGcDdjoD7mnWgeMPEempHZW2uSwWu5OJFDrFtzjhgcAZOQKH060huxKI9Qs7ETvylxMUt0z0G7knHB56UBrUWnWd5ss9QS9RZSpKAncOuc/uP0ru4tHAdRexajpdslvfWljJpk0ozPDGHEithiY2/lyPUBgYNemaXq2kXVjCtlfxPGqhFEkoDjA4BzyT714TJMXCQG43woNw3NkD2xnvVuVixJnevdgvIJ7g/6VHm4sdnv4Zo/WOMdfirIZVJLK4YqM4UgmvBZdV1CQgSajc7UTaFLtgKetWadqV1YxPDDcSeXNjOxuX2nI568Gr/yEB73J/FtzkECP46Dp+nOKAmlhhTM0ioPk1zXh7xp5eiCwVt8ssXlMLhgXHII5wPahLmeSeQyzuWJ5ye1bwfLZE5UdE2uWcbHG9gO6irfEPiWObRtLstPnlDRrLJLjjazt+X/APlArkQV6bSw61F3UcqMGrM/IyTy5ZiTz3NVkgoSeM8VCQnuO2a0eYjkjgjiggrfAzzUAHAICZPvUzGccsAO1YMkFB2+aYqIKAfUfTx3qaopGSf/ANLFRYqV2nj/AOtRcoowpVQe5oEWKXwcKvzzUd0jHgDI/N8VrYcAblx7isyw9IkJGOQvGaQ0TaQjaxbrwM9qgkqhW8wrk9cd60M7vUCRjowyawvG5yIyo7+mgZaGVlCjGB3qO10GN6MAeOcVSHCyEKVA7++KmqDduQZU8/mzxSoCeA/MiKynrj81RaHYABtK57HP2NQ2hSQuShPBI6VFwzEA7cg5BFICwSMnqQMrD2HWq/NIySNp7gDrUmdt5cISe/HGa0ZWDflIz0B7UqA3vyAclc+3JzWpJCWL53HpkrioALnIIG7naT0NabCEgsCG7YpgbeaQ+kuozyFGOKxnJYbg6HtgYzWtilvQoPGQD/vWg7YKMgPXnPIoAtsopbmVIYQNzsFG9gMn71oKQ7IdyNnGPYjqKu0y2mubhfpht2Dc7lwqxj/MSeg/1o2WCPULydzdwefgu21GCvgeplJwfnGKEOhYrMpILZ3Dv3FX2YnlnSC0j8yaQ7Y1Hc/996JiMRt0sxdwFPNLflOckYAHHBp1aJbeF9XD384nvLU73trYErvAyFeQ4BAOM4z0IpjUTPF+y1hHh5mhMVqFLzIxAuXP5yT/ADANwF6Dae5rkhB5ETeUMIPmj45zfyNFc3YAlYusrn/5P8x74Oeftmg1hhS4aIellOA5zgk8jr2P+tJlyVlClVYgPkdiP9ajM4miMbMAGOHIOMiqJHJfJ/h8nNVuSPVksB0OKdmYcpHlqqKqqB6QOwrKALk9GI+xrKQj3qE22maZbyLbR3F1eRFxJMA6xRhioCr0LHBO49Ow70w8TXCJoHh1FaQAWLMUPC7vNYFh/wDb/SlenoviDXdjlLK1RMy5JK2tunU578dPdj80F4q1n/FtSkuVMvkriO2DkZSFeFXjA6f1JoPXToWzzbiSDQ1zcvKsaMc7FKqe+Mk4/qaqd/eqnbNBm3bJbq2MEfNVBjmpBjQSixQaviFUI1XxtQUExqRRkIbBx/XpQUTgUXExPA4Pv7UGkXodXjoDCI2JiESFATyBjnjsc5pr4MuJo/ENkbSNXuWmVYQxwu4nHq9xgtxSPUHTzYzGMIIIwo+No/1zTv8AD9kXW3mcMFitLhzIoyYsRnD474JFJmieg/XrfSH1a8j0yUWiQysgjlclGwcZV8cZ54PGO9BWVrEZ9lxqFtbDGd4YydOcDYDz+tKd5VV57VO3kZpFXg5IHNJFJaHmvRB4rXUVZW+oDK+ARl0OC3/4gVP3JpUj85o7VnkXTtLiJGwwNOmOf+I5z89FH7UqDUAh3ohLXbMvMkcMkiDPVgOP1xk/pVDvk5z1qnTJhBKbljkRDO3dgknjP2Ga1MSrldpA4IB9j0/pSKRYzVVI3FQMnGKqduf60BJlczUHcH2q2d+1CzPTJbB5Tg0Ox5qUzVQzc0GDZZmtg/NVBhkZGR3+RRNvAZ1mkVtscUe9ie3IGP6imiRN4zngh8M3nnyiNWUKhKgktnjAPevFGlllbEk3mKCfUxyMnv8Aeun/ABFvr46w9vcyLiPHlKAMop5AOOpoTwhon+K6hHJcwtJZpks20hXI6rn9a5p3KRzzdsWQaTeNCblt0KrGJMPkZGeMDvnt71dpunf4jP8ATWaStKx9IUADHcnP+9erC1g4/goMKqj7LwB9qut4Y4VCRRomFwNoxwOlX4CDmtK8FRtLJJq1wJmJATyeCQBwxPY9sdK7nSbGOwsvIsYJkgJLAZZlXJ5AJ7fFARnkEmjfqJkiMaSOsbrhlDHBwe4z71soqPRcJB91K8drb3DZMSboZcYynq3BiPY5IqM8pa2lA9R2NtI+3alN9OtnaXF8ZGjEMbSsVODgc8c1z6al4k1Io+l2ceiQSAFnu8SM+f5ljHCn54qroJS9in8VbqfUPGMNo0SokNnGgiPPllwCRnrya43XArajOUwqx8DYeOMZHHz3ptFFNNr+oXVxdm9kt2k3zuADIVXApM8M9zC+wRp5cO4MeC6hsAH5LEVyt3IqvrYw/D2IHV7rKMFEIDAnkc16hpFvmSSZGYHy1GQmR1rz7wBZmDVtUjm3NJHGiNgFcNkkjn26V6RYebJbwxoUU7yWjkP5hjhcDn5zXHm7Ov4+om4rO6eZ5ZPKMjMMyKfzD/xQ8OqWmny3Hm2ENxM7enzVBCpzxzTexmW28OvfXEBZkGcJkk57fNee+Kr2SDxFcRpn+GQhGeOBVfF1kF8uXGAVq+o6uL67utLeK3iugHuIFUbGKjoVPuODXJy3ck10l1c2yGCaI26tgMCFO5T7+kbhnuKc297FdL/G2I4PHsahrMTtp5lEqoUIZWEY4564+ATXpPZ5im72cvf2K+Q1xByWkYMiD0AZ4x7faqnMqTeVbO0p8sEKAQQMcrg9xTU6GYGnj+pkaMj0PG2GZvYg8YpRdtdF3hZVeVHVhIvpYZGM+wz7VjOBadlIZ/MyGwccZU/94oyDyjGVESBwMqM5OR/ak9y8gARl2uDj0ngge9SjNxJMjCQ7gvQ8ZHxXPKOhnRaXdx21zHcvaLIQB36GuxtpkuoBOrgb+dpYEg+1cPBJLJIYTBGG48wnHH2FONBiha+k89djhRnDkYIPXiliyOE6RMo2dJ3KpwPtVciqB3zU3YYOGO7vx0qlhlslsKa9PsxZohi2FBx9q3tVQO5rHc4VQThe2OtYxMnAJRe4zSBEA2Wxtxj3NacjbnClPYdax9gACkEbu55NaMoKEeZz7UhENhkbCKQD78YqSps5GOOu4ZqoyEN6RtJ6/asd8qMj1Z6imBJmI77geyioggyAAHH26VGIZbncVB45xWSBlcqrEZHApCJsin1bcFevtUJVI5UkH78VgkkXac5U8EZzUonVWZGwwHTigZW7hgNxGRWWpEjEuxUKMfvWTAENscMfaoRKwgdQCGLAgGgRMvIhaMNkA+1bjcbgrZPPYYoZ3ZpGf3PJrW8npk9hQMJVmReZBgMfSR0qL7sekAq3Ve9ZCSQWU+rOCD7VWzgNgdT0zxigDayErtbkE/bFWqQrsjEOOwPehwzHO0c981hD5DNjbjBA7CkBcdy+hVyvcE8CpBW8wFkAHYg9aikkYwVXAbrnmrIIyZdkUZYk4VMc5zgCgBsIraHQrQmMK9y0sruWLYAOxBjgDncc88mshtLe0gWa+3NNIu6CBW25U/zSHqB7ADJ68Cr7vy7bWbaCWEXf0flR+QwIDbTluOpySw/rSzWQV1O5R5N2JWIbOdwJ4P7YplOls6DwgNOvfEel2MtiIFknXfLDI5K4OejZBHHNJtdv21PxJqF7PGwkurqVyhHTcx/T4/SiPD/niG/W1WV5mgYGRP8A4ocAyNnseg+M0BrUhe5S4YYM8avkfzN0Y/uDQNPWxdI7wkpzuVuefbir7l1mtFnVdskSqBk9VyRj9wD+tBT/AM2eBjPNTjlRoWiyVyihQe5B5/egm9g106rcOYhuRjlfseao3tk4OB7GiHUj0bePfNVSI5IAP2GKQjWQe2PtWVUCwPcfBrKAPZtQ167ubM2QENvacEwQRCNDjpnux/8AsTSmWYtyTnNDtJzUS2aD03LRYzkmo1HNboIJCp1XU8/NAImCelWqccVStWA5oLTCI25o6xDTShFZVJ6sxwqj3J7ClqGiI2xQVFjWecPINhyqqEXPBIA6018LakmnalumV3tp42t7lV/MY3GDj5HBH2rnEbiird+Rj/yaDRbHus2b2brIsgntpQWguEBCyqO4z3HcdqXq+DkZzTmeZx4Et452fB1B3tVPdNm1z8LuA+5rnmk9WRQh2dbZ2q6t4dMlsZDe2WFaEAYljLMxK9ywzkjuOR0pHkBioIyOCP8AvpRNhcM2iNDESskNz57kHB2lQoI98H+9HxajLqmmzaddi3laGIzwXEiASIU5YM/Vgy5HOecUqGmKFPYkUTHKj4WU4wMK3t8H4oAsBxkn5NZvHfmkWFTFkYqwww6iqHeotMWxk5xxVUj/ADQJmpW4oWZqnI2RQ0rUEMqkNUHrVpV2VmVSQvJPtVJPNOjCTJZo+eVLfw1GETMt3OwkZh0SMDaB8ZfJ+wpaG5GSAPmidbdFtNPt4nLoLcyFiMZd3JPHxgD9KZEno5a48PaPPdz3U9sZJZ872aQnk9x7GidIsINLsRZ2zP5QYsNzZPJootxWgSaOKMSQOO9bVjkgCsVSuWZRnsDU0lVUyvXPWmFE4lPBORVjO5bJX5xmh/MLNndQ+pajbafZvdXcojjQgZ2kkk9AB3NAugPxVcG4NloytzezjzQOoiT1N+hOBR08ogR7hvyxqXwOnAzSuximn1OXV7xSjsgjt4j1ij6+r/mY8kduK14ouTD4dvXQ4Zo9gGM5LED/AFoek2S3bo5Kzwnhq6v9iM1zJyH6bmbJwO2BSgtPG6Tw2skhnTymcxZUbs5QcYDYyPenWuBLDS7Cwmj8p/KLsyKBz0U/PB5FVa3NYJDHZ6bq0rWg8tpY1Q7VZVz5vJxk88DHzXFHezqmtJDP8N4hLJqE4WVjLcKjerJAVefv1/pXQfiG0Gk6Jb30BdbpJv8A27oTy20hmb3wO1CfhJaNJogl3ESTzO+R/NzjJp/+LVks+j6Zp+TveRshQS2QB0rml/VnVCLWMS+AfFM17BZaZfu0jyTeVDIidF259R+/FctqFz9VqF1NtVWeVm/TJr0XSNI0nRNKg1NIEW8EDMzmM+hTzzx1xXk0srbss2e4I64rf46+zZyfKb4JMKzhgVAB9quNzO1rLEGHqUjB560JG4Y5UHOOlXRbnx6AT8dK67OL2VPql19MjeSm4/mXYdxIoFWuCJ3IjbeVaUNwxPX+lSvrqS0nIMOS5AHPBAOcD2NV211c7pbjyvMBy0qOvBX3BrKUt7L66Ny6et0A4VOR+YHg/egngaNmhCAtGcneTtIpxati1X+GY8jOMdKjLb28soaRQxIxycUTxqStApCyK7O0kxgMy4RgoAHuCetdD4fe0lSOSZnV4QG4bcnTjJ9qXPp1rhSm4FWBJz1z/ajrWWK13iIKTgE+gc4965nifLQ+R0sNx57EJtKknJ3dKkfKHG9TgdQeK5mGc7w6EqzHJUdG+KZ29zM7hSnPTd3UV3c2lbM3GxmskjAptZAepIqtQyyAsRjHQdas80qwy6YIwDu/NUDIVYDhs9QegP3qlNMlqitm27yB9/1qLMFwpO3HXvWSxyM35sN1zjitK2SUKEt3PSqWxFQZWDFicnkD3q/b/CDgqEC5ZicAfeqZiFA3bd324pdqiTSyLIbp4w4ETLkEMpPORWeWUoq4lwSb2MONpPGDzwc5rT4JDAjI7HsKgk8SWYjNykqW42hiR6QPtWoLu3uY90EiPztJAohl5L7Cca6Jbg3qAyw7gVt5PObc5A4weOtSWQK21N3I5A6GozlvSVTjPOTWhJMAH8oBXHHvmq2JJwrEt3BNbO1gNsm0r+U+9QdWGdu0NnJG6iwNSAFdoUDqRjtVcaNgeYGX+2awSOzYTnA9Qq1zIMbxt9h70WAOrYJUMeetXBgdvmDp/mHNQEaM5OQp7YqJUk5x6h2z1+aQE2dgcx4IPB+Kxbh14wrA8YxzUQcERuRknp2rWFzgIQexHegC5du9XABJ6gcYphYySQR+cuGdpCkYPODjDN8H1D+9KCyq3qGO2BRUVyY7bG4ZwVX2UHr+/A/egAyO4e0vo7qSTzpI3Dl2Y+vjFCzMZsSM3LcHLZPHAH7VTI4aL0+vAwPtVBZyApGR746UIGdP4MRHbU4GZkE1i0IYH+ZmUL/XFJdSkJiiDE5RnBQ/y5Of75qWmXi20F7hsM0SbMe4kU/6VXrEsVxqdxJAw2SNvXj35P8AXNMp/wAgbc/mIA+RVRO0dDu7Y61MuPyM3HvmsLZHDcUiSDE7FBGT7Y6VFivmL1+/IqT4J9GdwFRjXcuGkII646UATcJIcM3I74rKoZY4z6iVJ9j1rKAO/YnOeeuOazPFc5+H97d3kk2nXbzyyKN6MxyAPYHqacXur6VZyTI0+9oRllVhls54X3II5qVkTR3JhgPepgmlra7or28zx3xPlLnmMgknoAO596G0DxHa6reNbNCLcswWABtxc9x98/tRySYWh6O2KkSaF1i7i0ywe6kVpcNsREPMjdwPkClvh/xFa6q8qOn0kikeWksgy4PtRyV0Ox6DUlbBqs8GsBxTKsJRvmrkag1NWo2OtMqw5W4o/SYZLu+gtYk3ySyKir/mJIGKUxtxRNtK8cgeNyjqcqw6qRzkHsaCkdR4uukuNf1Ly5VMSTlIBnjavp2r7AYNImYg4PWm3ifbcJZarHFs+ugBkKD0mVCVkP3PpY47mkhY55OaaLsZaXcxxXaNICyEbHUddpGDj55pz4eshea2dLin3tOkkELopw7EZXjqASMH261zUTbYjJn1E7V+Per7ad4mDpI0bKQVZTggjoQaKGmXS5BOQc9D96r3/NdLK0XiHTNSvDCkerWyLOTCMC5jyA+Vz+ccNuHUZyK5F2A7g5qQsJ3/ADVbtnvVG+omTiigsm78c1TI2eai0hNUs/OM0US2Y+OtRDDymPQg8HNRdsjHeq3ZAmADuFMxk0Zu57mmU0X1Hho3Oxs2U4i344ZZMtt/Qgn7E0pL9s010hPq4pdJMio9yFktyzekSrnap9twJX7kUGd6E9SRgvtn5qtjg46YJGPaoO5AyMUyLouducA1Hbx147knAqiaZYbeS4cHbGhdsdeBXmmva/d6ldyC3mnNtI4KwscAew461M5cRdnqiqQM7SR7ikHiODzNKvpZ5TJLtym5RiNdwwFHb79a8/Se6tgHeSVBuyuJDwfbFOo9e1G8s2053iuDL6SzjDjJB5NZrMn2I7hdq8HOc/2pX4rffa2tuRkT3Sr09ucVkmrKhGIPWTyc8Gq2vFvr+zaVVgity8rYG7tgZ/U1eWf0DErnQl1t0fXPMF1DbiMRxRrsICs/GMH26mg/FGmQaZaSQmeT66KJZZWdSDJ5hwEHYAAbueeaf+Ch/iGs6pNdbSse52jA3EgkA9v8oP61yd3F/iGo2ccEk0omlwyTTb3U7vUeOgwRjv6a44vR2TVnrX4e7dI8FwTzKziCzafCEZ3HnH3x/euduPHum69qdm+o6fNaw2sm8yI+85PbaO5wK7i4trSbwgwbyWtpMAqUPKLwB/y84+e9c/4C8E2+nX3+K3rLcRmM+UhUFFOcZ5zk56VhaOlqSpIK/FDVZIvDjzR7g12FiUNgcEZIwOnGB+przzxFp6abrl7YooMUcmYsn+VgGX+jUX+I+oNqPiWeBJs21n/AiUnuOp+ST/aoeNZFlg0PUGJzd6TFuPu0ZaMn9lFdmGPGJwfInzkIp7pWKKIxuQ9h1/Wt/VhT6WxwfUTkA0Ew8zncABwT0qz0q3L+krkK65/rVSo5w0zx3C4nRXwOGJyPmt6c8Bt23MoTJUFTwp9vtQcFwiFY0Dgn+UqMffOKIEAYcBmIB/4R2n9qynFF+g4tYfSghSRkKq5Kt0+f9KFv7eW1mEbketAw6Hg/NRSZ47oSkqVIG3nv2zRU0X1DYkOG8slAnTPUnFEJOLIasAzxtKnPx3q3YSoYb1YdV9x70PC/qIGOR3NEwGUptwMr3PcV02T0VI7eZydvcU4sxHtJQszEgncSAftSL1LcY7Z6nmmNmsuHYbcKCwrOabQ0xjIwUNFJIsjlf+GOQv60OZ5Z4zG7k7B+XdiqbiXe/mOvPZl45FZPIGdX2ZPc01CkLsJt52R/SXcbT6TwKLuJUhh8x8lwm8L3A70vVxIAwAUgDBx/pRRYpCC2Sz8KVY5AHJ/vUvlX1Hr2WxT2s9l57u1u/mBCjjPB5yB14/1pT4lfy7INFPE+GBBYDcAfal9xb3E2uSeWW2tiQq5OMDt+poq2shczMi7o42ydoUHn4asZynFVItJdoRyrdWyPGxeBnPrVl2sfbj2PWrdKlu7V2MMqk7QWIb1FftTW9SeSymt2dZrqMAtggbtvQn5/Whbd0j1BVvUeKIxrIUKjOT746ZpNKS+o2jpI8PEjLuVmAOCPcVKN8IUGF45PvS261aNLfzrdIpTGwDYB5GP++lL9P1y5kvCLgHyiRlSBwD/atvNxpUZ+P2dCAjSJHMMEjgjjmsbKTGKQDr1qJG/puBwG55wOxxVzGWWAMkqMUGCvv/1roTTVmRQ5WK5O1cBhnk1p3LopP5c8HGMVjQvL6lUgr0JPX4rQAkjKt6f8wpgYNyrtHU+5qPmSHGQoHTrVduHeURruZs7QMZJPtioXWo2EFyLeXzonH5g2MDnB/X4qJzUKsaTZZcIXMZB4B/Wph8EoTwPihYdWsXu2gkgKRcKjlvW3PXHTH9qMubVxHcS7XjSKRUG7GXzkgg9xxWcfkRlLiNwaIKpeT+HjJGACKgy+kl2PXoDzWg230JjAGSTU3ZlLNjzPTz8Gt2SVAMMFTxU+WyyMcDqKlhQokZMDHGagWztZgVx7DrQBpGUbsHO4Yx+uahJuCj1Nn3qyRWfGPSf71HDflLHcf2osCuFmVyrHI9zUmX1fw8qR81PywVJC+r5P9ar3AYDKSR2AoA3jKjEeD1yTVGQJ8vgEkMq9jV5DSP8AyxjHJZsf9mo3e42jiwf6ocGVo+saj39qieRQRUY8iLkyJx2PAI/1rKD02+hjLi4nzzgLgsBWVgs9+injLIJJ30t7i1nnkYDYcelkHvx296RwCVrgAynoS4Gfyn//AJ+aL0bybeVXluZAknDiPJK/b3+1Fy6rAmoNmGOeFW2RucDI7Ajr+lcilKNpG12GQ3sv/pa602DTQ0tzIsizibaQACMBcdMH3571zIaS1uisxktZVOBxyPtTW5ubW7BBneJicN5SbRxnjaTgjHt71ZaX9vf27WVzCZ0/KPSBg9jntiq8s62IBj1O7NtHbm6lSOORpNrMQAWGCf1roPAH+FnVCdQlQSAYtQ4BRT3OTwK42aC7t7owyK+9HK4J6H7f60fGjyoFYqkgGAg5BA/vWttbQWe0OmcEcgjIIOcg1AjFKNC8TaSdJQX0yWjWyLG2TkNgdcdvtXM654pvZ9Q8u1vIlt0dXj+mU+pcdCWwT8j3NdXlVWaOSR3gOM1NSeKT+Gb+81PTjeXUcCAuVURE5+cg9O1NQeatO1ZSdoJRqvifnrQiGrkOKZomdNrUmfD+hRxSBoBBK5wf/lMh3g/IGz9DSVpKPs5YpPDeoRy9Y5IWt89A+SGwfcrnj4+KUl+SM0Iuwx5FI2qPShwDnrmtq5980IjVajcUAmdP4R1A2l+sRijnhuSIZY2Yg4YgZDDlTz1/ToaW+J7aGw17ULK3cvFBdSRIx6sFYgH9hTT8N1tH8Xaab9sRCbcoIyC4BKbvYbsZpLri3Q1G6F6GW5EzeaGGCGJ5z+tHsbewF3xUDJx1NUyvgVSZMUGTm0ENL81W0i9yaoLkmos3FBDkXPKcYGMVSWz3qstWt1BDZbnjrU0lZGWQNhlIKn2I6VRnNSX+tFCst1BQ0izhBHHKu9lUnAbJzjPak11q+lwXa2st2glbnjlVHye1JPH2u4ZtGt8p5bBpXD45xylcX1DS+WApbaCc/r96yll4slnqF/relWcxtLifcWjywQblwRnBPyK80nlt4wPpY5IywOWLcnnI46Djt9619VO1nHbmSTy42LKM+9CTlQTyCCcnmolNy0IuadnB3gyY6E9qqLkuDkEEervQ4f1+kkDoPmr4EdSS23HXg1LSA63R5Y5bGJVcmRV53HJH2FFlYmtZ2klIZCqocH05OST8cVxELzxSZQ7XPQg81180N4NJsLdog0l3Nv3ljvYYC9OwpZJaSNMMadjnTYn0/wAJSajJBGk13vZZIm5KhcgjuOf3NLvA2l3l/wCNLS0uIDDJpkSx4ACFdp7nHXLZyeaMmlv/ACLnTb+wFsdOZZI4CcM8XmDdnHYBf610v4ORmeHU/EV+pEt1KztKy5Dk5wD7Zz/SsnqJ1xXKSQ08b6xFLf6b4atZilzd3Kh9nGI14GSeoJHT7098RSjRPD00sYWNYrfzNhXCggYAAPTLc4FcHqtjf6749ubiKwZhaOsTJ/LCwAYkE/zHHHbn2oLxeup2ng03GqaneXl5qV4UdJJcqsYGQABxkY/rWSVtI1lOk2eeTXPm3DPOP4jNuck8sf8AWui1wC4/D7w9dYw0F1d2hx7ErIv/APka5+KNWycDcD2p8As/4fzwtJtFvqyOAv8AzwsD/VRXfHqjye22IYH/AIeNqkd1PO6ob4nYKIhnGSC3StxxGJGaJt4xjjrUbeJxukZCUx6ix6E9KloaLwVFuH2hzuwN3ajLRkWMFliQDqEJ4quMbo1xjAG4kg4XnGKlmFYp8FQwHqz9qhoopkh8q5cxsTE/qVjyDn2o7T7iaS1xHHuAJyxPI+wpXazLGVVdygDnmiVu8ShlOHHTHT7n5qpRVEXsldeQypNF/OSGDLgg1RAxbIT9e9Mrp7eaIPKV9eTkHGT70BbxM3Crhs8YOKvG7jsmTNTxtFOquDuONoPOaaWSrvMcjGLeCrFh+X7j9KXz3Mcdu0SOpnRgxeMhyBn8uOo+4orTLx9Rff5RWVORg5wCKwl8jdei4w9sLtIbeeOcpK3oYAjZ+YZxuFBzI4uGhkLcHIPTIPSidNuIYiBb7ZJgRmEZHHfJ7H4oq6txLch8BjJ+UhuOKcfkRurBw/Ae3jLRiUksi+n15wD2qi51C3jm8nLZUHJAwAT0Of8ASmrT29vFlvIiVOrLmuP8QTwSXzT2cytC53bQfVu6UZW7TixKN9h1zrESuptFaQLjeGG0Ng528c4oSfVzdSFXlKLvyqqxVFHzSrAeAssiIecrnBNat3ikVllZU6fy5J/WocXP+mWtD36qPzGbyliRyFklDZyexqpljj1Hz7iePJABjdDskI6dece9LoL5opipMcqL3Iz6aMlEd5/HSEMk2OM8K2axiuDpDYTcy2yl3hjgQHMbkjKBiCARj+9LNPjjubqKGXMQxhn3/m+famNzZu1zHFJF5cSoTiM5Zl6A/v8A2oRrQWkjpLhRu2KjghiMZz8Yrbi4qxHXxWqqscaSMqhfSQc4/XvUpoZhnDFl+Ov3pR4bvSjGw2sFJJ68j7HvXQxNtdthDfLHg1vhm5oynFIEBMakI2ScYAHBNbR4pZDwN+cZ6A1ZtYyvBGi/xCcKDkk/FCyIyJLH5RLeWSQx4HHxVzyJavZHFld4YfJke2ugbhef4Uiqyc4B56/pXNzWQuG+qvJZIXZyD5oLGRuv3wT36VVcWl6IvPNncxLF/EDkEIVPQ889aGvbya6ij+tiDFBt8wudxXutcbc5u7N0qCbOzWKSb6mVP/bTD5B47n2wKd3GpG0j3vdQ3NmB/BG0YLcekDqMc1yGPLjmMKbgT+duoFGaRBNIvm7oxAFKu0sZdQTxgY5/WonDdthVjy611lQyQ20F0xzjYCGhHYkDg/rV1jqtzcNBBfWwhIjx5jekOfc/HNKdQ0j6FWlt7iSYq+BsQBVB/KDkggnNUSafdXAE8DZkdigi8wZXA5PXgGqhP2mHFHQz39ilyIxcoxJ2kpkhf+lXOpMZbJ2diCK5L6C6+neSEpIQuZFibcUA6Z/6e1dF4VA/wcT3AV09RQqfbrn2raPyGv6ZEoL0GZBUZLbffvWLEeCq+kdD3olpVIAiRFUjggjH7d6qT6cQyST3MqI3pXCAkj3+2a1nlfongUP0Ljdt6D04rQ27QjMQDyMUc8jeWDbTrPIBmMsAqkDtjv8ArQscj3MuJM5A5IX/AL4ohmvtA4A00sENtLLMnmqOgU/zf7Ulu5ibgrCgTcoBWPIznkj/AM07uoke2ljzjcuVGOuKS3yO8rXMSnEuEBHY4Bb+9TkpuzSC0CuNr4kkRD3CjJFZWzbERBmwQSevBrKzsugS2GUDI7NcKfyE4GPiiL2Qz2IeUZlj/KwHbPQ0v8xnwARRKZmhkgRJDIR6VQZz7inVCLRCxiRFuUUFQGEi4IB7j4q2whu7W68uCRAA4BDHAYHv9qs0zSbqWPzJ52ttnUMo3be5wTRUcU+nXYkvIGMQHonA3Dbng98H4rCc0roBRqKXM2qTkh2MZ2+pugHya3aXBSRN3p2kZYHoD7Cn9zc2VzeM1yyywOAAEX1bSMY+CP60KmnadOrpAzO+C2R6dpH9xRHKqqSBgF7I4uGVFkcFy2G5yM8Gq5JIpMSRKylc7wTkH/ar7mC8t5cXIdAOVY8gr9/aqGRVuDJvLREdxjn2NbKmI7Xwb4uiW1Gn3Uc0nl5KMh3bR7YruXGGrxuxu/pbxLi3AEivuRlwNtesaRqtjqcMQhule5MIZ4v5h7njjrW+KfpmkWGqSKujDOwVQST0FUgEcftRFu0iwXGxgv8AD9RxzjIzWxonssa4b6f6cN/D3Fjx396pDc5z1qot1GKkD0oL5F6tV6HmhUIzRERG4buB9qBpnT+Dd0dxeXCACSCwnkQkdDgLn74Y/vR18ttrHg6a9mYDUNKaNAQOZrZztAP/ANWPBPY4pdqEp0vSrewgSMPeWkc13Ng+Ywf1CMHsoAHTqetG+D1N5pGu2MKiS7uLeNoY/wCaQJIHkVfc7RnHxQUzjLpSM0K9H3keG6YB6fNBstBlKOykNgg8cGos27nAHParNtR2UGbRWBUtvxU1jq2OIk8A/NBNFAU1YkblWUHaSCA3+U4ritV8ZahbSSW62trC0TupkILBgOhA7dKCi1nW4o0nu7ucTibKZf8AhbNucFR+/PQVDypC0Jdesrm31i7tb6V5J0P/ABAM7yeckHpxk0vF5IITCpbrxzwOOf3rub7XoNa0tLe8jtYntT5krHiS5ULgKvGQc8kZFcZMYseVHGgXcXYtyxPYfGKzaXZLIwRySWU1zuTy4yoIZsE56YHeqnWJuZASSOxwBUHdSRtwMDgYqouCwAJINSmAVst1ZMqwA7g5zWp2iilKxszRn8obqRVJCYOfTxgZPNWW4jVAJoweMgj/AHosDdiouLyOAZDM4Ax969HmuZV120ENuHj06KTcGbCAquW3HPAzt5+cd65HwlDby69assGVhZpn2nOVUf7112mXES3Gtxp5IW8H0tvdXALCPBBbt3xjB/pUPcjoxfy2INevLy8sotQlEsbbTbKVYkSM5JPJAwNv9hXsv4e2X0Xgq3UNGpb+JIOCrZ/KT7DB/cV4nF9ZdeKLDS5EDrFLvMSncpOeG6/Nexa9rEnh3wu9xar9SuGtxAzp5ducFQVIwSc87eTzWeTbSOjBq2DeC4Js3d9Cs1yZJ5Mt5x8wRgld4Y8PwO5H9a4z8Z78PqNlaRHbEiNMMNnIbAHT4Gf1r0j8M1t7Pwo+WdWgtl24IZd7k7i3s3xnoK8V8WmfVvEF9ewSRFI5PKRWkAYIvC4H/fWox1yth8qVYqQkMoGEXn3K0ZHqDxWk1juHlTsjyDHdM45/U0NLZOitukRHVcuvPArPL8xWEE8b4424IaulTjZ5qTLFZVOFIHPI/XrmmGnhZIL0SEYEKshA67ZFz/8Aok0kXd5jI6ncBzuOKL06VEulid2SJ1MbHsueM/p1qhrTOgsbaNvDmt3nOYRboue+6Qn98CkruJFZXGCRjgftXSxBYPwt1GQlGa61iGLKHPEcbscfGW/pXKRuVbI3H4qkrCbKDCfN2sCWPTI60bZ2oeQSBhuHOAv7ipLKJIxn0MDzx2qNpPbvOUiuhJIvqCgEA/rSnNR7JS9m7xomij8pt20ngjpnmq7YsN0u4BY13E47+3yay8JVw443E4A7UJqTtHaJslEbFzzu61UtQ0T3Ii+pRRSGWG0VcuCxbls4557dq1b3k6CUwQ3CxN62JQ+n9aX28ck1zuDBRGQzu35R7U3vJLpQdupOd4yoKZQ/B9q4ZRV8TYl/irhh5dxKkjDLHjn2yR1xWNqJKSojPGCAXI6EjuPY1z+945CjpjHGPaiYNrgKZNmeQcU3hQ7HaXct5prW0t223eNsjJk5+T7dqW6hYXFvGh2E+oIWQcFj0HzxR2lXRsJ/MufXbspXdG+CSaNvruGazltbZXmnZA0bHGFxyT9xitMXFR+wndnO3cUsc5tnMbMABlDx/TvQ8KYYwjDE9DmjJJ0BHmxZYdcE5P3NDSFWYFAVbOVHtj5q4uwLLiIQSwsQ25gdwHH7UXp926CQKLZYs/lf4+KX3M081w0kzYk4AGOlWxtko5VSCcc9f0+aicUwHM+qzW8yzxJyo2MWG4N8Y9qlql59ZdQs4UoIhkInc9ft2pYx8y3dXXa45Q9/1NTs13MC0THaOQHILVKbUaCt2dJo6xBhMgIZGIbe2SAR296Z3E6oVknBUNkAgDB+9JtKhE0izRTyRwK2CJHDSKQMlVX+b4qGoXpv7Ka0tUYBH4aVAqkgcgnsR7U8WZQXFEyhbst8QaiE0wPaZ8yRgC5QEx45PPWk2l6xOLO6hjFupl/iPNIMvvHQIeo7/wCvao2UVvb7ZL9rhQ+fLliHqZuwAb2PXNBazFNHqLrOXaOPHqZAGKnpkDgEio1Ju+ykqLRdETiS5nkklR+VkO5WXHQ/2qSWaX16628DrCMOYw+AueoDHpQF9HbqUe2RgjjcCXySPmtpfXHlbUnaMBcYU4ye2arhrQDSbSIRKxWKSOEN5cg3iTaf84b2oC+W6tWEMMckaxkbJApG4/5vnNVC4ukt8JcuFI2soPIAPGfjmtpf3fmb5JpHRuCCeOP7UlGS2wL7HVLp0aGV3lh2lXDSHJU/NBJKhkdVJCBuBnnA+fetRSKrM+wAEngdh8VCXLjcBwecAVSivwBvBc3LXUtyJfOt4gGZk9PJ6HHc+9Ef4i0SZjaKFDMSUUYGf8wpXpflgyhwq7kxhuhH+9GWFnEUjUwqzSnaGLbiGz2/Ss5xXsDpElZ7eKRUiQCLeRG42sft2NUySx3BI8vc2MZ/y1BTbmF5I58qhwqeW2Qv+Y44BzQs3nWjjzA6EgMvHBHvW2Lg40mZu0xpPcLHFFF6GiiAO7ABHHuOtA32qPG6tG6sT6s5OR8YoMO8rv0OPfjmh7iZRuRlCuo9Bxn9KuUdDXYeL9yj+bMc9SMAjHwKCa4Zwkce0qrlxnjk4B/oKGKxKBuYs5/lNaErbtuxAOoJHNQo7L5DORrZ4xuJB46dKyl00LrKBGmUZQy89Qe9ZVUOxQAAeKO0yR1laZAu9BhSWwQfj5q5NIuZpnIRbaLPAc5IH26kVRNay20pj82JlU8SR81DmpaQugqNrqa4ZIHmYqdzFFLNjPPTk10Vte3P1D2txErRsm4K3pEgHcjv0rmrDUXspxPE0kRY+vY2Nw+/amljd3RgMhuSUhJfO3c4QjDKD856VzZYMBc6/SanObdjGEIZUfnGf5efvVtnfXEUjwpJ1bnZjaw9sd6cmLwzqzTTCCWObgF5JmwOeGwP2NC6r4cTcJtJeOYon8WBZg5B91PfNTHPB/V9jLoL0vHc2bOjkwnCsvp6ZBx2rnzIsypnzH/zDvn3NNYGiAUNazR3EQ2lQcFSPfP9jQtzYpBcOzFpFdQ4fO0gnqCM1tiqLpCYPGjQZlU/wycYbr8cV3vgjU9B0+3maSd453j3S85RiMcAYHq56dK82kkKuQDnJzz1xVlu86bVAfrkHFb7i7BOj1vVPEdqLy3i0+eJ1bHmO8bED4PwR7UJo/ja5gmmfyIrhGUoy46KW6D3+3WuGjvZEGwNx1K4zz9/airW9je68yMRs4A8rkKFfoGOeOPmjyyk9lKR6TDexu4j8uUuMBwkZKoTzgkdDjtReeaE0i1eKDzJLiK4kmQeqMAAED1AbeCM96L9q607LWy1DRNsrSt5aBmZ/SAoycnpgdzQq028KySReILCSHZvSdGG9cjg5PHwM1RpFjbxw5/x6SNliRooYYWjQ58srGoKH5BzQ2gXz2UglhLxyxsJUdDghl6Gl2pyxvfXLQljEZXMZY5O3ccZorQIhc6nawM6xiSVQWY8AZoKXZ0X4k2Fomqz3VnF5IZ40miRQESRolclcdASTx2Oa4l0HSvQdevBc3upST27NHqVqlwI0wMPtDDH2I6+2R3rgD980hyKdta21bjqTxVQubQzi3FxGZTzsXn+1DMmiaJzXMePP8Qg01pTqsUMRb+HbpGY2lXuC2ecde1E+LvEkekW0f0bwyTu/wD8gJAUdce/PHWuA1HUDfRfUT3FzM0jksrHMY+B1/8AFZTl6M5Motr+WK++okSKZAuSkib0Ynvj3B5oUyyvOBCwjIHOSenvUfOGxlA2DOQM5rSJJKwlJXYOCM4zWPH9M7LpGkZswqSGG0SZ5+1VzWzqoLOvP+X3rJJGUbAcjgAYqLtOuDJs9goYcfemAE+3ccLtHapwxsY2k7KwU4+amxDEo/AB4GanEoFvOinA2q3XPRqoChuAQ3Q9OKrMrDKnkHt2rTkrIyEnqR/WohsEg4GemaVBZ2HgF5oPrb5I3Z4ogIgmBnBywGeOmBR+vPb2aRafaPayMYk+rO3ezTNlnwf5WXIUkdcYrXh6D6XwhHK0pWWZ90EbJ1YsBke/pBJz8e9KNeubqD6h2YQXJfYYicuQRySMce9Quzp/mCGv4Zws2rXGor5hS1G9cHDbE9X98V6H42gi+s0HwzawrFIyma4j8rDSYy24k9SSfekXgOO2sPD1jA1jMlxqMypvwTuQep2GD04x+tNrNYNb8VXmoS6jAmQtvaQvN6hjpwckAHP3Oe4NZSfs6ccdJD7xNPFon4fvfPEqTTbigQbTkDkkdM8Y/XFfPb3sjyhncRsOCQvJ68163+N1/LBpen6MJ4xJFbolwF59bEFj/wDoivGrkP3U5BwD7/NPHHRz/Kl9qGLSeYwy8hJGck4/SrVvppJM+ckfwF6Glds+AQ5O4HIzWTIvmFld8Hn09P2p8NnMN7lkuYgryoW/kfr9wR1oWRZbV9zbQQe2CCKqs5hIrR7HYjv0z96nMVaNBycHkbsharG2nRMkNZ74waHZWiIqsZHuXfuxPpAPuAM/vQSBXcZLIx6YqGpPmKyXA2/Tgqffls1UjnIUtgY/N7V0dImW2Fyg2sfmyY47Buf1oVNTSF1kg2pK5wXKeo/c0Lqdy7u0Lkt5YHIH96CiQtMqiMnPY1zyjz2y0dQ8sd2w2l2bozIo2ZoS9mtogy+XHKY2wGPOPtWQuLa1MJClGHLEYOe33oOSKNsLczjP+VDgD4zWSk2qfQ6Sdlcd6ViaCMnYTnAAwec9KihfOSy4cEnJx+lbuba0WIvazSKT13kYJ9uO1DtcOo/hRoDgZbqatR/ACLeOOUGWaKJuOrvioJGqSsquqoOQcZra3TyJtZEZj1yvBqKR/wAUtbKHBHqXrj7Cm2wJyrObPbFlhu9XHNEaV9QttIiIfLfjc5xioAuY9sqSKSODjBFa+pCMULZBOM5Ix81CtqhlU2UulWfdEMZjI5U/71XLIBcb1Cso4/LgZrdxK05CMyJxjL55FVQWs08rxQo1x5aF2EeThR1b7VpHrYjaSh8iRM8dfiqPM2yBcnap4Ao2Hy2dYlQkj8o96svNMuY4muUhZo/5+CfLPzx0pcop0wsoMwkbzNuGC7cVkE6mIo4YqO46/pRcWlX4gSYRLuf8kIYb2HvjtRWg6bMuobbjSTcQkMDwWCkdSCDzj70pTilaYG2CafYsfrEZ5gkiRo27Z8nsDUbqXzLIS3F/LIhwUjCgZb5PfFb1aazZ57SG1jgiBzEpHqXjoT7UHFpwumP08/loiZLSjALgdBjrmsopNcmBVfXrSzpPHuDRgAHd0OeT9zVUV6RdCRlaYbssrdW+D71ZdxJOy3JQREptkWLkbh3+M9SKo2fSiKZJVLsTwOSta1F9AEEeYzlFQKTuWMHAjPsM/wBqHk8sH8j+Z0YEY6UWk8l3IEmiiUOu1SBj19j/AKVSNsk4crk9MZwB8EmktdgUl/MYMCwLcMMdwa2kOTIzNjau4r3xkDj96vmtdjySRMHCcsvcD4qDEx3EfmAlSu5lzyatMdGS20rNgo0aYwrOMYH26msNuI0I39ty7hjIqT3hZEE290DZVhwR8VS0hyzxg+sFWDDcAD7UrcmIpYDOEJPyaM09LiNmdVRjEu8D7dxVM0CxxQSoQVkX+Y9COCP9f1rUF00Rl2H8ylcZ6U5bQEprsPJ/DEqhmLN6uTn/AEpy86tBaw8yYUsZCTxuPA/TFLIb/BRpIx5ipt6cN9xTe1Ntd2yS4MLKDwo9J9h+lZr6yTaE1ohLcJDuYlDIBjgZ5+aEt7neWinAcAFvy9xWXltIVDAbjnoKrs1MU7My49JHJxnNdWRriTB7KtTSGOfbCZGUqrkMANpI5AqtJWBBAOR0PsKaMtusSXCRfUM3VS2TH+neouNNeJriS2ljR8AlDgL+vYn2rnWZJdFg8DTs/JLAINoHYVlEXbQtbxNG5UL6Fb8uR8/NZUeYYbcgLFdEdQjKCecDHSufYARjHGTWVlLB7EwdifO+3Sr7KeaJwI5CocjcB3rKyt59Ahi/o1KylQBHkXLlRjcfmj5JpIb6NoXMReRQ2zjPHxWVlcmZLiI6rUoIZ/C9xdSxI04b/iY9R57nv+tIr+NDpcgKgjZKP0ABH7ZrKyuXD0hnJX8McNlp0sa4eaNmkOSdxq22QM5Y5yqAj1H2rKyu9sTIM7BwQcHpmmVs7RWqvHgNzzgGsrKr0NBWk3l1HdNcJMyyLyCOAOR26V3/AITv7u+S4N1L5hUDb6QMcn2FZWVvjLiPV6Uy8PsRqDEHpbTf/wCtqysrqRpEEcYJA4ANF2p/iKPc1lZQaLsf3U0semaHOjlZBG6bv+USYA/qa5y45uJeB/xG6CsrKAZAAMCCMjpiltvHHBf3UcMUcaArgKoGMjmsrKT7MpHJ/izDHHrWn7AQJIlLDJwTn2rjNT/h3G1PSCMEDpjisrK5vZi+wKH/APeD9qtVisMhBwc4/rWVlMRSsj7/AMx71KViVUk5J61lZUsAeVjjrVunf/1A7eQaysqkJdlD/wDGc/8AMa3DyxzWVlALs9JilddN8PqrYEVq+zA6ZkVT/QkVxd3cTy6qIZZWkRbmTG7k8Egc9TgAVlZWSOyXaPYrWGNdR01VBAttKmkhwx/hs2ASPam2gxQnVNKhMEOxWLj+GM55PJxk8+9ZWVlLo64HB/jUxfVrqdsGX6uNNxHODAGI/evLr13HIZgc+9ZWVtj/AJPPz/2yxGZolZjlumaIEsiXCIjYXHSsrKmRiX3HolwnA2Bv1qUwADEAA7c9Kysql2HoAeR5MB2LBVwPjk0XpBP11t3/AI8YORnIJ5rKyqn0yfY48bxoNP0vCKCZ50Y45YBwACe+B70t8UgHxbdcD1CPPH/IP9qysrgwt8Sxz4k0+ztvDMF3BDsmMqoW3E8Fc4wTiuTmJ+ojrKytcG4sbB8nzlGcDPQURcoqLGUGNw5x3rKyuj0Jg8zMsg2nHA6Uzso0SDzVUB/fvWVlZ5AN6nNL5KJvO1X4/WqGjRhGWUElufmsrKmHQwXUiRIADwM4+K6vwrBDHoU92sSefDcAJIVywDKMgnuPg1lZTyfyDNeBbC0ukurqeENPCS0bgkFCD2xTnVYIn0C5uGDGRbwgHeeh5xjODWVlcOZ/cBNqM81tf3BgkZPJMJjwfykrzV1i7S6reljgFFYqvpUk8HgcVlZUvoQTp+n2Wp3EgvrdJvJlkjjzxhRjA464z3oS1VLPXby1gRBCIWUKyhwARzjOcVlZW2PoDlwzIhVGKjOODUbdjKyxyetQSACKysrsQEJgEu3VBgKMgDtRmpxomCihdz+rHesrK09AC3Du12gLH/h0dqKK13poKjDW0W75rKypY0QeKP6KYbB/xcfsaAb/AIrJ/LjGKyspxEW9bRVP5VuOB7cCqLZQ0jlhnB4/esrKTAkeZQx5ORTrTVBtghGUZuV7dfasrKzfaEw+WNAykKBSDX5XNwrFuQgwaysq59kxBbLOHOSCFGCDg0RdTSnguSCu0jtgVlZUotC+aRwAA7Y+9ZWVlVQz/9k=;movable=1;resizable=1;rotatable=1;deletable=1;editable=1;locked=0;connectable=1;" vertex="1" parent="1">
          <mxGeometry x="835" y="134" width="781.86" height="520" as="geometry" />
        </mxCell>
        <mxCell id="THTOjxSDZkzCPnBUejS3-2" value="" style="endArrow=none;html=1;rounded=0;strokeWidth=10;" edge="1" parent="1">
          <mxGeometry width="50" height="50" relative="1" as="geometry">
            <mxPoint x="369" y="634" as="sourcePoint" />
            <mxPoint x="396" y="482" as="targetPoint" />
          </mxGeometry>
        </mxCell>
        <mxCell id="THTOjxSDZkzCPnBUejS3-4" value="" style="endArrow=none;html=1;rounded=0;strokeWidth=10;" edge="1" parent="1">
          <mxGeometry width="50" height="50" relative="1" as="geometry">
            <mxPoint x="502" y="387" as="sourcePoint" />
            <mxPoint x="395" y="485" as="targetPoint" />
          </mxGeometry>
        </mxCell>
        <mxCell id="THTOjxSDZkzCPnBUejS3-5" value="" style="endArrow=none;html=1;rounded=0;strokeWidth=10;" edge="1" parent="1">
          <mxGeometry width="50" height="50" relative="1" as="geometry">
            <mxPoint x="500" y="389" as="sourcePoint" />
            <mxPoint x="652" y="382" as="targetPoint" />
          </mxGeometry>
        </mxCell>
        <mxCell id="THTOjxSDZkzCPnBUejS3-6" value="" style="endArrow=none;html=1;rounded=0;strokeWidth=10;" edge="1" parent="1">
          <mxGeometry width="50" height="50" relative="1" as="geometry">
            <mxPoint x="310" y="356" as="sourcePoint" />
            <mxPoint x="395" y="485" as="targetPoint" />
          </mxGeometry>
        </mxCell>
        <mxCell id="THTOjxSDZkzCPnBUejS3-7" value="" style="endArrow=none;html=1;rounded=0;strokeWidth=10;" edge="1" parent="1">
          <mxGeometry width="50" height="50" relative="1" as="geometry">
            <mxPoint x="120" y="310" as="sourcePoint" />
            <mxPoint x="311" y="357" as="targetPoint" />
          </mxGeometry>
        </mxCell>
        <mxCell id="THTOjxSDZkzCPnBUejS3-8" value="" style="endArrow=none;html=1;rounded=0;strokeWidth=10;" edge="1" parent="1">
          <mxGeometry width="50" height="50" relative="1" as="geometry">
            <mxPoint x="576" y="387" as="sourcePoint" />
            <mxPoint x="640" y="440" as="targetPoint" />
          </mxGeometry>
        </mxCell>
        <mxCell id="THTOjxSDZkzCPnBUejS3-9" value="" style="endArrow=none;html=1;rounded=0;strokeWidth=10;" edge="1" parent="1">
          <mxGeometry width="50" height="50" relative="1" as="geometry">
            <mxPoint x="63" y="386" as="sourcePoint" />
            <mxPoint x="248" y="344" as="targetPoint" />
          </mxGeometry>
        </mxCell>
        <mxCell id="THTOjxSDZkzCPnBUejS3-10" value="" style="endArrow=none;html=1;rounded=0;strokeWidth=10;" edge="1" parent="1">
          <mxGeometry width="50" height="50" relative="1" as="geometry">
            <mxPoint x="536" y="339" as="sourcePoint" />
            <mxPoint x="500" y="387" as="targetPoint" />
          </mxGeometry>
        </mxCell>
        <mxCell id="THTOjxSDZkzCPnBUejS3-11" value="" style="endArrow=none;html=1;rounded=0;strokeWidth=10;" edge="1" parent="1">
          <mxGeometry width="50" height="50" relative="1" as="geometry">
            <mxPoint x="640" y="289" as="sourcePoint" />
            <mxPoint x="535" y="340" as="targetPoint" />
          </mxGeometry>
        </mxCell>
        <mxCell id="THTOjxSDZkzCPnBUejS3-12" value="" style="endArrow=none;html=1;rounded=0;strokeWidth=10;" edge="1" parent="1">
          <mxGeometry width="50" height="50" relative="1" as="geometry">
            <mxPoint x="168" y="264" as="sourcePoint" />
            <mxPoint x="245" y="342" as="targetPoint" />
            <Array as="points">
              <mxPoint x="220" y="291" />
            </Array>
          </mxGeometry>
        </mxCell>
        <mxCell id="THTOjxSDZkzCPnBUejS3-15" value="" style="endArrow=none;html=1;rounded=0;strokeWidth=10;" edge="1" parent="1">
          <mxGeometry width="50" height="50" relative="1" as="geometry">
            <mxPoint x="306" y="247" as="sourcePoint" />
            <mxPoint x="428" y="331" as="targetPoint" />
          </mxGeometry>
        </mxCell>
        <mxCell id="THTOjxSDZkzCPnBUejS3-16" value="" style="endArrow=none;html=1;rounded=0;strokeWidth=10;" edge="1" parent="1">
          <mxGeometry width="50" height="50" relative="1" as="geometry">
            <mxPoint x="306" y="248" as="sourcePoint" />
            <mxPoint x="230" y="214" as="targetPoint" />
          </mxGeometry>
        </mxCell>
        <mxCell id="THTOjxSDZkzCPnBUejS3-17" value="" style="endArrow=none;html=1;rounded=0;strokeWidth=10;" edge="1" parent="1">
          <mxGeometry width="50" height="50" relative="1" as="geometry">
            <mxPoint x="305" y="247" as="sourcePoint" />
            <mxPoint x="275" y="180" as="targetPoint" />
          </mxGeometry>
        </mxCell>
        <mxCell id="THTOjxSDZkzCPnBUejS3-18" value="" style="endArrow=none;html=1;rounded=0;strokeWidth=10;" edge="1" parent="1">
          <mxGeometry width="50" height="50" relative="1" as="geometry">
            <mxPoint x="429" y="330" as="sourcePoint" />
            <mxPoint x="525" y="235" as="targetPoint" />
          </mxGeometry>
        </mxCell>
        <mxCell id="THTOjxSDZkzCPnBUejS3-19" value="" style="endArrow=none;html=1;rounded=0;strokeWidth=10;" edge="1" parent="1">
          <mxGeometry width="50" height="50" relative="1" as="geometry">
            <mxPoint x="521" y="237" as="sourcePoint" />
            <mxPoint x="600" y="222" as="targetPoint" />
          </mxGeometry>
        </mxCell>
        <mxCell id="THTOjxSDZkzCPnBUejS3-20" value="" style="endArrow=none;html=1;rounded=0;strokeWidth=10;" edge="1" parent="1">
          <mxGeometry width="50" height="50" relative="1" as="geometry">
            <mxPoint x="523" y="237" as="sourcePoint" />
            <mxPoint x="562" y="191" as="targetPoint" />
          </mxGeometry>
        </mxCell>
        <mxCell id="THTOjxSDZkzCPnBUejS3-21" value="" style="endArrow=none;html=1;rounded=0;strokeWidth=10;" edge="1" parent="1">
          <mxGeometry width="50" height="50" relative="1" as="geometry">
            <mxPoint x="526" y="234" as="sourcePoint" />
            <mxPoint x="476" y="165" as="targetPoint" />
          </mxGeometry>
        </mxCell>
        <mxCell id="THTOjxSDZkzCPnBUejS3-22" value="" style="endArrow=none;html=1;rounded=0;strokeWidth=10;" edge="1" parent="1">
          <mxGeometry width="50" height="50" relative="1" as="geometry">
            <mxPoint x="305" y="243" as="sourcePoint" />
            <mxPoint x="370" y="164" as="targetPoint" />
          </mxGeometry>
        </mxCell>
        <mxCell id="THTOjxSDZkzCPnBUejS3-23" value="" style="endArrow=none;html=1;rounded=0;strokeWidth=10;" edge="1" parent="1">
          <mxGeometry width="50" height="50" relative="1" as="geometry">
            <mxPoint x="394" y="481" as="sourcePoint" />
            <mxPoint x="426" y="329" as="targetPoint" />
          </mxGeometry>
        </mxCell>
        <mxCell id="THTOjxSDZkzCPnBUejS3-24" value="" style="endArrow=none;html=1;rounded=0;strokeWidth=5;dashed=1;dashPattern=1 4;" edge="1" parent="1">
          <mxGeometry width="50" height="50" relative="1" as="geometry">
            <mxPoint x="365" y="164" as="sourcePoint" />
            <mxPoint x="479" y="166" as="targetPoint" />
          </mxGeometry>
        </mxCell>
        <mxCell id="THTOjxSDZkzCPnBUejS3-27" value="" style="verticalLabelPosition=bottom;verticalAlign=top;html=1;shape=mxgraph.basic.8_point_star;fillColor=none;strokeWidth=15;strokeColor=light-dark(#000000,#7F00FF);" vertex="1" parent="1">
          <mxGeometry x="63" y="385" width="4" height="4" as="geometry" />
        </mxCell>
        <mxCell id="THTOjxSDZkzCPnBUejS3-29" value="" style="verticalLabelPosition=bottom;verticalAlign=top;html=1;shape=mxgraph.basic.8_point_star;fillColor=none;strokeWidth=15;strokeColor=light-dark(#000000,#7F00FF);" vertex="1" parent="1">
          <mxGeometry x="116" y="309" width="4" height="4" as="geometry" />
        </mxCell>
        <mxCell id="THTOjxSDZkzCPnBUejS3-30" value="" style="verticalLabelPosition=bottom;verticalAlign=top;html=1;shape=mxgraph.basic.8_point_star;fillColor=none;strokeWidth=15;strokeColor=light-dark(#000000,#7F00FF);" vertex="1" parent="1">
          <mxGeometry x="172" y="266" width="4" height="4" as="geometry" />
        </mxCell>
        <mxCell id="THTOjxSDZkzCPnBUejS3-31" value="" style="verticalLabelPosition=bottom;verticalAlign=top;html=1;shape=mxgraph.basic.8_point_star;fillColor=none;strokeWidth=15;strokeColor=light-dark(#000000,#7F00FF);" vertex="1" parent="1">
          <mxGeometry x="228" y="214" width="4" height="4" as="geometry" />
        </mxCell>
        <mxCell id="THTOjxSDZkzCPnBUejS3-32" value="" style="verticalLabelPosition=bottom;verticalAlign=top;html=1;shape=mxgraph.basic.8_point_star;fillColor=none;strokeWidth=15;strokeColor=light-dark(#000000,#7F00FF);" vertex="1" parent="1">
          <mxGeometry x="276" y="180" width="4" height="4" as="geometry" />
        </mxCell>
        <mxCell id="THTOjxSDZkzCPnBUejS3-33" value="" style="verticalLabelPosition=bottom;verticalAlign=top;html=1;shape=mxgraph.basic.8_point_star;fillColor=none;strokeWidth=15;strokeColor=light-dark(#000000,#66B2FF);" vertex="1" parent="1">
          <mxGeometry x="368" y="162" width="4" height="4" as="geometry" />
        </mxCell>
        <mxCell id="THTOjxSDZkzCPnBUejS3-34" value="" style="verticalLabelPosition=bottom;verticalAlign=top;html=1;shape=mxgraph.basic.8_point_star;fillColor=none;strokeWidth=15;strokeColor=light-dark(#000000,#66B2FF);" vertex="1" parent="1">
          <mxGeometry x="477" y="162" width="4" height="4" as="geometry" />
        </mxCell>
        <mxCell id="THTOjxSDZkzCPnBUejS3-35" value="" style="verticalLabelPosition=bottom;verticalAlign=top;html=1;shape=mxgraph.basic.8_point_star;fillColor=none;strokeWidth=15;strokeColor=light-dark(#000000,#7F00FF);" vertex="1" parent="1">
          <mxGeometry x="557" y="192" width="4" height="4" as="geometry" />
        </mxCell>
        <mxCell id="THTOjxSDZkzCPnBUejS3-36" value="" style="verticalLabelPosition=bottom;verticalAlign=top;html=1;shape=mxgraph.basic.8_point_star;fillColor=none;strokeWidth=15;strokeColor=light-dark(#000000,#7F00FF);" vertex="1" parent="1">
          <mxGeometry x="594" y="221" width="4" height="4" as="geometry" />
        </mxCell>
        <mxCell id="THTOjxSDZkzCPnBUejS3-37" value="" style="verticalLabelPosition=bottom;verticalAlign=top;html=1;shape=mxgraph.basic.8_point_star;fillColor=none;strokeWidth=15;strokeColor=light-dark(#000000,#7F00FF);" vertex="1" parent="1">
          <mxGeometry x="637" y="287" width="4" height="4" as="geometry" />
        </mxCell>
        <mxCell id="THTOjxSDZkzCPnBUejS3-38" value="" style="verticalLabelPosition=bottom;verticalAlign=top;html=1;shape=mxgraph.basic.8_point_star;fillColor=none;strokeWidth=15;strokeColor=light-dark(#000000,#7F00FF);" vertex="1" parent="1">
          <mxGeometry x="650" y="381" width="4" height="4" as="geometry" />
        </mxCell>
        <mxCell id="THTOjxSDZkzCPnBUejS3-39" value="" style="verticalLabelPosition=bottom;verticalAlign=top;html=1;shape=mxgraph.basic.8_point_star;fillColor=none;strokeWidth=15;strokeColor=light-dark(#000000,#7F00FF);" vertex="1" parent="1">
          <mxGeometry x="637" y="439" width="4" height="4" as="geometry" />
        </mxCell>
        <mxCell id="THTOjxSDZkzCPnBUejS3-40" value="" style="verticalLabelPosition=bottom;verticalAlign=top;html=1;shape=mxgraph.basic.8_point_star;fillColor=none;strokeWidth=15;strokeColor=light-dark(#000000,#66B2FF);" vertex="1" parent="1">
          <mxGeometry x="394" y="481" width="4" height="4" as="geometry" />
        </mxCell>
        <mxCell id="THTOjxSDZkzCPnBUejS3-41" value="" style="verticalLabelPosition=bottom;verticalAlign=top;html=1;shape=mxgraph.basic.8_point_star;fillColor=none;strokeWidth=15;strokeColor=light-dark(#000000,#66B2FF);" vertex="1" parent="1">
          <mxGeometry x="368" y="633" width="4" height="4" as="geometry" />
        </mxCell>
        <mxCell id="THTOjxSDZkzCPnBUejS3-42" value="" style="verticalLabelPosition=bottom;verticalAlign=top;html=1;shape=mxgraph.basic.8_point_star;fillColor=none;strokeWidth=15;strokeColor=light-dark(#000000,#66B2FF);" vertex="1" parent="1">
          <mxGeometry x="425" y="327" width="4" height="4" as="geometry" />
        </mxCell>
        <mxCell id="THTOjxSDZkzCPnBUejS3-43" value="" style="verticalLabelPosition=bottom;verticalAlign=top;html=1;shape=mxgraph.basic.8_point_star;fillColor=none;strokeWidth=15;strokeColor=light-dark(#000000,#66B2FF);" vertex="1" parent="1">
          <mxGeometry x="499" y="385" width="4" height="4" as="geometry" />
        </mxCell>
        <mxCell id="THTOjxSDZkzCPnBUejS3-44" value="" style="verticalLabelPosition=bottom;verticalAlign=top;html=1;shape=mxgraph.basic.8_point_star;fillColor=none;strokeWidth=15;strokeColor=light-dark(#000000,#7F00FF);" vertex="1" parent="1">
          <mxGeometry x="538" y="338" width="4" height="4" as="geometry" />
        </mxCell>
        <mxCell id="THTOjxSDZkzCPnBUejS3-45" value="" style="verticalLabelPosition=bottom;verticalAlign=top;html=1;shape=mxgraph.basic.8_point_star;fillColor=none;strokeWidth=15;strokeColor=light-dark(#000000,#66B2FF);" vertex="1" parent="1">
          <mxGeometry x="525" y="232" width="4" height="4" as="geometry" />
        </mxCell>
        <mxCell id="THTOjxSDZkzCPnBUejS3-46" value="" style="verticalLabelPosition=bottom;verticalAlign=top;html=1;shape=mxgraph.basic.8_point_star;fillColor=none;strokeWidth=15;strokeColor=light-dark(#000000,#66B2FF);" vertex="1" parent="1">
          <mxGeometry x="302" y="241" width="4" height="4" as="geometry" />
        </mxCell>
        <mxCell id="THTOjxSDZkzCPnBUejS3-47" value="" style="verticalLabelPosition=bottom;verticalAlign=top;html=1;shape=mxgraph.basic.8_point_star;fillColor=none;strokeWidth=15;strokeColor=light-dark(#000000,#7F00FF);" vertex="1" parent="1">
          <mxGeometry x="241" y="338" width="4" height="4" as="geometry" />
        </mxCell>
        <mxCell id="THTOjxSDZkzCPnBUejS3-48" value="" style="verticalLabelPosition=bottom;verticalAlign=top;html=1;shape=mxgraph.basic.8_point_star;fillColor=none;strokeWidth=15;strokeColor=light-dark(#000000,#7F00FF);" vertex="1" parent="1">
          <mxGeometry x="219" y="291" width="4" height="4" as="geometry" />
        </mxCell>
        <mxCell id="THTOjxSDZkzCPnBUejS3-49" value="" style="verticalLabelPosition=bottom;verticalAlign=top;html=1;shape=mxgraph.basic.8_point_star;fillColor=none;strokeWidth=15;strokeColor=light-dark(#000000,#66B2FF);" vertex="1" parent="1">
          <mxGeometry x="309" y="357" width="4" height="4" as="geometry" />
        </mxCell>
        <mxCell id="THTOjxSDZkzCPnBUejS3-50" value="" style="verticalLabelPosition=bottom;verticalAlign=top;html=1;shape=mxgraph.basic.flash;fillColor=light-dark(#000000,#A680B8);strokeWidth=7;strokeColor=light-dark(#000000,#A680B8);" vertex="1" parent="1">
          <mxGeometry x="423" y="71" width="39.35" height="68" as="geometry" />
        </mxCell>
        <mxCell id="THTOjxSDZkzCPnBUejS3-53" value="" style="endArrow=none;html=1;rounded=0;strokeWidth=5;dashed=1;dashPattern=1 1;" edge="1" parent="1">
          <mxGeometry width="50" height="50" relative="1" as="geometry">
            <mxPoint x="503" y="706" as="sourcePoint" />
            <mxPoint x="229" y="703" as="targetPoint" />
          </mxGeometry>
        </mxCell>
        <mxCell id="THTOjxSDZkzCPnBUejS3-54" value="" style="verticalLabelPosition=bottom;verticalAlign=top;html=1;shape=mxgraph.basic.8_point_star;fillColor=none;strokeWidth=15;strokeColor=light-dark(#000000,#003300);" vertex="1" parent="1">
          <mxGeometry x="322" y="61" width="4" height="4" as="geometry" />
        </mxCell>
        <mxCell id="THTOjxSDZkzCPnBUejS3-55" value="" style="verticalLabelPosition=bottom;verticalAlign=top;html=1;shape=mxgraph.basic.8_point_star;fillColor=none;strokeWidth=15;strokeColor=light-dark(#000000,#003300);" vertex="1" parent="1">
          <mxGeometry x="445" y="22" width="4" height="4" as="geometry" />
        </mxCell>
        <mxCell id="THTOjxSDZkzCPnBUejS3-56" value="" style="verticalLabelPosition=bottom;verticalAlign=top;html=1;shape=mxgraph.basic.8_point_star;fillColor=none;strokeWidth=15;strokeColor=light-dark(#000000,#003300);" vertex="1" parent="1">
          <mxGeometry x="561" y="75" width="4" height="4" as="geometry" />
        </mxCell>
        <mxCell id="THTOjxSDZkzCPnBUejS3-60" value="" style="verticalLabelPosition=bottom;verticalAlign=top;html=1;shape=mxgraph.basic.8_point_star;fillColor=none;strokeWidth=15;strokeColor=light-dark(#000000,#003300);" vertex="1" parent="1">
          <mxGeometry x="503" y="702" width="4" height="4" as="geometry" />
        </mxCell>
        <mxCell id="THTOjxSDZkzCPnBUejS3-61" value="" style="verticalLabelPosition=bottom;verticalAlign=top;html=1;shape=mxgraph.basic.8_point_star;fillColor=none;strokeWidth=15;strokeColor=light-dark(#000000,#003300);" vertex="1" parent="1">
          <mxGeometry x="228" y="702" width="4" height="4" as="geometry" />
        </mxCell>
        <mxCell id="THTOjxSDZkzCPnBUejS3-62" value="" style="verticalLabelPosition=bottom;verticalAlign=top;html=1;shape=mxgraph.basic.8_point_star;fillColor=none;strokeWidth=15;strokeColor=light-dark(#000000,#003300);" vertex="1" parent="1">
          <mxGeometry x="364" y="702" width="4" height="4" as="geometry" />
        </mxCell>
        <mxCell id="THTOjxSDZkzCPnBUejS3-63" value="&lt;b&gt;1&lt;/b&gt;" style="text;html=1;align=center;verticalAlign=middle;resizable=0;points=[];autosize=1;strokeColor=none;fillColor=none;" vertex="1" parent="1">
          <mxGeometry x="357.5" y="622" width="25" height="26" as="geometry" />
        </mxCell>
        <mxCell id="THTOjxSDZkzCPnBUejS3-64" value="&lt;b&gt;2&lt;/b&gt;" style="text;html=1;align=center;verticalAlign=middle;resizable=0;points=[];autosize=1;strokeColor=none;fillColor=none;" vertex="1" parent="1">
          <mxGeometry x="383.5" y="470" width="25" height="26" as="geometry" />
        </mxCell>
        <mxCell id="THTOjxSDZkzCPnBUejS3-65" value="&lt;b&gt;3&lt;/b&gt;" style="text;html=1;align=center;verticalAlign=middle;resizable=0;points=[];autosize=1;strokeColor=none;fillColor=none;" vertex="1" parent="1">
          <mxGeometry x="296" y="346" width="25" height="26" as="geometry" />
        </mxCell>
        <mxCell id="THTOjxSDZkzCPnBUejS3-66" value="&lt;b&gt;4&lt;/b&gt;" style="text;html=1;align=center;verticalAlign=middle;resizable=0;points=[];autosize=1;strokeColor=none;fillColor=none;" vertex="1" parent="1">
          <mxGeometry x="488.5" y="374" width="25" height="26" as="geometry" />
        </mxCell>
        <mxCell id="THTOjxSDZkzCPnBUejS3-67" value="&lt;b&gt;5&lt;/b&gt;" style="text;html=1;align=center;verticalAlign=middle;resizable=0;points=[];autosize=1;strokeColor=none;fillColor=none;" vertex="1" parent="1">
          <mxGeometry x="414.5" y="316" width="25" height="26" as="geometry" />
        </mxCell>
        <mxCell id="THTOjxSDZkzCPnBUejS3-69" value="&lt;b&gt;6.1&lt;/b&gt;" style="text;html=1;align=center;verticalAlign=middle;resizable=0;points=[];autosize=1;strokeColor=none;fillColor=none;" vertex="1" parent="1">
          <mxGeometry x="286" y="230" width="35" height="26" as="geometry" />
        </mxCell>
        <mxCell id="THTOjxSDZkzCPnBUejS3-71" value="&lt;b&gt;6.2&lt;/b&gt;" style="text;html=1;align=center;verticalAlign=middle;resizable=0;points=[];autosize=1;strokeColor=none;fillColor=none;" vertex="1" parent="1">
          <mxGeometry x="509.5" y="221" width="35" height="26" as="geometry" />
        </mxCell>
        <mxCell id="THTOjxSDZkzCPnBUejS3-72" value="&lt;b&gt;7.1&lt;/b&gt;" style="text;html=1;align=center;verticalAlign=middle;resizable=0;points=[];autosize=1;strokeColor=none;fillColor=none;" vertex="1" parent="1">
          <mxGeometry x="352.5" y="151" width="35" height="26" as="geometry" />
        </mxCell>
        <mxCell id="THTOjxSDZkzCPnBUejS3-73" value="&lt;b&gt;7.2&lt;/b&gt;" style="text;html=1;align=center;verticalAlign=middle;resizable=0;points=[];autosize=1;strokeColor=none;fillColor=none;" vertex="1" parent="1">
          <mxGeometry x="461.5" y="151" width="35" height="26" as="geometry" />
        </mxCell>
        <mxCell id="THTOjxSDZkzCPnBUejS3-74" value="&lt;b&gt;8&lt;/b&gt;" style="text;html=1;align=center;verticalAlign=middle;resizable=0;points=[];autosize=1;strokeColor=none;fillColor=none;" vertex="1" parent="1">
          <mxGeometry x="429" y="92" width="25" height="26" as="geometry" />
        </mxCell>
        <mxCell id="THTOjxSDZkzCPnBUejS3-75" value="&lt;b&gt;9.1&lt;/b&gt;" style="text;html=1;align=center;verticalAlign=middle;resizable=0;points=[];autosize=1;strokeColor=none;fillColor=none;" vertex="1" parent="1">
          <mxGeometry x="429" y="11" width="35" height="26" as="geometry" />
        </mxCell>
        <mxCell id="THTOjxSDZkzCPnBUejS3-76" value="&lt;b&gt;9.1.1&lt;/b&gt;" style="text;html=1;align=center;verticalAlign=middle;resizable=0;points=[];autosize=1;strokeColor=none;fillColor=none;" vertex="1" parent="1">
          <mxGeometry x="301.5" y="50" width="45" height="26" as="geometry" />
        </mxCell>
        <mxCell id="THTOjxSDZkzCPnBUejS3-77" value="&lt;b&gt;9.1.2&lt;/b&gt;" style="text;html=1;align=center;verticalAlign=middle;resizable=0;points=[];autosize=1;strokeColor=none;fillColor=none;" vertex="1" parent="1">
          <mxGeometry x="540.5" y="64" width="45" height="26" as="geometry" />
        </mxCell>
        <mxCell id="THTOjxSDZkzCPnBUejS3-78" value="&lt;b&gt;9.2&lt;/b&gt;" style="text;html=1;align=center;verticalAlign=middle;resizable=0;points=[];autosize=1;strokeColor=none;fillColor=none;" vertex="1" parent="1">
          <mxGeometry x="348.5" y="691" width="35" height="26" as="geometry" />
        </mxCell>
        <mxCell id="THTOjxSDZkzCPnBUejS3-79" value="&lt;b&gt;9.2.1&lt;/b&gt;" style="text;html=1;align=center;verticalAlign=middle;resizable=0;points=[];autosize=1;strokeColor=none;fillColor=none;" vertex="1" parent="1">
          <mxGeometry x="207.5" y="691" width="45" height="26" as="geometry" />
        </mxCell>
        <mxCell id="THTOjxSDZkzCPnBUejS3-80" value="&lt;b&gt;9.2.2&lt;/b&gt;" style="text;html=1;align=center;verticalAlign=middle;resizable=0;points=[];autosize=1;strokeColor=none;fillColor=none;" vertex="1" parent="1">
          <mxGeometry x="484" y="691" width="45" height="26" as="geometry" />
        </mxCell>
        <mxCell id="THTOjxSDZkzCPnBUejS3-81" value="&lt;b&gt;10&lt;/b&gt;" style="text;html=1;align=center;verticalAlign=middle;resizable=0;points=[];autosize=1;strokeColor=none;fillColor=none;" vertex="1" parent="1">
          <mxGeometry x="524.5" y="327" width="31" height="26" as="geometry" />
        </mxCell>
        <mxCell id="THTOjxSDZkzCPnBUejS3-82" value="&lt;b&gt;11&lt;/b&gt;" style="text;html=1;align=center;verticalAlign=middle;resizable=0;points=[];autosize=1;strokeColor=none;fillColor=none;" vertex="1" parent="1">
          <mxGeometry x="623" y="276" width="31" height="26" as="geometry" />
        </mxCell>
        <mxCell id="THTOjxSDZkzCPnBUejS3-83" value="&lt;b&gt;12&lt;/b&gt;" style="text;html=1;align=center;verticalAlign=middle;resizable=0;points=[];autosize=1;strokeColor=none;fillColor=none;" vertex="1" parent="1">
          <mxGeometry x="636.5" y="370" width="31" height="26" as="geometry" />
        </mxCell>
        <mxCell id="THTOjxSDZkzCPnBUejS3-84" value="&lt;b&gt;13&lt;/b&gt;" style="text;html=1;align=center;verticalAlign=middle;resizable=0;points=[];autosize=1;strokeColor=none;fillColor=none;" vertex="1" parent="1">
          <mxGeometry x="623.5" y="428" width="31" height="26" as="geometry" />
        </mxCell>
        <mxCell id="THTOjxSDZkzCPnBUejS3-85" value="&lt;b&gt;14&lt;/b&gt;" style="text;html=1;align=center;verticalAlign=middle;resizable=0;points=[];autosize=1;strokeColor=none;fillColor=none;" vertex="1" parent="1">
          <mxGeometry x="227.5" y="327" width="31" height="26" as="geometry" />
        </mxCell>
        <mxCell id="THTOjxSDZkzCPnBUejS3-86" value="&lt;b&gt;15&lt;/b&gt;" style="text;html=1;align=center;verticalAlign=middle;resizable=0;points=[];autosize=1;strokeColor=none;fillColor=none;" vertex="1" parent="1">
          <mxGeometry x="47" y="374" width="31" height="26" as="geometry" />
        </mxCell>
        <mxCell id="THTOjxSDZkzCPnBUejS3-87" value="&lt;b&gt;16&lt;/b&gt;" style="text;html=1;align=center;verticalAlign=middle;resizable=0;points=[];autosize=1;strokeColor=none;fillColor=none;" vertex="1" parent="1">
          <mxGeometry x="102.5" y="298" width="31" height="26" as="geometry" />
        </mxCell>
        <mxCell id="THTOjxSDZkzCPnBUejS3-88" value="&lt;b&gt;17&lt;/b&gt;" style="text;html=1;align=center;verticalAlign=middle;resizable=0;points=[];autosize=1;strokeColor=none;fillColor=none;" vertex="1" parent="1">
          <mxGeometry x="205.5" y="280" width="31" height="26" as="geometry" />
        </mxCell>
        <mxCell id="THTOjxSDZkzCPnBUejS3-89" value="&lt;b&gt;18&lt;/b&gt;" style="text;html=1;align=center;verticalAlign=middle;resizable=0;points=[];autosize=1;strokeColor=none;fillColor=none;" vertex="1" parent="1">
          <mxGeometry x="158.5" y="256" width="31" height="26" as="geometry" />
        </mxCell>
        <mxCell id="THTOjxSDZkzCPnBUejS3-90" value="&lt;b&gt;19&lt;/b&gt;" style="text;html=1;align=center;verticalAlign=middle;resizable=0;points=[];autosize=1;strokeColor=none;fillColor=none;" vertex="1" parent="1">
          <mxGeometry x="212" y="204" width="31" height="26" as="geometry" />
        </mxCell>
        <mxCell id="THTOjxSDZkzCPnBUejS3-91" value="&lt;b&gt;20&lt;/b&gt;" style="text;html=1;align=center;verticalAlign=middle;resizable=0;points=[];autosize=1;strokeColor=none;fillColor=none;" vertex="1" parent="1">
          <mxGeometry x="262.5" y="170" width="31" height="26" as="geometry" />
        </mxCell>
        <mxCell id="THTOjxSDZkzCPnBUejS3-92" value="&lt;b&gt;21&lt;/b&gt;" style="text;html=1;align=center;verticalAlign=middle;resizable=0;points=[];autosize=1;strokeColor=none;fillColor=none;" vertex="1" parent="1">
          <mxGeometry x="580.5" y="210" width="31" height="26" as="geometry" />
        </mxCell>
        <mxCell id="THTOjxSDZkzCPnBUejS3-94" value="&lt;b&gt;22&lt;/b&gt;" style="text;html=1;align=center;verticalAlign=middle;resizable=0;points=[];autosize=1;strokeColor=none;fillColor=none;" vertex="1" parent="1">
          <mxGeometry x="543.5" y="181" width="31" height="26" as="geometry" />
        </mxCell>
      </root>
    </mxGraphModel>
  </diagram>
</mxfile>
